<?xml version="1.0" encoding="UTF-8"?>
<svg id="Layer_1" xmlns="http://www.w3.org/2000/svg" version="1.1" viewBox="0 0 250 250">
  <!-- Generator: Adobe Illustrator 29.2.1, SVG Export Plug-In . SVG Version: 2.1.0 Build 116)  -->
  <defs>
    <style>
      .st0, .st1 {
        fill: #f8ac1c;
      }

      .st2, .st1, .st3 {
        fill-rule: evenodd;
      }

      .st2, .st3 {
        fill: #fff;
      }

      .st4 {
        fill: #253c7f;
      }

      .st3 {
        opacity: .5;
      }
    </style>
  </defs>
  <path class="st4" d="M250,0v250H86.6c2.31,0,3.94-.43,4.92-1.28l59.28-83.16c3.41-4.99,5.8-13.06,7.15-24.19,1.14-11.34,2.16-17.61,3.08-18.73,1.95-2.75,7.7-12.05,17.24-27.93,6.39-.45,11.2-2.49,14.47-6.14,5.68-6.36,9.31-10.68,10.9-12.94,2.5-3.87,2.95-6.94,1.36-9.19-1.82-2.28-2.39-4.21-1.7-5.8.23-.92,1.47-2.85,3.75-5.8,1.35-2.05,2.26-4.77,2.72-8.18.2-2.07.13-4.13-.23-6.2-.03-.2-.07-.41-.11-.61-1.15-4.55-4.2-9.2-9.21-13.97-5-4.55-7.73-7.95-8.18-10.23-3.86,5.46-4.32,10.46-1.36,15,2.72,4.32,3.63,6.92,2.72,7.84-.91.91-2.16.35-3.74-1.72-2.05-2.71-3.29-4.42-3.75-5.1-.68-.69-1.6-3.07-2.71-7.14-.68-2.95-2.61-4.88-5.79-5.79-7.95-2.28-12.83-4.33-14.65-6.14-3.64-3.63-5.68-7.83-6.14-12.6h93.38Z"/>
  <path class="st4" d="M195.14,72.21l-10.23,13.98c-.23.22-.8.35-1.71.35-1.45,2.43-2.86,4.77-4.23,6.99-.08.14-.16.28-.25.42-.16.25-.31.51-.47.76h.02c-9.54,15.88-15.29,25.18-17.24,27.93-.92,1.12-1.94,7.39-3.08,18.73-1.35,11.13-3.74,19.2-7.15,24.19l-59.28,83.16c-.98.85-2.61,1.28-4.92,1.28-1.96,0-4.41-.31-7.35-.94-6.8-1.82-13.4-5-19.75-9.55-6.36-4.53-11.47-9.77-15.34-15.66-3.41-5.47-4.65-9.32-3.75-11.6l6.52-9.18L187.63,62.37c.25.2.49.4.73.61.32.27.64.54.94.8l.03.03c.63.54,1.23,1.08,1.79,1.62.14.13.28.26.41.39.07.06.14.13.21.21.38.36.75.74,1.09,1.11.03.02.04.04.06.06.18.2.36.39.53.59,1.59,2.04,2.17,3.51,1.72,4.42Z"/>
  <path class="st0" d="M187.63,62.37L46.93,203.07l52.77-74.3c3.41-5.01,10.23-9.87,20.45-14.66,2.5-1.13,5.91-2.72,10.22-4.77,3.19-1.59,5.22-2.94,6.14-4.08,1.05-1.58,6.55-8.33,16.51-20.28.01.01.03.02.04.03,3.01-3.63,6.47-7.77,10.39-12.45-.22-.9-.22-1.57,0-2.03h-.35l.02-.03,10.2-13.95c.24-.47.77-.67,1.6-.6.25.02.53.07.83.14.11.03.22.06.34.09.58.15,1.24.39,1.98.69.32.12.65.25.98.38.62.26,1.27.55,1.92.89.01,0,.02,0,.03,0,1.67.83,3.44,1.89,5.28,3.15.46.36.92.72,1.35,1.07Z"/>
  <path class="st1" d="M209.54,40.46c-.03-.2-.07-.41-.11-.61-1.15-4.55-4.2-9.2-9.21-13.97-5-4.55-7.73-7.95-8.18-10.23-3.86,5.46-4.32,10.46-1.36,15,2.72,4.32,3.63,6.92,2.72,7.84-.91.91-2.16.35-3.74-1.72-2.05-2.71-3.29-4.42-3.75-5.1-.68-.69-1.6-3.07-2.71-7.14-.68-2.95-2.61-4.88-5.79-5.79-7.95-2.28-12.83-4.33-14.65-6.14-3.64-3.63-5.68-7.83-6.14-12.6H0v250h86.6c-1.96,0-4.41-.31-7.35-.94-6.8-1.82-13.4-5-19.75-9.55-6.36-4.53-11.47-9.77-15.34-15.66-3.41-5.47-4.65-9.32-3.75-11.6l6.52-9.18,52.77-74.3c3.41-5.01,10.23-9.87,20.45-14.66,2.5-1.13,5.91-2.72,10.22-4.77,3.19-1.59,5.22-2.94,6.14-4.08,1.05-1.58,6.55-8.33,16.51-20.28.01.01.03.02.04.03,3.01-3.63,6.47-7.77,10.39-12.45-.22-.9-.22-1.57,0-2.03h-.35l.02-.03,10.2-13.95s.05-.1.09-.14c.03-.05.07-.1.11-.13.26-.25.66-.36,1.2-.34.06,0,.13,0,.2.01.11,0,.23.02.36.05.09.01.18.03.28.05.06.01.13.03.19.04.11.03.22.06.34.09.29.08.61.17.94.29.33.12.67.25,1.04.4.32.12.65.25.98.38.31.13.63.27.95.41h0s.01.01.01.01c.32.15.64.31.96.47.01,0,.02,0,.03,0,.22.1.44.22.66.34.41.21.83.44,1.26.69.1.05.2.11.3.17.29.17.59.35.89.54.04.02.08.05.13.08.21.13.43.27.65.42.1.05.2.11.29.18.37.23.73.48,1.1.73.46.36.92.72,1.35,1.07.25.2.49.4.73.61.32.27.64.54.94.8l.03.03c.63.54,1.23,1.08,1.79,1.62.14.13.28.26.41.39.07.06.14.13.21.21.38.36.75.74,1.09,1.11.01.02.03.04.05.06h.01c.18.2.36.39.53.59,1.59,2.04,2.17,3.51,1.72,4.42l-10.23,13.98c-.23.22-.8.35-1.71.35-1.45,2.43-2.86,4.77-4.23,6.99-.08.14-.16.28-.25.42-.16.25-.31.51-.47.76h.02c6.39-.45,11.2-2.49,14.47-6.14,5.68-6.36,9.31-10.68,10.9-12.94,2.5-3.87,2.95-6.94,1.36-9.19-1.82-2.28-2.39-4.21-1.7-5.8.23-.92,1.47-2.85,3.75-5.8,1.35-2.05,2.26-4.77,2.72-8.18.2-2.07.13-4.13-.23-6.2Z"/>
  <path class="st3" d="M209.77,46.66c-.46,3.41-1.37,6.13-2.72,8.18-2.28,2.95-3.52,4.88-3.75,5.8-.69,1.59-.12,3.52,1.7,5.8,1.59,2.25,1.14,5.32-1.36,9.19-1.59,2.26-5.22,6.58-10.9,12.94-3.27,3.65-8.08,5.69-14.47,6.14h-.02c.16-.25.31-.51.47-.76.09-.14.17-.28.25-.42,1.37-2.22,2.78-4.56,4.23-6.99.91,0,1.48-.13,1.71-.35l10.23-13.98c.45-.91-.13-2.38-1.72-4.42-.17-.2-.35-.39-.53-.59h-.01s-.04-.04-.05-.06c-.34-.37-.71-.75-1.09-1.11-.07-.08-.14-.15-.21-.21-.13-.13-.27-.26-.41-.39-.56-.54-1.16-1.08-1.79-1.62l-.03-.03c-.3-.26-.62-.53-.94-.8-.24-.21-.48-.41-.73-.61-.43-.35-.89-.71-1.35-1.07-.37-.25-.73-.5-1.1-.73-.09-.07-.19-.13-.29-.18-.22-.15-.44-.29-.65-.42-.05-.03-.09-.06-.13-.08-.3-.19-.6-.37-.89-.54-.1-.06-.2-.12-.3-.17-.43-.25-.85-.48-1.26-.69-.22-.12-.44-.24-.66-.34-.01,0-.02,0-.03,0-.32-.16-.64-.32-.96-.47h-.01c-.32-.15-.64-.29-.95-.42-.33-.13-.66-.26-.98-.38-.37-.15-.71-.28-1.04-.4-.33-.12-.65-.21-.94-.29-.12-.03-.23-.06-.34-.09-.06-.01-.13-.03-.19-.04-.1-.02-.19-.04-.28-.05-.13-.03-.25-.04-.36-.05-.07-.01-.14-.01-.2-.01-.54-.02-.94.09-1.2.34-.04.03-.08.08-.11.13-.04.04-.07.09-.09.14l-10.2,13.95-.02.03h.35c-.22.46-.22,1.13,0,2.03-3.92,4.68-7.38,8.82-10.39,12.45-.01-.01-.03-.02-.04-.03-.32-.25-.59-.53-.82-.81-1.82-2.5-3.52-5.92-5.11-10.23-1.81-6.13-2.16-11.13-1.02-14.98,1.82-3.42,3.18-5.92,4.09-7.51,1.59-3.18,1.59-7.49,0-12.94l3.75,1.36c2.94,1.59,5.11,4.09,6.46,7.49.69,1.14,1.03,4.21,1.03,9.2,0,3.85.1,5.11.34,3.74,2.71-3.63,4.42-7.38,5.1-11.24.23-2.26-1.24-5.79-4.42-10.56-4.08-5-6.58-8.18-7.49-9.54-1.36-2.05-1.94-6.81-1.72-14.3.24-7.73,1.37-12.61,3.41-14.66.46,4.77,2.5,8.97,6.14,12.6,1.82,1.81,6.7,3.86,14.65,6.14,3.18.91,5.11,2.84,5.79,5.79,1.11,4.07,2.03,6.45,2.71,7.14.46.68,1.7,2.39,3.75,5.1,1.58,2.07,2.83,2.63,3.74,1.72.91-.92,0-3.52-2.72-7.84-2.96-4.54-2.5-9.54,1.36-15,.45,2.28,3.18,5.68,8.18,10.23,5.01,4.77,8.06,9.42,9.21,13.97.04.2.08.41.11.61.36,2.07.43,4.13.23,6.2Z"/>
  <path class="st2" d="M195.11,72.2l-10.22,13.98c-.24.22-.81.35-1.72.35-1.47,2.46-2.87,4.79-4.2,7-.08.14-.16.28-.25.42-.15.26-.3.51-.45.76-9.54,15.88-15.29,25.18-17.24,27.93-.92,1.12-1.94,7.39-3.08,18.73-1.35,11.13-3.74,19.2-7.15,24.19l-59.28,83.16c-.98.85-2.61,1.28-4.92,1.28-1.96,0-4.41-.31-7.35-.94-6.8-1.82-13.4-5-19.75-9.55-6.36-4.53-11.47-9.77-15.34-15.66-3.41-5.47-4.65-9.32-3.75-11.6l6.52-9.18,52.77-74.3c3.41-5.01,10.23-9.87,20.45-14.66,2.5-1.13,5.91-2.72,10.22-4.77,3.19-1.59,5.22-2.94,6.14-4.08,1.05-1.58,6.55-8.33,16.51-20.28,3.05-3.66,6.52-7.81,10.41-12.45-.22-.88-.22-1.54-.01-2,0-.01.01-.02.01-.03h-.35l10.23-13.98c.21-.43.69-.63,1.41-.58.06,0,.13,0,.2.01.11,0,.23.02.36.05.09.01.18.03.28.05.06.01.13.03.19.04.11.03.22.06.34.09.29.08.61.17.94.29.33.12.67.25,1.04.4.32.12.65.25.98.38.31.13.63.27.95.42h.01c.32.15.64.31.96.47.01,0,.02,0,.03,0,.42.21.84.43,1.27.67.85.47,1.73,1,2.62,1.57.45.29.9.59,1.36.9.47.37.93.73,1.37,1.09.25.2.5.4.74.6.32.27.64.54.94.8l.03.03c.63.55,1.23,1.09,1.79,1.62.14.13.28.26.41.39.07.07.14.14.21.21.37.37.74.75,1.09,1.11.01.02.03.04.05.06.18.2.35.39.52.58,1.58,2.05,2.16,3.52,1.71,4.42Z"/>
</svg>