<?xml version="1.0" encoding="UTF-8"?><svg id="Layer_2" xmlns="http://www.w3.org/2000/svg" xmlns:xlink="http://www.w3.org/1999/xlink" viewBox="0 0 1024 1024"><defs><style>.cls-1{fill:#ffcf5c;}.cls-1,.cls-2,.cls-3,.cls-4,.cls-5,.cls-6{stroke-width:0px;}.cls-1,.cls-2,.cls-4{opacity:.15;}.cls-7,.cls-8,.cls-9,.cls-10,.cls-11,.cls-12{stroke-miterlimit:10;stroke-width:.75px;}.cls-7,.cls-8,.cls-11,.cls-12{fill:none;}.cls-7,.cls-9,.cls-10{stroke:#677693;}.cls-8{stroke:#ffcf5c;}.cls-9,.cls-13{fill:#1e2733;}.cls-10,.cls-6{fill:#9cadc4;}.cls-2{fill:#ed0a0a;}.cls-11{stroke:#36d0ff;}.cls-12{stroke:#dc0023;}.cls-3{fill:#080A0D;}.cls-14{clip-path:url(#clippath);}.cls-4{fill:#36d0ff;}.cls-5{fill:#677693;}</style><clipPath id="clippath"><path class="cls-9" d="M854.67,386.33v-53.83h18.11v-89.5h-21.22v-8.56h-63.33v9h-203v26.44h-16.33v-21.94h-11.78v-19.06h21.33V77.33h-122.61v70h-15.17v-5.94h-92.1v5.53h-15.73c-.42,0,0-14.58,0-14.58h-37.33v15.5h-4.33v21.83l3.58,2.33v20.67h-8.5l.04,2.67h-15.54l-2.58-2.33h-51v-14.11h-60.06l-.22,152.82v31.71h2.59v6.25h3.85v17.44h-3.67v4.22h-25.67v7.78h-5.78v22.67h6.22v13.44h17.44v22.33h-4.33v70.69h35.94v-12h29.83v18.42h3.25v19.75h-8.25v4.92h-4.83v22.5h-37v4.33h-4.83l-.67,48.67,39,4.67,42.22,43.72,25,44.11,15.78,15.44,88.33,27.89,30.83.5,38.72,27.5v33.89l1.22,2.33v53.56l1.78,2.11v20.78l21.33,14.33h49.72v10.56l31.72-5.67v-121.22h144c1.33,0,0,53.33,0,53.33l49.44-5.33v-92.56l11.22-29.11h88.44v-94h-20.78l-8.78-21.11,5.44-2.33,5.44,11.67,5-19.33h42.81v-99.56h-14v-54.08h-13.58v-15.58l-5-14.75h-4.58l-3.83-26.33h-4.92v-13.92h31.67ZM738.38,410.83h2.33l.04-4.21h22.92v7.71h-2.58v16.21h-17.92v-3h-4.79v-16.71ZM568.5,308.5v-7.67h17.67v14.5h28.25v-38.33h94.81v35.72h-5.5v4h5.44v36.11h-6.17v3.67h13.83v29h-16v-13.5h-45.83v101.08h12.83v15.5h-2.33v10.08h14.5v17.25h-12.08v-4.19h-69.92v5.11h-5.11v33.61h15.56v14.67h10.33v24.44h-17v-21.33h-65v-76.44h31.56v-36.56h-56.33v-58.89h-10.28v-28.39h12.69v-28.78h-6.25v-8.38h-8.88l-5.38-17.42h4.75l2.83,8.67,2.5-11.99v-21.06h15.83v19.5h48.67ZM471.83,228.28v8h25.72v-7.61h33.33v19.78h-10.11v7.89h-15.72v-7.56h-57.39v10h-5.67v25.72h5.72v4.56h17.31v14.83l3.1,12.91.82-3.96h4.61v17.61h-8.22v8.56h-6.5v29.12h11.08v28.04h-10.67v57.96h-58.17v-11.71h-14.12v9.92h-17.62v-3.46h-8.88v-9.5l-17.18-15.88h-11.86v-8.88h4.2v-13.86l4.43-4.43v-17.71l-3.96-3.96v-15.08h-4.67v-20.42h8.08v-5.67h7.58v-10.28h6.25v-21.89h25.83v-29.08h5.42v-22.42h-5.42v-20.42h32.75v10.42h28.75v-11.56h31.17ZM294.08,484.92v-30.83h3.58v-5.92h35.58v5.92h3.42v30.75h-3.08v4.75h-35.92v-4.67h-3.58ZM269.83,210.17h17.33v4.67h6.67v8.08h39.11v-8.19h8.72v-22.56h-8.71l.04-23.42h15.17v8.58l29.33-.42v-6.42h30.67v6.83h26v-6.83h6.5v-2.47h15.11v33.53h-102.33v39.56h-83.61v-30.94ZM216.56,440.22h-3.56v56.33h-28.78v-40.11h-3.61v-20.78h5.78v-8.22h26.22v4.44h3.94v8.33ZM336.42,702.42h-48.17v-35.08h48.17v35.08ZM347.17,643.17h-65.75v-22.92l-23.83-34.5v-27h-7.5v-5.08h-7.08v-18.67h3.58v-93.67h-5.29v-10.12h7.46v-9.88h5.83v-21.42h-5.81v-8.64h-52.28v-4.5h-3.17v-16.44l5.25.06v-7.5h37.53s-5.33-3-1.44-9.56c3.89-6.56,11.11-6.44,11.11-6.44h11.67v-23.67h30.11v10h8v6h7.78v20.22h-5.22v15.22l-4.03,4.44v15.22l3.69,3.89v16.33h6.22v8.33h-18.78l-21.11,18.78v49.67l16.89,16.83h64.83l16.69-16.44v-11.14h8.08v-3.42h16.22v3.83h45.5l21.33,19.67v39l-17.67,19.67h-51.5v30.17h-37.33v53.67ZM514.08,860.75h-48.33v-23h48.33v23ZM792,641.17h-16.58v37.25l-44.61,44.61h-43.14v66.64h-141.56v-25.72l-26.33-4.33v4.39h-57.11v-16.22l-49.56-12.22-8.22-7.11h-37.56v-125.78h69.33v8.67h111.56v-4.22h51.11v9.33h90.69v-9.69h80.47v4.58h21.5v29.83ZM822.25,555.67h-81.25v-23.89h-29v47.56h-54.78v9.33h-16.89v-21.56h11.89v-15.78h42.56v-39.33l-5.64-1.92v-10.36h2.78v-10.67h-4.17v-16.5h11.25v-13.33h15.17v-15.5h-12v-41.47h14.25v7.33l2.75-.08v52.28h-2.33v25.33h-10.06v7.11h5.56v8.78h28.61v-14.83h81.31v67.5ZM740.67,355v-73.17h84.33v73.17h-84.33Z"/></clipPath></defs><g id="ANCIENT"><g id="Layer_2-2"><rect class="cls-3" width="1024" height="1024"/><g id="GRADIENTS"><path class="cls-13" d="M854.67,386.33v-53.83h18.11v-89.5h-21.22v-8.56h-63.33v9h-203v26.44h-16.33v-21.94h-11.78v-19.06h21.33V77.33h-122.61v70h-15.17v-5.94h-92.1v5.53h-15.73c-.42,0,0-14.58,0-14.58h-37.33v15.5h-4.33v21.83l3.58,2.33v20.67h-8.5l.04,2.67h-15.54l-2.58-2.33h-51v-14.11h-60.06l-.22,152.82v31.71h2.59v6.25h3.85v17.44h-3.67v4.22h-25.67v7.78h-5.78v22.67h6.22v13.44h17.44v22.33h-4.33v70.69h35.94v-12h29.83v18.42h3.25v19.75h-8.25v4.92h-4.83v22.5h-37v4.33h-4.83l-.67,48.67,39,4.67,42.22,43.72,25,44.11,15.78,15.44,88.33,27.89,30.83.5,38.72,27.5v33.89l1.22,2.33v53.56l1.78,2.11v20.78l21.33,14.33h49.72v10.56l31.72-5.67v-121.22h144c1.33,0,0,53.33,0,53.33l49.44-5.33v-92.56l11.22-29.11h88.44v-94h-20.78l-8.78-21.11,5.44-2.33,5.44,11.67,5-19.33h42.81v-99.56h-14v-54.08h-13.58v-15.58l-5-14.75h-4.58l-3.83-26.33h-4.92v-13.92h31.67ZM738.38,410.83h2.33l.04-4.21h22.92v7.71h-2.58v16.21h-17.92v-3h-4.79v-16.71ZM568.5,308.5v-7.67h17.67v14.5h28.25v-38.33h94.81v35.72h-5.5v4h5.44v36.11h-6.17v3.67h13.83v29h-16v-13.5h-45.83v101.08h12.83v15.5h-2.33v10.08h14.5v17.25h-12.08v-4.19h-69.92v5.11h-5.11v33.61h15.56v14.67h10.33v24.44h-17v-21.33h-65v-76.44h31.56v-36.56h-56.33v-58.89h-10.28v-28.39h12.69v-28.78h-6.25v-8.38h-8.88l-5.38-17.42h4.75l2.83,8.67,2.5-11.99v-21.06h15.83v19.5h48.67ZM471.83,228.28v8h25.72v-7.61h33.33v19.78h-10.11v7.89h-15.72v-7.56h-57.39v10h-5.67v25.72h5.72v4.56h17.31v14.83l3.1,12.91.82-3.96h4.61v17.61h-8.22v8.56h-6.5v29.12h11.08v28.04h-10.67v57.96h-58.17v-11.71h-14.12v9.92h-17.62v-3.46h-8.88v-9.5l-17.18-15.88h-11.86v-8.88h4.2v-13.86l4.43-4.43v-17.71l-3.96-3.96v-15.08h-4.67v-20.42h8.08v-5.67h7.58v-10.28h6.25v-21.89h25.83v-29.08h5.42v-22.42h-5.42v-20.42h32.75v10.42h28.75v-11.56h31.17ZM294.08,484.92v-30.83h3.58v-5.92h35.58v5.92h3.42v30.75h-3.08v4.75h-35.92v-4.67h-3.58ZM269.83,210.17h17.33v4.67h6.67v8.08h39.11v-8.19h8.72v-22.56h-8.71l.04-23.42h15.17v8.58l29.33-.42v-6.42h30.67v6.83h26v-6.83h6.5v-2.47h15.11v33.53h-102.33v39.56h-83.61v-30.94ZM216.56,440.22h-3.56v56.33h-28.78v-40.11h-3.61v-20.78h5.78v-8.22h26.22v4.44h3.94v8.33ZM336.42,702.42h-48.17v-35.08h48.17v35.08ZM347.17,643.17h-65.75v-22.92l-23.83-34.5v-27h-7.5v-5.08h-7.08v-18.67h3.58v-93.67h-5.29v-10.12h7.46v-9.88h5.83v-21.42h-5.81v-8.64h-52.28v-4.5h-3.17v-16.44l5.25.06v-7.5h37.53s-5.33-3-1.44-9.56c3.89-6.56,11.11-6.44,11.11-6.44h11.67v-23.67h30.11v10h8v6h7.78v20.22h-5.22v15.22l-4.03,4.44v15.22l3.69,3.89v16.33h6.22v8.33h-18.78l-21.11,18.78v49.67l16.89,16.83h64.83l16.69-16.44v-11.14h8.08v-3.42h16.22v3.83h45.5l21.33,19.67v39l-17.67,19.67h-51.5v30.17h-37.33v53.67ZM514.08,860.75h-48.33v-23h48.33v23ZM792,641.17h-16.58v37.25l-44.61,44.61h-43.14v66.64h-141.56v-25.72l-26.33-4.33v4.39h-57.11v-16.22l-49.56-12.22-8.22-7.11h-37.56v-125.78h69.33v8.67h111.56v-4.22h51.11v9.33h90.69v-9.69h80.47v4.58h21.5v29.83ZM822.25,555.67h-81.25v-23.89h-29v47.56h-54.78v9.33h-16.89v-21.56h11.89v-15.78h42.56v-39.33l-5.64-1.92v-10.36h2.78v-10.67h-4.17v-16.5h11.25v-13.33h15.17v-15.5h-12v-41.47h14.25v7.33l2.75-.08v52.28h-2.33v25.33h-10.06v7.11h5.56v8.78h28.61v-14.83h81.31v67.5ZM740.67,355v-73.17h84.33v73.17h-84.33Z"/><g class="cls-14"><rect class="cls-9" x="471.17" y="764" width="37.5" height="5.5"/><rect class="cls-9" x="471.17" y="771.39" width="37.5" height="5.5"/><rect class="cls-9" x="471.17" y="779.94" width="37.5" height="5.5"/><rect class="cls-9" x="471.17" y="788.5" width="37.5" height="5.5"/><rect class="cls-9" x="471.17" y="796.33" width="37.5" height="5.5"/><rect class="cls-9" x="471.17" y="805.17" width="37.5" height="5.5"/><rect class="cls-9" x="471.17" y="813.39" width="37.5" height="5.22"/><rect class="cls-9" x="471.17" y="821.33" width="37.5" height="5.22"/><rect class="cls-9" x="471.17" y="829.78" width="37.5" height="4.78"/><rect class="cls-9" x="471.17" y="862.5" width="37.5" height="4.44"/><rect class="cls-9" x="471.17" y="869.89" width="37.5" height="4.89"/><rect class="cls-9" x="471.17" y="878.06" width="37.5" height="4.89"/><rect class="cls-9" x="471.17" y="886.5" width="37.5" height="4.89"/><rect class="cls-9" x="471.17" y="894.94" width="37.5" height="4.89"/><rect class="cls-9" x="471.17" y="903.06" width="37.5" height="4.89"/><rect class="cls-9" x="471.17" y="911.44" width="37.5" height="4.89"/><rect class="cls-9" x="471.17" y="918.83" width="37.5" height="4.89"/><polygon class="cls-7" points="389.11 772.44 372.67 759.56 291.56 734.89 276.44 722 205.78 601.56 183.56 591.11 158.89 589.56 160.22 626.22 179.56 626.22 193.33 636.44 203.33 646.89 261.11 762.89 368.22 786 389.11 772.44"/><polygon class="cls-10" points="183.86 218.76 195.5 224.89 188.78 237.28 177.82 230.83 183.86 218.76"/><polygon class="cls-10" points="187.39 211.72 192.44 214.56 188.75 221.34 183.86 218.76 187.39 211.72"/><polygon class="cls-10" points="227.22 242.28 243.5 252.11 233.94 268.67 217.72 257.94 227.22 242.28"/><rect class="cls-10" x="330.92" y="257" width="7" height="13"/><rect class="cls-10" x="337.92" y="256.25" width="13.75" height="13.75"/><rect class="cls-10" x="334.42" y="270" width="14.83" height="15.42"/><rect class="cls-7" x="465.75" y="837.75" width="48.33" height="23"/><rect class="cls-10" x="509.92" y="579.25" width="10.17" height="16.42"/><rect class="cls-10" x="811.44" y="555.6" width="13.44" height="13.06"/><polygon class="cls-10" points="807.56 701.89 821.89 696.17 828.22 710.67 813 716.33 807.56 701.89"/><rect class="cls-10" x="669" y="372" width="11.22" height="11.22"/><rect class="cls-10" x="672.11" y="262.61" width="15.56" height="14.39"/><rect class="cls-10" x="709.53" y="443.72" width="4.64" height="11.36"/><rect class="cls-10" x="709.53" y="455.48" width="4.64" height="3.77"/><rect class="cls-10" x="442" y="258.78" width="5.72" height="25.72"/><rect class="cls-10" x="352" y="135.5" width="25.42" height="5.89"/><rect class="cls-10" x="348.17" y="171" width="29.25" height="5.89"/><rect class="cls-10" x="408" y="171" width="26.17" height="5.89"/><rect class="cls-10" x="409" y="135.5" width="25.42" height="5.89"/><polyline class="cls-10" points="298.11 374.67 294.08 379.11 294.08 394.33 298.11 398.72"/><polyline class="cls-10" points="335.61 400.76 340.04 396.33 340.04 378.62 336.08 374.67"/><rect class="cls-10" x="128.22" y="399.56" width="6.11" height="22.22"/><rect class="cls-10" x="248.83" y="399.56" width="5.67" height="22.22" transform="translate(503.33 821.33) rotate(180)"/><rect class="cls-6" x="657.25" y="579.42" width="49.54" height="7.38"/><path class="cls-5" d="M706.42,579.79v6.62h-48.79v-6.62h48.79M707.17,579.04h-50.29v8.12h50.29v-8.12h0Z"/><rect class="cls-10" x="687.67" y="748" width="15.89" height="8.67"/><polygon class="cls-10" points="743.24 756.67 728.56 756.67 728.56 748 746.43 748 743.24 756.67"/><polygon class="cls-10" points="823 388 816.23 388 816.23 399.98 823.21 399.98 823 388"/><polygon class="cls-10" points="824.5 400.17 826.67 432.44 822.25 433.22 828.22 454.67 841.56 451.83 841.33 441.33 836.33 426.58 831.75 426.58 827.92 400.25 824.5 400.17"/><rect class="cls-10" x="176.08" y="426.11" width="10.47" height="9.83"/><path class="cls-10" d="M207.69,427.25c-.3-4.99-4.43-8.94-9.5-8.94s-9.2,3.96-9.5,8.94h19Z"/><rect class="cls-7" x="203.33" y="559.33" width="5.11" height="27.11"/><rect class="cls-7" x="252.56" y="559.33" width="5.11" height="27.11"/><line class="cls-7" x1="208.56" y1="576.56" x2="252.78" y2="576.56"/><line class="cls-7" x1="208.89" y1="580.28" x2="252.5" y2="580.28"/><line class="cls-7" x1="208.39" y1="584.83" x2="252.78" y2="584.83"/><line class="cls-7" x1="385.5" y1="452.11" x2="385.5" y2="477.22"/><line class="cls-7" x1="380" y1="477.67" x2="380" y2="452.14"/><line class="cls-7" x1="403.53" y1="454.14" x2="403.53" y2="481"/><polyline class="cls-7" points="536.67 493.5 531.33 493.5 531.33 574.5 537.06 574.5 537.06 611.42"/><line class="cls-7" x1="598" y1="516.83" x2="598" y2="550.56"/><line class="cls-7" x1="668.44" y1="516" x2="598" y2="516"/><line class="cls-7" x1="667.56" y1="551.56" x2="667.56" y2="515.89"/><line class="cls-7" x1="608.33" y1="555.33" x2="652.44" y2="555.33"/><line class="cls-7" x1="709.92" y1="385.42" x2="709.92" y2="402.17"/><line class="cls-7" x1="824.89" y1="555.6" x2="869" y2="555.6"/><line class="cls-7" x1="711.83" y1="550" x2="741.33" y2="550"/><line class="cls-7" x1="710.11" y1="606.89" x2="710.11" y2="579.44"/><line class="cls-7" x1="745.56" y1="606.89" x2="745.56" y2="555.6"/><line class="cls-7" x1="767" y1="687.11" x2="798" y2="736.11"/><polyline class="cls-7" points="740.22 713.11 752.44 724.67 756.11 735.89"/><polyline class="cls-7" points="203.56 362.67 203.56 332.22 257.89 332.22"/><polyline class="cls-7" points="353.33 301.33 237.89 301.33 237.89 332.22"/><polyline class="cls-7" points="243.44 332.61 243.44 306.83 353.33 306.83"/><polyline class="cls-7" points="248.33 332.42 248.33 311.92 353.33 311.92"/><line class="cls-7" x1="303.44" y1="342.44" x2="331.67" y2="342.44"/><line class="cls-7" x1="303.22" y1="347.44" x2="331.67" y2="347.44"/><line class="cls-7" x1="303.22" y1="352.33" x2="331.67" y2="352.33"/><line class="cls-7" x1="465.33" y1="339" x2="465.33" y2="368.17"/><line class="cls-7" x1="508.17" y1="339.17" x2="508.17" y2="367.67"/><line class="cls-7" x1="515.17" y1="256.42" x2="515.17" y2="288.83"/><line class="cls-7" x1="510" y1="289" x2="510" y2="256.25"/><line class="cls-7" x1="465.33" y1="293.58" x2="503.5" y2="293.58"/><line class="cls-7" x1="465.33" y1="297.92" x2="503.5" y2="297.92"/><line class="cls-7" x1="464.92" y1="302.75" x2="503.92" y2="302.75"/><line class="cls-7" x1="465.67" y1="307.42" x2="503.92" y2="307.42"/><line class="cls-7" x1="493.92" y1="313.38" x2="473.56" y2="312.83"/><path class="cls-7" d="M459.25,454.12s3.75.38,3.75,0v-49.04h46.08v49.06h3.04"/><line class="cls-7" x1="463" y1="409.44" x2="509.17" y2="409.44"/><line class="cls-7" x1="463" y1="414.28" x2="509.17" y2="414.28"/><line class="cls-7" x1="463" y1="418.5" x2="509.17" y2="418.5"/><line class="cls-7" x1="463" y1="422.94" x2="509.17" y2="422.94"/><line class="cls-7" x1="463" y1="433.11" x2="509.17" y2="433.11"/><line class="cls-7" x1="463" y1="437.83" x2="509.17" y2="437.83"/><line class="cls-7" x1="463" y1="442.56" x2="509.17" y2="442.56"/><line class="cls-7" x1="463" y1="447.28" x2="509.17" y2="447.28"/><line class="cls-7" x1="463" y1="452" x2="509.17" y2="452"/><line class="cls-7" x1="453.67" y1="505.33" x2="531.33" y2="505.33"/><line class="cls-7" x1="347" y1="631.75" x2="367.58" y2="631.75"/><line class="cls-7" x1="719.17" y1="461.78" x2="855" y2="461.78"/><polyline class="cls-7" points="455.5 184 463.33 184 463.33 206.25 570.08 206.25 570.08 184 578.58 184"/><line class="cls-7" x1="463.33" y1="198.42" x2="570.08" y2="198.42"/><line class="cls-7" x1="463.33" y1="193.08" x2="570.08" y2="193.08"/><line class="cls-7" x1="463.33" y1="188.08" x2="570.08" y2="188.08"/><line class="cls-7" x1="442.5" y1="147.39" x2="442.5" y2="168"/><line class="cls-7" x1="447.67" y1="168.17" x2="447.67" y2="147.39"/><line class="cls-7" x1="341.33" y1="147.11" x2="341.33" y2="168.89"/><line class="cls-7" x1="336.06" y1="168.72" x2="336.06" y2="147"/><rect class="cls-10" x="352.33" y="136" width="24.92" height="5.33"/><rect class="cls-10" x="409" y="136" width="24.92" height="5.33"/><line class="cls-7" x1="203.56" y1="178.83" x2="156.98" y2="272.33"/><line class="cls-7" x1="270.96" y1="195.33" x2="270.96" y2="210.17"/><line class="cls-7" x1="374" y1="201.56" x2="374" y2="301.33"/><rect class="cls-7" x="290.67" y="444.33" width="49.42" height="48.83"/><rect class="cls-10" x="520.19" y="574.36" width="16.97" height="16.42"/></g><path class="cls-7" d="M854.67,386.33v-53.83h18.11v-89.5h-21.22v-8.56h-63.33v9h-203v26.44h-16.33v-21.94h-11.78v-19.06h21.33V77.33h-122.61v70h-15.17v-5.94h-92.1v5.53h-15.73c-.42,0,0-14.58,0-14.58h-37.33v15.5h-4.33v21.83l3.58,2.33v20.67h-8.5l.04,2.67h-15.54l-2.58-2.33h-51v-14.11h-60.06l-.22,152.82v31.71h2.59v6.25h3.85v17.44h-3.67v4.22h-25.67v7.78h-5.78v22.67h6.22v13.44h17.44v22.33h-4.33v70.69h35.94v-12h29.83v18.42h3.25v19.75h-8.25v4.92h-4.83v22.5h-37v4.33h-4.83l-.67,48.67,39,4.67,42.22,43.72,25,44.11,15.78,15.44,88.33,27.89,30.83.5,38.72,27.5v33.89l1.22,2.33v53.56l1.78,2.11v20.78l21.33,14.33h49.72v10.56l31.72-5.67v-121.22h144c1.33,0,0,53.33,0,53.33l49.44-5.33v-92.56l11.22-29.11h88.44v-94h-20.78l-8.78-21.11,5.44-2.33,5.44,11.67,5-19.33h42.81v-99.56h-14v-54.08h-13.58v-15.58l-5-14.75h-4.58l-3.83-26.33h-4.92v-13.92h31.67ZM738.38,410.83h2.33l.04-4.21h22.92v7.71h-2.58v16.21h-17.92v-3h-4.79v-16.71ZM568.5,308.5v-7.67h17.67v14.5h28.25v-38.33h94.81v35.72h-5.5v4h5.44v36.11h-6.17v3.67h13.83v29h-16v-13.5h-45.83v101.08h12.83v15.5h-2.33v10.08h14.5v17.25h-12.08v-4.19h-69.92v5.11h-5.11v33.61h15.56v14.67h10.33v24.44h-17v-21.33h-65v-76.44h31.56v-36.56h-56.33v-58.89h-10.28v-28.39h12.69v-28.78h-6.25v-8.38h-8.88l-5.38-17.42h4.75l2.83,8.67,2.5-11.99v-21.06h15.83v19.5h48.67ZM471.83,228.28v8h25.72v-7.61h33.33v19.78h-10.11v7.89h-15.72v-7.56h-57.39v10h-5.67v25.72h5.72v4.56h17.31v14.83l3.1,12.91.82-3.96h4.61v17.61h-8.22v8.56h-6.5v29.12h11.08v28.04h-10.67v57.96h-58.17v-11.71h-14.12v9.92h-17.62v-3.46h-8.88v-9.5l-17.18-15.88h-11.86v-8.88h4.2v-13.86l4.43-4.43v-17.71l-3.96-3.96v-15.08h-4.67v-20.42h8.08v-5.67h7.58v-10.28h6.25v-21.89h25.83v-29.08h5.42v-22.42h-5.42v-20.42h32.75v10.42h28.75v-11.56h31.17ZM294.08,484.92v-30.83h3.58v-5.92h35.58v5.92h3.42v30.75h-3.08v4.75h-35.92v-4.67h-3.58ZM269.83,210.17h17.33v4.67h6.67v8.08h39.11v-8.19h8.72v-22.56h-8.71l.04-23.42h15.17v8.58l29.33-.42v-6.42h30.67v6.83h26v-6.83h6.5v-2.47h15.11v33.53h-102.33v39.56h-83.61v-30.94ZM216.56,440.22h-3.56v56.33h-28.78v-40.11h-3.61v-20.78h5.78v-8.22h26.22v4.44h3.94v8.33ZM336.42,702.42h-48.17v-35.08h48.17v35.08ZM347.17,643.17h-65.75v-22.92l-23.83-34.5v-27h-7.5v-5.08h-7.08v-18.67h3.58v-93.67h-5.29v-10.12h7.46v-9.88h5.83v-21.42h-5.81v-8.64h-52.28v-4.5h-3.17v-16.44l5.25.06v-7.5h37.53s-5.33-3-1.44-9.56c3.89-6.56,11.11-6.44,11.11-6.44h11.67v-23.67h30.11v10h8v6h7.78v20.22h-5.22v15.22l-4.03,4.44v15.22l3.69,3.89v16.33h6.22v8.33h-18.78l-21.11,18.78v49.67l16.89,16.83h64.83l16.69-16.44v-11.14h8.08v-3.42h16.22v3.83h45.5l21.33,19.67v39l-17.67,19.67h-51.5v30.17h-37.33v53.67ZM514.08,860.75h-48.33v-23h48.33v23ZM792,641.17h-16.58v37.25l-44.61,44.61h-43.14v66.64h-141.56v-25.72l-26.33-4.33v4.39h-57.11v-16.22l-49.56-12.22-8.22-7.11h-37.56v-125.78h69.33v8.67h111.56v-4.22h51.11v9.33h90.69v-9.69h80.47v4.58h21.5v29.83ZM822.25,555.67h-81.25v-23.89h-29v47.56h-54.78v9.33h-16.89v-21.56h11.89v-15.78h42.56v-39.33l-5.64-1.92v-10.36h2.78v-10.67h-4.17v-16.5h11.25v-13.33h15.17v-15.5h-12v-41.47h14.25v7.33l2.75-.08v52.28h-2.33v25.33h-10.06v7.11h5.56v8.78h28.61v-14.83h81.31v67.5ZM740.67,355v-73.17h84.33v73.17h-84.33Z"/></g><g id="SPAWNS"><polygon class="cls-1" points="514.54 838.31 546 838.31 545.9 929.94 515.72 935.36 515.64 924.91 465.45 924.91 446.68 912.26 446.99 838.31 465.33 838.31 465.33 861 514.11 860.78 514.54 838.31"/><rect class="cls-4" x="463" y="80.67" width="111.33" height="146"/><polygon class="cls-2" points="347.89 285.83 347.89 293 271.33 293 271.33 241.89 347.89 241.89 347.89 255.83 337.54 255.92 337.56 256.65 330.56 256.65 330.57 270.39 334.07 270.36 334.33 285.61 347.89 285.33 347.89 285.83"/><path class="cls-2" d="M783.67,392.44h-62.67v55.78h62.67c15.4,0,27.89-12.49,27.89-27.89h0c0-15.4-12.49-27.89-27.89-27.89ZM764.03,414.7h-2.56s.05,16.26.05,16.26l-18.72-.04-.02-2.98-4.8-.03v-17.48h2.33s.07-4.18.07-4.18h23.65s0,8.45,0,8.45Z"/><path class="cls-12" d="M721,392.44h62.67c15.39,0,27.89,12.5,27.89,27.89h0c0,15.39-12.5,27.89-27.89,27.89h-62.67v-55.78h0Z"/><polygon class="cls-8" points="514.54 838.31 546 838.31 545.9 929.94 515.72 935.36 515.64 924.91 465.45 924.91 446.68 912.26 446.99 838.31 465.33 838.31 465.33 860.78 514.22 860.78 514.54 838.31"/><polyline class="cls-12" points="347.89 255.83 347.89 241.89 271.33 241.89 271.33 293 347.89 293 347.89 285.83"/><rect class="cls-11" x="463" y="80.67" width="111.33" height="146"/></g></g></g></svg>