<?xml version="1.0" encoding="UTF-8"?><svg id="Layer_2" xmlns="http://www.w3.org/2000/svg" viewBox="0 0 1024 1024"><defs><style>.cls-1{fill:#ffcf5c;}.cls-1,.cls-2,.cls-3,.cls-4,.cls-5{stroke-width:0px;}.cls-1,.cls-6,.cls-4{opacity:.15;}.cls-2,.cls-7,.cls-8{fill:#37485d;}.cls-9,.cls-10,.cls-11,.cls-6,.cls-12,.cls-13,.cls-7,.cls-8,.cls-14,.cls-15,.cls-16,.cls-17,.cls-18{stroke-miterlimit:10;}.cls-9,.cls-10,.cls-11,.cls-6,.cls-12,.cls-13,.cls-7,.cls-8,.cls-14,.cls-16,.cls-17,.cls-18{stroke-width:.75px;}.cls-9,.cls-10,.cls-14,.cls-15,.cls-16,.cls-17,.cls-18{fill:none;}.cls-9,.cls-11,.cls-12,.cls-13,.cls-7,.cls-8,.cls-14,.cls-15,.cls-18{stroke:#677693;}.cls-10{stroke:#ffcf5c;}.cls-11,.cls-3{fill:#080A0D;}.cls-6{fill:#36d0ff;}.cls-6,.cls-16{stroke:#36d0ff;}.cls-12{fill:#1e2733;}.cls-13{fill:#9cadc4;}.cls-7,.cls-18{stroke-dasharray:0 2;}.cls-14{stroke-dasharray:0 0 2.01 2.01;}.cls-15{stroke-width:2px;}.cls-17{stroke:#dc0023;}.cls-4{fill:#dc0023;}.cls-5{fill:#677693;}</style></defs><g id="INFERNO"><rect class="cls-3" width="1024" height="1024"/><path class="cls-12" d="M561.74,295.03v58.72h-57.33l-72.67,142.33h-22v25.33h27.33v74.33l-6.33,5h-123v24.33h-59v44.5h-4.5v-2h-52v-3.17h-31.5l-3.25,7.5h-3.75v19.67h4.33v2.67h2.33v7.08h-6.33v2.33h-6.08s-.12,24.71,0,24.83,6.58,0,6.58,0v10.33h-13.83v-16.5s-11.04-.21-10.83,0,0-12.92,0-12.92h9.92s.25-58.25,0-58.25h-9.92v-13.5h10.17s.56-6.47,0-6.47-33-9.89-33-9.89l-14.22,7.78-9.78,11.44v12.89h-11.33v52.83h3.33v16.17h-4v56.67h3.83v34.5h19.83v-26h7v9.67h-2.67v36.67h32.17v-3.83h30v18.83h-3.5v26.5h5v2.5h30.83v12.5h20.33v2.5h24.5v-5.83h9.5l18-9.33,7.83,6.83,7.33-9.33,13.33-3v-28.22h36v3.89h6.72v2.89h-4.67v69.83h25.72v-23.78h27.33v-4.67h93.56v45.78h22.67v-4h7.11v5.33h77.22v9.19h37.67v-19.83h3.5v4.25h60.67v-70.25h3.5v5h101.67v-3.25h2.58v3.25h23.42v-25.33l-1.75-1.08v-6.5h3.5v6.92h22.33v58.67l85.25-1.47,7.11-7h4.11l25.11-36v-146.33h-6.11v-36.67h-40v-66.22h18.89v-18.67h-18.89v-20.93h4.4v6.33h2.38v6.21h39.33v-5.08h7.08v-53.75h-15.92v-49.67h-47.75v-4.17h18.58v-28.25l16.33-43.92,4.33-37.67.33-45-1-27.67-28.33-5.33v-23l-21.33-10.33-.83-27-7.5-26.5-5.25-4.5-19.42,18-24.25-25.17h-57.25v3.75h-9.5v2.58h-15v-6.33h-25.92v16.42h-9.58v-22.42h-22.25v3.25h-15.83v-4.25h-3.75v-2.92h4.25v-1.75h11.83v-50.72h-11.42v-2.56h-20.78v2.11h-24.89v-7.22h5.33v-35.94h-44.5v10h-6v-31.83h-90.5v24.17h2.67v65.5h-55.33v2.04h-8.33v-7.67l2.21-1.12v-11.62h-21.08v172.21h19.04v-4.04h8.21v2.99l110.29-.17Z"/><polygon class="cls-1" points="71.74 738.36 71.74 653.11 82.57 653.11 82.57 639.44 94.16 627.86 107.07 621.77 129.9 628.77 129.9 738.36 71.74 738.36"/><polygon class="cls-10" points="71.74 738.36 71.74 653.11 82.57 653.11 82.57 639.44 94.16 627.86 107.07 621.77 129.9 628.77 129.9 738.36 71.74 738.36"/><polygon class="cls-17" points="466.28 180.09 452.63 192.34 452.63 255.92 466.28 268.42 530.07 268.42 541.93 256.56 541.93 192.34 529.18 180.09 466.28 180.09"/><polygon class="cls-4" points="466.71 180.09 453.06 192.34 453.06 255.92 466.71 268.42 530.5 268.42 542.36 256.56 542.36 192.34 529.61 180.09 466.71 180.09"/><path class="cls-16" d="M889.54,289.53h54.86l-2.58,108.57-18.14,31.62s-33.95,1.8-33.95,0-.19-140.19-.19-140.19Z"/><path class="cls-6" d="M889.54,289.53h54.86l-2.58,108.57-18.14,31.62s-33.95,1.8-33.95,0-.19-140.19-.19-140.19Z"/><polygon class="cls-4" points="795.49 668.38 795.49 644.75 822.07 644.75 823.07 640.42 865.74 640.42 865.74 751.85 795.49 751.85 795.49 668.38"/><polygon class="cls-17" points="795.49 668.38 795.49 644.75 822.07 644.75 823.07 640.42 865.74 640.42 865.74 751.85 795.49 751.85 795.49 668.38"/><path class="cls-11" d="M607.07,253.59h93.67s-1-18.5,0-18.5h53.5v7.67h-5.33v224h36.83v3.83h-3.5v55.5h3.5v8h-40.17s-11.5-3-26.33,0c0,0-8.83.83-38.17.83v15h21.83v69.67h-17.5v18.83h6.83v25.5h-69.5v-22.33h-87.5v9.33h-30v-13h-42.17v-97.67h24.67v-36.72l-13.78-5.33,12.89-29.78,11.56-15.11,4.89,3.56,13.33-27.11,4.44-9.17,10.83-10.92h75.08v4.08h32.86v-16.11l-19.11-5v-56.56h-14.33l.67-82.5Z"/><polygon class="cls-11" points="778.85 328.2 773.52 328.2 773.52 332.42 769.74 332.42 769.74 394.31 873.18 394.31 873.18 339.09 778.74 339.09 778.85 328.2"/><rect class="cls-11" x="772.85" y="283.64" width="6.56" height="5.89"/><polygon class="cls-11" points="769.91 235.09 769.91 240.59 772.85 240.59 772.85 246.92 779.41 246.92 779.41 235.09 769.91 235.09"/><rect class="cls-11" x="773.57" y="438.09" width="6.79" height="7.54"/><polygon class="cls-11" points="809.57 467.42 809.57 527.67 806.82 527.67 806.82 535 811.66 535 811.66 532.67 918.99 532.67 918.99 553.09 922.74 553.09 922.74 549.25 928.32 549.25 928.32 527.25 932.66 527.25 932.66 521.84 889.82 521.84 889.82 471.34 896.99 471.34 896.99 467.42 809.57 467.42"/><polygon class="cls-11" points="687.07 712.42 687.07 717.09 690.46 717.09 690.46 703.36 622.41 703.36 622.41 783.59 625.07 783.59 625.07 775.92 660.24 775.92 660.24 781.86 665.07 781.86 665.07 712.42 687.07 712.42"/><polygon class="cls-11" points="660.63 793.86 664.63 793.86 664.63 842.97 653.07 842.97 653.07 867.42 664.63 867.42 664.63 910.64 635.29 910.64 624.52 916.75 624.52 907.75 622.41 907.75 622.41 843.59 624.96 843.59 624.96 849.31 649.52 849.31 649.52 828.42 660.53 828.42 660.63 793.86"/><polygon class="cls-11" points="596.49 851.59 586.74 851.59 586.74 847.75 582.74 847.75 569.91 847.75 501.74 847.75 501.74 850.86 496.41 850.86 496.41 853.64 501.74 853.64 501.74 905.03 501.74 906.09 501.74 913.75 508.85 913.75 508.85 906.09 582.74 906.09 582.74 881.5 596.49 881.5 596.49 851.59"/><path class="cls-11" d="M481.1,832.53h-71.47s-10.31,1.14-12.72,11.89h-29.58v3.58h-8.92v2.86h28.56v18.89h91.67v-16.11h5.56v-2.78h-3.08v-18.33Z"/><path class="cls-11" d="M291.74,705.09h10.44v69.56h17.81v-2.06h5.42s-.08,6.33,0,6.33h12.58v4.58s-46.35,0-46.25,0v-78.42Z"/><polygon class="cls-11" points="410.57 749.34 410.57 740.5 400.07 740.5 396.99 740.5 396.99 755.25 396.99 778.92 368.63 778.92 368.63 739.5 366.07 739.5 366.07 778.92 358.91 778.92 358.91 783.5 396.99 783.5 396.99 783.59 400.07 783.59 400.07 755.25 401.99 755.25 410.57 755.25 413.91 755.25 413.91 749.34 410.57 749.34"/><rect class="cls-11" x="238.57" y="778.92" width="9" height="17.5"/><rect class="cls-11" x="238.57" y="831.09" width="10.17" height="20.06"/><polygon class="cls-11" points="248.07 695.75 247.07 695.75 239.41 695.75 190.57 695.75 188.41 695.75 188.41 701.92 190.57 701.92 190.57 730.59 190.57 736.75 190.57 769.14 152.96 769.14 152.96 763.25 140.13 763.25 140.13 779.97 130.74 779.97 130.74 802.86 161.74 802.86 161.74 796.14 182.74 796.14 182.74 802.59 190.57 802.59 192.24 802.59 192.24 851.14 203.74 851.14 203.74 846.42 213.24 846.42 213.24 802.59 213.24 736.75 239.41 736.75 239.41 745.42 248.74 745.42 248.74 695.75 248.07 695.75"/><line class="cls-9" x1="302.18" y1="716.17" x2="320.32" y2="716.17"/><line class="cls-9" x1="302.18" y1="719.5" x2="320.32" y2="719.5"/><line class="cls-9" x1="302.18" y1="722.84" x2="320.32" y2="722.84"/><line class="cls-9" x1="302.18" y1="726.17" x2="320.32" y2="726.17"/><line class="cls-9" x1="302.18" y1="729.5" x2="320.32" y2="729.5"/><line class="cls-9" x1="302.18" y1="732.84" x2="320.32" y2="732.84"/><line class="cls-9" x1="302.18" y1="736.17" x2="320.32" y2="736.17"/><line class="cls-9" x1="302.18" y1="739.5" x2="320.32" y2="739.5"/><line class="cls-9" x1="302.18" y1="742.84" x2="320.32" y2="742.84"/><line class="cls-9" x1="302.18" y1="746.17" x2="320.32" y2="746.17"/><line class="cls-9" x1="302.18" y1="749.5" x2="320.32" y2="749.5"/><line class="cls-9" x1="302.18" y1="752.84" x2="320.32" y2="752.84"/><line class="cls-9" x1="302.18" y1="756.17" x2="320.32" y2="756.17"/><line class="cls-9" x1="302.18" y1="759.5" x2="320.32" y2="759.5"/><line class="cls-9" x1="302.18" y1="762.84" x2="320.32" y2="762.84"/><polyline class="cls-9" points="334.07 847.92 330.41 847.92 330.41 783.5"/><polyline class="cls-9" points="367.07 783.5 367.07 847.92 363.41 847.92"/><polygon class="cls-7" points="463.07 637.92 463.07 650.75 478.07 650.75 478.07 703.36 490.07 703.36 490.07 637.92 463.07 637.92"/><rect class="cls-18" x="479.07" y="752.75" width="11" height="30.83"/><polyline class="cls-9" points="281.63 690.86 281.63 733.53 248.74 733.53"/><line class="cls-9" x1="248.74" y1="723.31" x2="281.63" y2="723.31"/><line class="cls-9" x1="281.63" y1="712.2" x2="248.74" y2="712.2"/><polyline class="cls-15" points="323.86 685.59 296.36 685.59 296.36 705.09"/><line class="cls-9" x1="281.63" y1="704.88" x2="296.36" y2="704.88"/><line class="cls-9" x1="281.63" y1="701.94" x2="296.36" y2="701.94"/><line class="cls-9" x1="281.63" y1="699" x2="296.36" y2="699"/><line class="cls-9" x1="281.63" y1="696.06" x2="296.36" y2="696.06"/><line class="cls-9" x1="281.63" y1="693.13" x2="296.36" y2="693.13"/><line class="cls-9" x1="296.36" y1="668.42" x2="347.9" y2="668.42"/><line class="cls-9" x1="322.13" y1="685.59" x2="322.13" y2="668.42"/><line class="cls-9" x1="317.13" y1="685.59" x2="317.13" y2="668.42"/><line class="cls-9" x1="312.12" y1="685.59" x2="312.12" y2="668.42"/><line class="cls-9" x1="307.12" y1="685.59" x2="307.12" y2="668.42"/><line class="cls-9" x1="302.12" y1="685.59" x2="302.12" y2="668.42"/><polygon class="cls-5" points="307.74 608.5 322.74 608.5 322.74 616.84 332.82 616.84 332.82 600.75 307.74 600.75 307.74 608.5"/><line class="cls-9" x1="307.74" y1="610.92" x2="323.07" y2="610.92"/><line class="cls-9" x1="307.74" y1="613.59" x2="323.07" y2="613.59"/><line class="cls-9" x1="307.74" y1="616.25" x2="323.07" y2="616.25"/><line class="cls-9" x1="307.74" y1="618.92" x2="323.07" y2="618.92"/><line class="cls-9" x1="307.74" y1="621.59" x2="323.07" y2="621.59"/><line class="cls-9" x1="322.74" y1="608.5" x2="322.74" y2="624.09"/><line class="cls-9" x1="352.35" y1="628.53" x2="352.35" y2="613.75"/><line class="cls-9" x1="377.07" y1="628.53" x2="377.07" y2="613.75"/><line class="cls-9" x1="382.52" y1="629.92" x2="382.52" y2="615.14"/><line class="cls-9" x1="428.74" y1="629.92" x2="428.74" y2="615.14"/><line class="cls-9" x1="387.96" y1="631.31" x2="387.96" y2="616.53"/><line class="cls-9" x1="423.91" y1="631.31" x2="423.91" y2="616.53"/><line class="cls-9" x1="393.41" y1="632.7" x2="393.41" y2="617.92"/><line class="cls-9" x1="418.52" y1="632.7" x2="418.52" y2="617.92"/><line class="cls-9" x1="398.07" y1="633.36" x2="398.07" y2="618.59"/><line class="cls-9" x1="412.96" y1="633.36" x2="412.96" y2="618.59"/><line class="cls-9" x1="402.74" y1="634.03" x2="402.74" y2="619.25"/><line class="cls-9" x1="408.18" y1="634.03" x2="408.18" y2="619.25"/><line class="cls-9" x1="357.18" y1="627.25" x2="357.18" y2="612.47"/><line class="cls-9" x1="372.07" y1="627.25" x2="372.07" y2="612.47"/><line class="cls-9" x1="367.24" y1="627.25" x2="367.24" y2="612.47"/><line class="cls-9" x1="362.02" y1="625.97" x2="362.02" y2="611.2"/><rect class="cls-13" x="470.63" y="684.42" width="4.78" height="18.94"/><path class="cls-13" d="M541.02,693.31h2.83c1.53,0,2.78,1.24,2.78,2.78v1.33h-8.39v-1.33c0-1.53,1.24-2.78,2.78-2.78Z"/><path class="cls-13" d="M622.41,706.31h0v9.11h0c-1.44,0-2.61-1.17-2.61-2.61v-3.89c0-1.44,1.17-2.61,2.61-2.61Z"/><path class="cls-13" d="M622.41,647.72h0v9.11h0c-1.44,0-2.61-1.17-2.61-2.61v-3.89c0-1.44,1.17-2.61,2.61-2.61Z"/><path class="cls-13" d="M339.36,661.05h7.98c.81,0,1.47.66,1.47,1.47h0c0,2.28-1.85,4.14-4.14,4.14h-7.98c-.81,0-1.47-.66-1.47-1.47h0c0-2.28,1.85-4.14,4.14-4.14Z" transform="translate(-168.05 118.41) rotate(-15.82)"/><rect class="cls-13" x="71.74" y="674.47" width="5.61" height="7.5"/><rect class="cls-13" x="71.74" y="696.03" width="7.28" height="7.67"/><rect class="cls-13" x="131.41" y="661.7" width="6.67" height="7.61"/><rect class="cls-13" x="122.29" y="639.92" width="7.61" height="8.5"/><rect class="cls-13" x="152.96" y="765.34" width="37.61" height="3.81"/><rect class="cls-13" x="176.99" y="752.75" width="11.25" height="12.58"/><rect class="cls-13" x="213.24" y="736.75" width="6.75" height="11.17"/><rect class="cls-13" x="224.16" y="736.75" width="15.25" height="3.75"/><rect class="cls-13" x="235.41" y="750.09" width="12.17" height="22.17"/><rect class="cls-13" x="183.07" y="802.59" width="5.17" height="7.67"/><rect class="cls-13" x="161.24" y="835.81" width="5.28" height="6.56"/><rect class="cls-13" x="161.24" y="842.36" width="5.28" height="6.78"/><rect class="cls-13" x="157.74" y="868.25" width="5.04" height="7.17"/><rect class="cls-13" x="213.91" y="887.86" width="7.17" height="5.06"/><rect class="cls-13" x="204.02" y="846.42" width="8.44" height="4.72"/><rect class="cls-13" x="447.24" y="817.25" width="4.83" height="15.28"/><rect class="cls-13" x="478.63" y="856.25" width="2.78" height="11.67"/><rect class="cls-13" x="324.74" y="731.53" width="5.67" height="24.22"/><rect class="cls-13" x="368.63" y="740.86" width="3" height="38.06"/><rect class="cls-13" x="384.07" y="740.09" width="12.44" height="6.78"/><rect class="cls-13" x="392.29" y="740.5" width="4.69" height="38.42"/><rect class="cls-13" x="400.07" y="761.54" width="7.44" height="17.38"/><rect class="cls-13" x="331.99" y="714.97" width="2.71" height="14.53"/><polygon class="cls-13" points="331.61 729.5 324.74 729.5 327.2 726.96 327.2 714.97 331.61 714.97 331.61 729.5"/><path class="cls-13" d="M366.02,850.86h13.06c.43,0,.78.35.78.78v1.11c0,1.53-1.24,2.78-2.78,2.78h-9.06c-1.53,0-2.78-1.24-2.78-2.78v-1.11c0-.43.35-.78.78-.78Z"/><rect class="cls-13" x="383.02" y="853.25" width="3.94" height="10.78"/><rect class="cls-13" x="147.99" y="703.67" width="5.08" height="24.86"/><rect class="cls-13" x="153.27" y="701.34" width="6.92" height="15.44"/><rect class="cls-13" x="153.27" y="724.27" width="6.16" height="8.35"/><rect class="cls-13" x="153.74" y="678.5" width="8.67" height="12.42"/><path class="cls-13" d="M736.53,841.92h16.42c0,2.05-1.66,3.71-3.71,3.71h-9c-2.05,0-3.71-1.66-3.71-3.71h0Z"/><rect class="cls-13" x="437.64" y="476.47" width="6.48" height="17.9" transform="translate(267.62 -147.03) rotate(26.93)"/><rect class="cls-13" x="443.61" y="469.26" width="6.48" height="8.83" transform="translate(262.95 -151) rotate(26.93)"/><rect class="cls-13" x="432.57" y="493.16" width="6.48" height="4.5" transform="translate(271.59 -143.65) rotate(26.93)"/><polygon class="cls-13" points="519.98 422.7 517.65 427.65 505.8 415.15 509.55 411.53 519.98 422.7"/><path class="cls-13" d="M514.94,371.64c-.99,0-1.87.42-2.49,1.09,0-.11.03-.22.03-.33,0-2.11-1.71-3.82-3.82-3.82s-3.82,1.71-3.82,3.82c0,.22.03.43.06.64-.37-.34-.82-.6-1.31-.77,1.17-.64,1.97-1.87,1.97-3.29,0-2.08-1.69-3.77-3.77-3.77s-3.77,1.69-3.77,3.77c0,1.65,1.06,3.03,2.53,3.54-1.18.64-1.99,1.88-1.99,3.31,0,2.09,1.69,3.78,3.78,3.78s3.78-1.69,3.78-3.78c0-.21-.03-.42-.06-.62.68.62,1.58,1.01,2.57,1.01,1.15,0,2.17-.52,2.87-1.32,0,.06-.02.11-.02.17,0,1.89,1.53,3.43,3.43,3.43s3.43-1.53,3.43-3.43-1.53-3.43-3.43-3.43Z"/><rect class="cls-13" x="515.71" y="363.44" width="1.92" height="14.05" transform="translate(-52.03 654.67) rotate(-62.2)"/><rect class="cls-13" x="554.41" y="397.31" width="10" height="12.36"/><rect class="cls-13" x="564.41" y="397.31" width="13.44" height="12.36"/><line class="cls-9" x1="135.82" y1="830.09" x2="135.82" y2="802.86"/><line class="cls-9" x1="140.57" y1="830.09" x2="140.57" y2="802.86"/><line class="cls-9" x1="145.32" y1="830.09" x2="145.32" y2="802.86"/><line class="cls-9" x1="150.07" y1="830.09" x2="150.07" y2="802.86"/><line class="cls-9" x1="154.82" y1="830.09" x2="154.82" y2="802.86"/><line class="cls-9" x1="409.41" y1="869.75" x2="409.41" y2="892.2"/><line class="cls-9" x1="413.85" y1="869.75" x2="413.85" y2="892.2"/><line class="cls-9" x1="418.29" y1="869.75" x2="418.29" y2="892.2"/><line class="cls-9" x1="422.74" y1="869.75" x2="422.74" y2="892.2"/><line class="cls-9" x1="427.18" y1="869.75" x2="427.18" y2="892.2"/><line class="cls-9" x1="431.63" y1="869.75" x2="431.63" y2="892.2"/><line class="cls-9" x1="436.07" y1="869.75" x2="436.07" y2="892.2"/><line class="cls-9" x1="440.52" y1="869.75" x2="440.52" y2="892.2"/><line class="cls-9" x1="664.63" y1="907.34" x2="687.91" y2="907.34"/><line class="cls-9" x1="664.63" y1="902.67" x2="687.91" y2="902.67"/><line class="cls-9" x1="664.63" y1="898" x2="687.91" y2="898"/><line class="cls-9" x1="664.63" y1="893.34" x2="687.91" y2="893.34"/><line class="cls-9" x1="664.63" y1="888.67" x2="687.91" y2="888.67"/><line class="cls-9" x1="664.63" y1="884" x2="687.91" y2="884"/><line class="cls-9" x1="664.63" y1="879.34" x2="687.91" y2="879.34"/><line class="cls-9" x1="664.63" y1="874.67" x2="687.91" y2="874.67"/><line class="cls-9" x1="664.63" y1="870" x2="687.91" y2="870"/><line class="cls-9" x1="665.07" y1="776.75" x2="687.35" y2="776.75"/><line class="cls-9" x1="665.07" y1="772.09" x2="687.35" y2="772.09"/><line class="cls-9" x1="665.07" y1="767.42" x2="687.35" y2="767.42"/><line class="cls-9" x1="665.07" y1="762.75" x2="687.35" y2="762.75"/><line class="cls-9" x1="665.07" y1="758.09" x2="687.35" y2="758.09"/><line class="cls-9" x1="665.07" y1="753.42" x2="687.35" y2="753.42"/><line class="cls-9" x1="665.07" y1="749.42" x2="684.88" y2="749.42"/><line class="cls-9" x1="665.07" y1="745.42" x2="684.88" y2="745.42"/><line class="cls-9" x1="665.07" y1="741.42" x2="684.88" y2="741.42"/><line class="cls-9" x1="665.07" y1="737.42" x2="684.88" y2="737.42"/><line class="cls-9" x1="665.07" y1="733.42" x2="684.88" y2="733.42"/><line class="cls-9" x1="622.91" y1="783.59" x2="622.91" y2="843.59"/><rect class="cls-11" x="622.41" y="791.97" width="2.56" height="15.89"/><rect class="cls-11" x="622.41" y="823.09" width="2.56" height="11.56"/><rect class="cls-18" x="610.07" y="801.09" width="12.33" height="26.78"/><rect class="cls-18" x="614.52" y="854.53" width="7.89" height="24.81"/><rect class="cls-18" x="698.24" y="786.72" width="38.29" height="24.11"/><rect class="cls-9" x="776.57" y="807.86" width="24.67" height="2.97"/><rect class="cls-18" x="843.16" y="815.09" width="13.25" height="53"/><rect class="cls-9" x="821.91" y="815.09" width="21.25" height="26.83"/><polygon class="cls-5" points="866.85 815.09 843.16 815.09 843.16 818.75 866.85 818.75 866.85 847.59 870.68 847.59 870.68 818.75 870.68 815.09 866.85 815.09"/><line class="cls-9" x1="517.65" y1="427.65" x2="484.48" y2="392.79"/><line class="cls-9" x1="595.98" y1="117.67" x2="595.98" y2="168.5"/><line class="cls-9" x1="602.74" y1="117.67" x2="602.74" y2="168.5"/><line class="cls-9" x1="589.23" y1="117.6" x2="589.23" y2="168.43"/><rect class="cls-13" x="580.07" y="119.09" width="9.08" height="16.5"/><rect class="cls-13" x="642.07" y="117.75" width="5.79" height="5.79"/><rect class="cls-13" x="647.86" y="117.75" width="5.79" height="5.79"/><rect class="cls-13" x="639.74" y="84.84" width="5.23" height="14.75"/><rect class="cls-13" x="640.07" y="163" width="6.83" height="5"/><rect class="cls-13" x="647.34" y="163" width="5" height="5"/><rect class="cls-13" x="691.82" y="157" width="4.83" height="5.42"/><rect class="cls-13" x="655.18" y="188.92" width="8.9" height="17.58"/><rect class="cls-13" x="705.24" y="174.59" width="9" height="4.33"/><rect class="cls-13" x="690.16" y="177.84" width="4.08" height="1.42"/><rect class="cls-13" x="556.18" y="52.75" width="4" height="25.44"/><rect class="cls-13" x="527.52" y="139.97" width="13.89" height="21.33"/><rect class="cls-13" x="529.18" y="161.31" width="13.11" height="11.33"/><rect class="cls-13" x="541.41" y="184.09" width="11.44" height="13.89"/><rect class="cls-13" x="552.85" y="175.75" width="4.22" height="50.11"/><path class="cls-11" d="M607.24,117.67h-17.83v1.42h-10.75v-1.42s-23.17,4-23.17,24.33,14.42,25.92,22.17,25.92l1.04-1.04h10.13v1.62h19.58v5.75h29.08v-6.25h25.5v2.75h3.75v2.25h-3.83v3.33h-7.67s-.25,42.67,0,42.67-63.42,0-63.42,0c0,0,.08-32,0-31.92s-10.25,0-10.25,0v-2.33s-16.25-1.17-26.08-8.75l-7.75,8.08-7.33-7,8.5-8.75s-8.22-7.81-8.22-24.25,8.28-25.56,8.28-25.56l-8.56-9.33,6.83-6.22,8.33,8.33s9.5-9.06,25.72-9.06v-5.11h8.83v4.89h4.89v-4.89h5v13.94h7.33l-.11,6.58Z"/><rect class="cls-13" x="455.07" y="142.42" width="22.42" height="16.17"/><rect class="cls-13" x="458.07" y="158.59" width="9.5" height="4.83"/><rect class="cls-13" x="467.57" y="158.59" width="9.5" height="4.83"/><rect class="cls-13" x="459.74" y="163.42" width="7.42" height="5.83"/><rect class="cls-13" x="441.07" y="245.31" width="11.56" height="22"/><rect class="cls-13" x="498.52" y="274.53" width="11.22" height="20.58"/><rect class="cls-13" x="552.85" y="261.64" width="3.78" height="33.4"/><rect class="cls-13" x="539.18" y="260.2" width="12.44" height="13.89"/><polygon class="cls-13" points="551.63 274.53 539.96 274.53 539.96 265.86 531.74 265.86 531.74 295.06 539.96 295.06 539.96 295.05 551.63 295.05 551.63 274.53"/><rect class="cls-13" x="624.41" y="248.59" width="29.83" height="5"/><rect class="cls-13" x="808.74" y="792.42" width="27.33" height="22.67"/><rect class="cls-13" x="745.96" y="232.42" width="32.67" height="2.67"/><rect class="cls-13" x="835.07" y="792.42" width="15.83" height="22.67"/><rect class="cls-13" x="822.57" y="801.92" width="12.5" height="8.92"/><rect class="cls-13" x="823.41" y="794.59" width="11.67" height="7.33"/><rect class="cls-13" x="810.91" y="801.92" width="11.5" height="8.92"/><path class="cls-11" d="M798.57,819.75h18.92v1.83s4.42.25,4.42,0v-10.75h-123.67v-40.42h-6.67v-40.56h-6.69v21.58l2.47,1.03v43.56h3.78v16.56h-4.5v31h5.94v-1.67h99.92v1.67h3l3.08-2.08v-21.75Z"/><rect class="cls-13" x="920.18" y="807.86" width="4.56" height="22.56"/><rect class="cls-13" x="920.18" y="804" width="4.56" height="3.92"/><rect class="cls-13" x="920.18" y="789.5" width="4.56" height="3.92"/><path class="cls-13" d="M922.46,785.67v-20.13c3.57-.4,8.94-1.92,13.06-7.1,2.83-3.56,4.22-8.06,4.22-12.62v-31.62h-4.39v32.94c0,2.36-.65,4.68-1.94,6.65-2.11,3.22-5.88,7.51-10.95,7.51h-3.83v28.21h46.11v-3.83h-42.28Z"/><line class="cls-9" x1="920.99" y1="715.92" x2="920.99" y2="741.84"/><line class="cls-9" x1="935.35" y1="738.5" x2="920.99" y2="738.5"/><line class="cls-9" x1="935.35" y1="734.59" x2="920.99" y2="734.59"/><line class="cls-9" x1="935.35" y1="730.67" x2="920.99" y2="730.67"/><line class="cls-9" x1="935.35" y1="726.75" x2="920.99" y2="726.75"/><line class="cls-9" x1="935.35" y1="722.84" x2="920.99" y2="722.84"/><line class="cls-9" x1="935.35" y1="718.92" x2="920.99" y2="718.92"/><line class="cls-9" x1="935.35" y1="715" x2="920.99" y2="715"/><rect class="cls-13" x="918.63" y="672.86" width="3.83" height="43.06"/><rect class="cls-13" x="839.16" y="639.59" width="17.41" height="16.16"/><rect class="cls-13" x="793.74" y="669.17" width="15.67" height="16.33"/><rect class="cls-13" x="793.74" y="736.64" width="18.67" height="16.61"/><rect class="cls-13" x="625.07" y="775.92" width="5.56" height="7.06"/><rect class="cls-13" x="652.35" y="812.09" width="8.23" height="6.36"/><rect class="cls-13" x="650.41" y="818.45" width="10.17" height="9.97"/><rect class="cls-13" x="650.41" y="802.11" width="10.17" height="9.97"/><line class="cls-9" x1="772.85" y1="246.92" x2="791.13" y2="246.92"/><line class="cls-9" x1="775.35" y1="283.64" x2="791.13" y2="283.64"/><line class="cls-9" x1="778.07" y1="246.92" x2="778.07" y2="283.97"/><line class="cls-9" x1="781.59" y1="246.92" x2="781.59" y2="283.97"/><line class="cls-9" x1="785.11" y1="246.92" x2="785.11" y2="283.97"/><line class="cls-9" x1="788.63" y1="246.92" x2="788.63" y2="283.97"/><rect class="cls-13" x="779.41" y="287.47" width="2.44" height="42.67"/><rect class="cls-13" x="781.85" y="294.36" width="4.67" height="11.28"/><rect class="cls-13" x="781.85" y="305.36" width="8.89" height="19.67"/><polygon class="cls-13" points="787.13 325.03 783.24 325.03 781.22 335.81 785.11 335.81 787.13 325.03"/><path class="cls-9" d="M844.45,576.75h8.75c3.36,0,6.08,2.73,6.08,6.08v4.47h-20.92v-4.47c0-3.36,2.73-6.08,6.08-6.08Z"/><rect class="cls-13" x="820.28" y="583.71" width="16" height="1.79"/><rect class="cls-13" x="822.03" y="585.5" width="16.33" height="1.81"/><rect class="cls-13" x="937.07" y="571.97" width="22.56" height="7.61"/><rect class="cls-9" x="780.36" y="394.31" width="20.29" height="9.19"/><rect class="cls-13" x="873.18" y="380.34" width="3.39" height="10.83"/><rect class="cls-13" x="873.18" y="341.25" width="3.39" height="10.83"/><rect class="cls-13" x="836.91" y="329.59" width="19.92" height="9.5"/><polygon class="cls-13" points="475.62 819.38 469.99 825.01 469.99 832.53 473.99 832.53 473.99 826.66 477.28 823.38 518.49 823.38 518.49 819.38 475.62 819.38"/><polyline class="cls-9" points="476.11 795.25 476.11 819.38 469.99 825.01 452.07 825.01"/><polyline class="cls-9" points="470.66 795.25 470.66 817.25 467.28 820.63 452.07 820.63"/><line class="cls-9" x1="452.07" y1="829.09" x2="469.99" y2="829.09"/><rect class="cls-13" x="399.07" y="790.86" width="80" height="4.39"/><polygon class="cls-11" points="439.66 786.04 443.03 786.04 443.03 789.04 445.57 789.04 445.57 793.38 439.66 793.38 439.66 786.04"/><line class="cls-9" x1="399.07" y1="793.38" x2="399.07" y2="783.59"/><line class="cls-9" x1="477.96" y1="758.31" x2="477.96" y2="786.04"/><rect class="cls-13" x="468.91" y="783.59" width="6.56" height="7.28"/><polygon class="cls-11" points="490.07 697.42 490.07 703.36 429.96 703.36 429.96 636.64 354.41 636.64 340.49 704.09 320.32 704.09 320.32 762.84 324.74 762.84 324.74 729.42 327.07 727.2 327.07 714.97 365.85 714.97 365.85 718.42 368.74 718.42 368.74 709.53 436.96 709.53 436.96 740.5 431.74 740.5 425.07 750.09 425.07 754.86 441.41 754.86 447.63 760.42 451.41 760.42 451.41 758.31 478.85 758.31 478.85 752.75 490.07 752.75 490.07 783.59 570.41 783.59 570.41 697.42 490.07 697.42"/><polygon class="cls-11" points="475.7 789.04 473.16 789.04 473.16 793.38 479.07 793.38 479.07 786.04 475.7 786.04 475.7 789.04"/><rect class="cls-13" x="602.99" y="730.42" width="2.92" height="46"/><rect class="cls-13" x="602.99" y="772.09" width="19.42" height="4.33"/><rect class="cls-13" x="607.57" y="772.09" width="2.92" height="27.83"/><polyline class="cls-9" points="836.91 394.31 836.91 418 846.49 430.67 923.63 430.67 920.41 466.42"/><polyline class="cls-9" points="833.99 394.31 833.99 418.75 845.74 434.67 923.2 434.67"/><polyline class="cls-9" points="831.16 394.31 831.16 419.59 845.74 438.84 922.85 438.84"/><polygon class="cls-13" points="941.83 398.1 931.63 398.1 929.13 414.81 925.07 414.81 920.24 466.92 926.74 466.92 926.74 438.67 941.83 398.1"/><polyline class="cls-9" points="868.63 639.31 868.63 755.53 819.74 755.53"/><rect class="cls-9" x="824.57" y="755.53" width="19.89" height="3.33"/><rect class="cls-9" x="824.57" y="758.86" width="19.89" height="3.33"/><rect class="cls-9" x="860.46" y="699.86" width="19.89" height="3.33" transform="translate(168.88 1571.94) rotate(-90)"/><rect class="cls-9" x="863.79" y="699.86" width="19.89" height="3.33" transform="translate(172.21 1575.27) rotate(-90)"/><rect class="cls-11" x="491.96" y="220.09" width="10.89" height="9.11"/><rect class="cls-11" x="442.63" y="188.09" width="8.5" height="8.5"/><rect class="cls-11" x="442.6" y="239.2" width="8.5" height="8.5"/><path class="cls-2" d="M521.68,217.56l-5.02-5.02v-7h-7l-4.31-4.31c-4.19-4.19-11.02-4.19-15.21,0l-4.31,4.31h-8.25v8.25l-4.44,4.44c-2.03,2.03-3.15,4.73-3.15,7.6s1.12,5.57,3.15,7.61l4.44,4.44v7.58h7.58l4.31,4.31c2.03,2.03,4.73,3.15,7.6,3.15s5.57-1.12,7.6-3.15l4.31-4.31h7.67v-7.67l5.02-5.02c4.19-4.19,4.19-11.02,0-15.21Z"/><path class="cls-8" d="M523.8,215.44l-4.14-4.14v-8.76h-8.76l-3.43-3.43c-5.36-5.36-14.09-5.36-19.45,0l-3.43,3.43h-10.01v10.01l-3.56,3.56c-2.6,2.6-4.03,6.05-4.03,9.73s1.43,7.13,4.03,9.73l3.56,3.56v9.34h9.34l3.43,3.43c2.6,2.6,6.05,4.03,9.73,4.03s7.13-1.43,9.73-4.03l3.43-3.43h9.43v-9.43l4.14-4.14c2.6-2.6,4.03-6.05,4.03-9.73s-1.43-7.13-4.03-9.73ZM521.68,232.77l-5.02,5.02v7.67h-7.67l-4.31,4.31c-2.03,2.03-4.73,3.15-7.6,3.15s-5.57-1.12-7.6-3.15l-4.31-4.31h-7.58v-7.58l-4.44-4.44c-2.03-2.03-3.15-4.73-3.15-7.61s1.12-5.57,3.15-7.6l4.44-4.44v-8.25h8.25l4.31-4.31c4.19-4.19,11.02-4.19,15.21,0l4.31,4.31h7v7l5.02,5.02c4.19,4.19,4.19,11.02,0,15.21Z"/><circle class="cls-13" cx="516.12" cy="909.03" r="2.84"/><circle class="cls-13" cx="511.9" cy="909.26" r="3.07"/><circle class="cls-13" cx="512.24" cy="936.41" r="2.83"/><polygon class="cls-13" points="526.07 938.95 526.07 934.67 538.68 935.5 538.68 939.24 526.07 938.95"/><path class="cls-13" d="M559.93,939.31v-1.69c0-1.17.74-2.21,1.84-2.6l4.93-1.74c.7-.25,1.46-.2,2.13.12l2.37,1.16c1.03.5,1.28,1.85.51,2.69l-1.89,2.06h-9.89Z"/><circle class="cls-13" cx="556.14" cy="936.72" r="2.58"/><rect class="cls-13" x="572.93" y="936.67" width="11.42" height="2.64"/><path class="cls-13" d="M623.03,938.77h.71v4.56h-.71c-.54,0-.99-.44-.99-.99v-2.58c0-.54.44-.99.99-.99Z"/><polygon class="cls-13" points="420.93 709.75 419.41 712.53 431.96 716.22 433.68 711.95 425.49 709.53 420.93 709.75"/><polygon class="cls-13" points="157.56 671.75 160.49 665 167.46 666.78 162.41 678.5 155.68 675.59 157.49 671.92 157.56 671.75"/><circle class="cls-13" cx="135.34" cy="704.88" r="3.55"/><circle class="cls-13" cx="73.66" cy="726.86" r="2.58"/><circle class="cls-13" cx="73.66" cy="744.69" r="2.58"/><circle class="cls-13" cx="73.66" cy="771.19" r="2.58"/><circle class="cls-13" cx="137.1" cy="776.36" r="2.58"/><path class="cls-13" d="M95.27,787.59l1.62-1.44c.73-.64,1.81-.66,2.56-.03l1.74,1.47h-5.92Z"/><circle class="cls-13" cx="250.88" cy="702.52" r="2.15"/><circle class="cls-13" cx="775.43" cy="761.2" r="3.61"/><circle class="cls-13" cx="830.94" cy="788.62" r="3.58"/><circle class="cls-13" cx="916.77" cy="826.45" r="3.41"/><circle class="cls-13" cx="916.77" cy="833.83" r="3.41"/><circle class="cls-13" cx="926.07" cy="781.97" r="3.61"/><path class="cls-13" d="M964.74,811.75l-3.24,1.18c-3.27,1.19-3.57,4.33-.55,5.8l3.79,1.85v-8.83Z"/><circle class="cls-13" cx="837.3" cy="739.83" r="3.6"/><circle class="cls-13" cx="843.09" cy="735.63" r="3.6"/><circle class="cls-13" cx="843.09" cy="744.34" r="3.6"/><polygon class="cls-13" points="863.07 733.54 866.45 733.54 866.24 745.29 861.82 745.59 863.07 733.54"/><polygon class="cls-13" points="846.7 747.95 847.91 729.5 864.53 731.59 863.32 749 846.7 747.95"/><polygon class="cls-13" points="825.36 694.38 823.07 711 840.09 713.12 841.95 695.81 825.36 694.38"/><rect class="cls-11" x="811.2" y="699.21" width="7.92" height="7.92"/><circle class="cls-13" cx="915.65" cy="668.38" r="2.98"/><circle class="cls-13" cx="915.65" cy="675.84" r="2.98"/><circle class="cls-13" cx="961.68" cy="524.06" r="3.22"/><circle class="cls-13" cx="969.07" cy="530.06" r="2.94"/><polygon class="cls-13" points="966.13 544.54 971.07 545.75 966.78 566.42 961.41 565.5 966.13 544.54"/><polygon class="cls-13" points="925.57 475.86 926.96 481.2 948.74 476.7 947.02 471.7 925.57 475.86"/><circle class="cls-13" cx="842.24" cy="440.34" r="3.25"/><circle class="cls-13" cx="862.91" cy="462.75" r="3.25"/><circle class="cls-13" cx="820.24" cy="462.75" r="3.25"/><circle class="cls-13" cx="803.02" cy="430.36" r="3.25"/><path class="cls-9" d="M748.91,447.86l2.03.53c1.32.34,2.24,1.54,2.24,2.9v4.91c0,1.22-.74,2.32-1.88,2.78l-2.4.97"/><path class="cls-9" d="M752.35,466.64l1.74-2.05c1.2-1.41,2.97-2.21,4.83-2.18l5.34.1c1.66.03,3.23.72,4.37,1.92l2.1,2.21"/><polygon class="cls-13" points="805.24 267.47 816.02 255.53 827.74 264.59 816.49 277.86 805.24 267.47"/><polygon class="cls-12" points="827.74 264.59 845.85 279.64 834.46 292.92 816.49 277.86 827.74 264.59"/><circle class="cls-13" cx="822.32" cy="315.75" r="2.5"/><circle class="cls-13" cx="868.07" cy="219.86" r="2.78"/><circle class="cls-13" cx="833.84" cy="198.75" r="2.67"/><path class="cls-13" d="M893.94,210.63l-5.67.51,1.31,7.83,5.95-.47c.33-.03.55-.34.46-.66l-2.04-7.22Z"/><path class="cls-13" d="M889.54,232.17h7.11l-.42-12.88c-.01-.35-.31-.62-.66-.61l-6,.29-.03,13.19Z"/><circle class="cls-13" cx="578.03" cy="161.29" r="3.17"/><circle class="cls-13" cx="559.82" cy="219" r="2.75"/><circle class="cls-13" cx="666.18" cy="119.65" r="2.54"/><circle class="cls-13" cx="683.43" cy="119.65" r="2.54"/><circle class="cls-13" cx="694.24" cy="123.54" r="2.54"/><circle class="cls-13" cx="642.07" cy="103.1" r="2.54"/><circle class="cls-13" cx="642.07" cy="81.77" r="2.54"/><rect class="cls-13" x="668.73" y="115.96" width="6.08" height="5.29"/><rect class="cls-13" x="674.81" y="115.96" width="6.08" height="5.29"/><line class="cls-9" x1="334.07" y1="847.92" x2="334.07" y2="846.92"/><line class="cls-14" x1="334.07" y1="844.91" x2="334.07" y2="785.59"/><line class="cls-9" x1="334.07" y1="784.59" x2="334.07" y2="783.59"/><line class="cls-9" x1="363.41" y1="847.92" x2="363.41" y2="846.92"/><line class="cls-14" x1="363.41" y1="844.91" x2="363.41" y2="785.59"/><line class="cls-9" x1="363.41" y1="784.59" x2="363.41" y2="783.59"/><polygon class="cls-13" points="71.74 657.03 73.63 655.14 77.35 658.7 73.29 663.22 71.74 661.31 71.74 657.03"/><line class="cls-9" x1="557.64" y1="109.65" x2="557.64" y2="78.2"/><line class="cls-9" x1="562.46" y1="78.59" x2="562.46" y2="106.7"/><line class="cls-9" x1="566.57" y1="78.59" x2="566.57" y2="104.97"/><line class="cls-9" x1="571.68" y1="78.59" x2="571.68" y2="103.39"/><line class="cls-9" x1="557.64" y1="78.59" x2="574.74" y2="78.59"/><polygon class="cls-11" points="868.63 639.31 868.63 587.31 821.85 587.31 818.24 585.25 731.91 585.25 731.91 598.09 739.07 598.09 739.07 626.09 731.91 626.09 731.91 637.92 737.91 637.92 737.91 665.25 731.91 665.25 731.91 677.92 738.24 677.92 738.24 704.59 731.91 704.59 731.91 717.92 738.74 717.92 738.74 743.25 731.91 743.25 731.91 757.75 819.74 757.75 819.74 751.09 812.41 751.09 812.41 753.25 793.74 753.25 793.74 643.59 812.24 643.59 812.24 657.59 820.57 657.59 820.57 643.67 821.91 639.76 868.63 639.31"/><line class="cls-9" x1="517.07" y1="819.38" x2="557.74" y2="819.38"/></g></svg>