<?xml version="1.0" encoding="UTF-8"?>
<svg id="Layer_2" xmlns="http://www.w3.org/2000/svg" version="1.1" viewBox="0 0 1024 1024">
  <!-- Generator: Adobe Illustrator 29.2.1, SVG Export Plug-In . SVG Version: 2.1.0 Build 116)  -->
  <defs>
    <style>
      .st0 {
        stroke: #ffcf5c;
      }

      .st0, .st1, .st2, .st3, .st4, .st5, .st6, .st7, .st8, .st9, .st10, .st11, .st12, .st13, .st14, .st15 {
        stroke-miterlimit: 10;
      }

      .st0, .st1, .st2, .st3, .st4, .st5, .st6, .st8, .st9, .st10, .st11, .st12, .st13 {
        fill: none;
      }

      .st0, .st1, .st2, .st4, .st5, .st6, .st7, .st8, .st11, .st13, .st14, .st15 {
        stroke-width: .8px;
      }

      .st1 {
        stroke-dasharray: 0 0 1.8 1.8;
      }

      .st1, .st2, .st3, .st4, .st7, .st8, .st9, .st10, .st11, .st12, .st13 {
        stroke: #c1c1c1;
      }

      .st2 {
        stroke-dasharray: 0 0 2.2 2.2;
      }

      .st16 {
        stroke-miterlimit: 10;
        stroke-width: .8px;
      }

      .st16, .st17, .st18, .st19, .st14, .st20, .st15 {
        stroke: #5b5b5b;
      }

      .st16, .st17, .st18, .st19, .st20, .st15 {
        fill: #aaa;
      }

      .st17 {
        stroke-width: .7px;
      }

      .st17, .st20 {
        stroke-miterlimit: 10;
      }

      .st18 {
        stroke-miterlimit: 10;
        stroke-width: .7px;
      }

      .st19 {
        stroke-miterlimit: 10;
        stroke-width: .7px;
      }

      .st5 {
        stroke: #36d0ff;
      }

      .st21 {
        fill: #dc0023;
      }

      .st21, .st22, .st23 {
        isolation: isolate;
        opacity: .2;
      }

      .st6 {
        stroke: #dc0023;
      }

      .st24, .st7 {
        fill: #080a0d;
      }

      .st8 {
        stroke-dasharray: 0 0 2 2;
      }

      .st22 {
        fill: #36d0ff;
      }

      .st9 {
        stroke-width: 3px;
      }

      .st10 {
        stroke-width: 2px;
      }

      .st11 {
        stroke-dasharray: 0 2;
      }

      .st12 {
        stroke-width: .5px;
      }

      .st23 {
        fill: #ffcf5c;
      }

      .st13 {
        stroke-dasharray: 0 0 1.4 1.4;
      }

      .st14 {
        fill: #2d2d2d;
      }

      .st20 {
        stroke-width: 1px;
      }
    </style>
  </defs>
  <g id="MIRAGE">
    <rect class="st24" width="1024" height="1024"/>
    <polygon class="st14" points="233.7 691.8 233.7 753.3 292.6 753.3 330.4 829.8 345 829.8 345 831.8 472.4 874 467.7 863.9 479.4 857.3 484.6 859.9 553 824.8 554.6 819.4 564.5 814.4 570.6 826.1 627.9 826.1 627.9 780.1 647.2 780.1 647.2 821.4 694.6 821.4 694.6 817.3 701.7 817.3 701.7 821.7 724.4 821.7 724.4 817.1 737.5 817.1 737.5 824.6 795.4 824.6 795.4 817.5 797.5 817.5 797.5 821.8 859.8 821.8 859.8 819.1 865.4 819.1 865.4 785.9 859.3 785.9 859.3 771.6 866.8 771.6 866.8 730.6 859.9 730.6 859.9 724.9 866.8 724.9 866.8 693.9 852.8 693.9 852.8 641.3 928.5 641.3 928.5 595.6 932.7 595.6 932.7 550.5 929.5 550.5 929.5 503.6 932.9 503.6 932.9 480.5 929.4 480.5 929.4 434.2 932.9 434.2 932.9 425.5 937.7 425.5 937.7 383.5 943.6 383.5 943.6 357.5 937.6 357.5 937.6 322.5 924.1 322.5 924.1 233.8 887.3 233.8 886.3 234.9 879.1 234.9 879.1 206.3 853 199.4 772.4 199.4 772.4 190.6 782.8 190.6 782.8 158.6 735.2 158.6 734 160.6 675.3 160.6 675.3 167.8 672.4 167.8 672.4 160.6 626.9 160.6 624.9 162.5 619.3 162.5 619.3 158.5 549.4 158.5 549.4 203.7 545.8 213.6 449.7 213.6 449.7 216.8 446.8 216.8 446.8 174 346.3 174 346.3 182.7 343.8 182.7 343.8 163.5 308.8 163.5 307.4 161.7 295.9 161.7 295.9 163.6 291.3 163.6 291.3 168.3 266.7 168.3 266.7 180.6 256.2 180.6 256.2 164.6 226.2 164.6 226.2 169.4 223.2 169.4 217.7 169.4 170.3 174.1 161.4 215.9 160.4 229.2 118.3 229.2 116.4 227 105.8 236.8 108.3 239.6 112.1 322.1 166 322.1 166 327.1 164.1 328.1 164.1 344 165.6 344.7 165.6 349 156.4 355.5 156.4 394 168.6 394 168.6 396.1 166.3 397.2 166.3 483.6 224.6 483.6 224.6 474.6 249 474.6 249 483.8 312 483.8 315.6 490.1 298.9 490.1 298.9 679.3 286.3 691.6 233.7 691.8"/>
    <rect class="st21" x="200.2" y="250.5" width="70.2" height="77.5"/>
    <rect class="st6" x="200.2" y="250.5" width="70.2" height="77.5"/>
    <polygon class="st5" points="238.4 693.6 287.5 693.6 302.8 678.4 302.8 653.3 353.5 653.3 353.5 774.1 307.5 774.1 296 749.5 238.4 749.5 238.4 693.6"/>
    <polygon class="st22" points="238.4 693.6 287.5 693.6 302.8 678.4 302.8 653.3 353.5 653.3 353.5 774.1 307.5 774.1 296 749.5 238.4 749.5 238.4 693.6"/>
    <rect class="st21" x="521.4" y="754.9" width="71.2" height="55"/>
    <rect class="st6" x="521.4" y="754.9" width="71.2" height="55"/>
    <polygon class="st0" points="867 316.6 922.5 316.6 922.5 323.6 936.3 323.6 936.3 421.3 866.4 421.3 867 316.6"/>
    <polygon class="st23" points="867 316.6 922.5 316.6 922.5 323.6 936.3 323.6 936.3 421.3 866.4 421.3 867 316.6"/>
    <path class="st7" d="M424.5,484.1s.8,96.2,0,96.2h-11l-2.7,5.9h7.5v14.2h31.3v11.9s16.9.9,16.9,0v-12.5h33.1s.2-6,0-6h-19.1v-25.2h8.3v-13.1h-8.4v-46.1h18.1v-6h-71.3v-19.4h-2.8,0Z"/>
    <polygon class="st7" points="253.1 394 186.3 394 186.3 396.6 189.2 396.6 189.2 432.1 221.3 432.1 221.3 397.9 253.1 397.9 253.1 394"/>
    <path class="st7" d="M669.5,760.8v35.5h30.3v-10.8h2.3v-14.3h-2.2v-38.8h127.8v-116.5h75.7v-20.5h-89.3v94.8c0,.2-57.2,0-57.2,0l-2.4-1.4h-10.6l-1.3,1.7h-43.1v-25.8h-13.1v26h-26.9v31.6h21.2v38.8l-11.3-.2h0Z"/>
    <rect class="st7" x="723.2" y="771.5" width="14" height="14"/>
    <rect class="st7" x="761" y="771.5" width="13.3" height="14"/>
    <rect class="st7" x="798" y="771.5" width="13.3" height="14"/>
    <rect class="st7" x="341.4" y="268.7" width="10.8" height="14.9"/>
    <polygon class="st7" points="198.8 250.4 213.6 250.4 213.6 246.5 198.8 246.5 194.9 246.5 194.9 250.4 194.9 268.5 198.8 268.5 198.8 250.4"/>
    <polygon class="st7" points="269.5 246.5 254.2 246.5 254.2 250.5 269.5 250.5 269.5 267.7 273.4 267.7 273.4 250.5 273.4 246.5 269.5 246.5"/>
    <polygon class="st7" points="269.4 327.4 254.7 327.4 254.7 331.2 269.4 331.2 273.4 331.2 273.4 327.4 273.4 309.3 269.4 309.3 269.4 327.4"/>
    <polygon class="st7" points="198.7 310.1 194.9 310.1 194.9 327.3 194.9 331.2 198.7 331.2 214 331.2 214 327.3 198.7 327.3 198.7 310.1"/>
    <polyline class="st4" points="539 615.3 539 668.2 542.1 671.2 564.3 671.2 568.2 667.3 568.2 643.5"/>
    <polyline class="st4" points="543.5 671.2 595.3 772.6 491.5 825.3 473.1 789.6"/>
    <polyline class="st4" points="553.6 671.2 605.9 776.2 487 836.9 464.2 791.6"/>
    <polyline class="st4" points="564.3 671.2 616.8 779.8 483.7 847.3 455.3 791.6"/>
    <line class="st4" x1="659.6" y1="709" x2="658.6" y2="709"/>
    <line class="st2" x1="656.4" y1="709" x2="644.3" y2="709"/>
    <polyline class="st4" points="643.2 709 642.2 709 642.2 710"/>
    <line class="st1" x1="642.2" y1="711.7" x2="642.2" y2="721.4"/>
    <polyline class="st4" points="642.2 722.3 642.2 723.3 641.2 723.3"/>
    <line class="st13" x1="639.8" y1="723.3" x2="637.7" y2="723.3"/>
    <polyline class="st4" points="637 723.3 636 723.3 636 724.3"/>
    <line class="st8" x1="636" y1="726.3" x2="636" y2="778.1"/>
    <line class="st4" x1="636" y1="779.1" x2="636" y2="780.1"/>
    <polygon class="st11" points="651.4 777 653.7 763.1 667.1 765.2 665.8 779.4 651.4 777"/>
    <polyline class="st11" points="680.9 729.7 672 729.7 672 744.5 680.9 744.5"/>
    <line class="st11" x1="647.2" y1="780.1" x2="669.5" y2="780.1"/>
    <path class="st4" d="M498.6,509.6v64.4s29,0,28.9,0,0-64.4,0-64.4"/>
    <polyline class="st4" points="466.8 454.6 455.3 448.7 455.3 412.6"/>
    <polyline class="st4" points="455.3 477 432.5 463.6 432.5 412.6"/>
    <line class="st4" x1="432.5" y1="444" x2="455.3" y2="444"/>
    <line class="st4" x1="432.5" y1="439.6" x2="455.3" y2="439.6"/>
    <line class="st4" x1="432.5" y1="435.1" x2="455.3" y2="435.1"/>
    <line class="st4" x1="432.5" y1="430.7" x2="455.3" y2="430.7"/>
    <line class="st4" x1="432.5" y1="426.3" x2="455.3" y2="426.3"/>
    <line class="st4" x1="432.5" y1="421.9" x2="455.3" y2="421.9"/>
    <line class="st4" x1="432.5" y1="417.5" x2="455.3" y2="417.5"/>
    <line class="st4" x1="445.7" y1="471.3" x2="458" y2="450.1"/>
    <line class="st4" x1="449.1" y1="473.3" x2="461.5" y2="451.9"/>
    <line class="st4" x1="452.6" y1="475.3" x2="465.1" y2="453.7"/>
    <line class="st4" x1="498.6" y1="514.6" x2="527.5" y2="514.6"/>
    <line class="st4" x1="498.6" y1="518.7" x2="527.5" y2="518.7"/>
    <line class="st4" x1="498.6" y1="522.7" x2="527.5" y2="522.7"/>
    <line class="st4" x1="498.6" y1="526.7" x2="527.5" y2="526.7"/>
    <line class="st4" x1="498.6" y1="530.7" x2="527.5" y2="530.7"/>
    <line class="st4" x1="498.6" y1="534.8" x2="527.5" y2="534.8"/>
    <line class="st4" x1="498.6" y1="554" x2="527.5" y2="554"/>
    <line class="st4" x1="498.6" y1="558.1" x2="527.5" y2="558.1"/>
    <line class="st4" x1="498.6" y1="562.1" x2="527.5" y2="562.1"/>
    <line class="st4" x1="498.6" y1="566.1" x2="527.5" y2="566.1"/>
    <line class="st4" x1="498.6" y1="570.1" x2="527.5" y2="570.1"/>
    <line class="st4" x1="567.7" y1="503.1" x2="689.7" y2="503.1"/>
    <line class="st4" x1="550" y1="645.2" x2="539" y2="645.2"/>
    <line class="st4" x1="550" y1="641.3" x2="539" y2="641.3"/>
    <line class="st4" x1="550" y1="637.5" x2="539" y2="637.5"/>
    <line class="st4" x1="550" y1="633.6" x2="539" y2="633.6"/>
    <line class="st4" x1="550" y1="629.7" x2="539" y2="629.7"/>
    <line class="st4" x1="550" y1="625.8" x2="539" y2="625.8"/>
    <line class="st4" x1="550" y1="622" x2="539" y2="622"/>
    <line class="st4" x1="550" y1="618.1" x2="539" y2="618.1"/>
    <line class="st4" x1="743.5" y1="643.2" x2="706.5" y2="643.2"/>
    <line class="st4" x1="827.9" y1="647.6" x2="852.8" y2="647.6"/>
    <line class="st4" x1="827.9" y1="652.2" x2="852.8" y2="652.2"/>
    <line class="st4" x1="827.9" y1="656.8" x2="852.8" y2="656.8"/>
    <line class="st4" x1="827.9" y1="661.3" x2="852.8" y2="661.3"/>
    <line class="st4" x1="411.9" y1="854" x2="434.9" y2="786.6"/>
    <line class="st4" x1="426" y1="786.6" x2="403.9" y2="851.3"/>
    <line class="st4" x1="396" y1="848.7" x2="417.7" y2="786.6"/>
    <line class="st4" x1="406.9" y1="786.6" x2="388.2" y2="846.2"/>
    <line class="st4" x1="379.3" y1="843.2" x2="398.5" y2="786.6"/>
    <line class="st4" x1="388.9" y1="786.6" x2="371.3" y2="840.5"/>
    <line class="st4" x1="363" y1="837.8" x2="380.1" y2="786.6"/>
    <line class="st4" x1="355.5" y1="835.3" x2="371.6" y2="786.6"/>
    <line class="st4" x1="350.9" y1="580.6" x2="350.9" y2="530.7"/>
    <line class="st4" x1="577.2" y1="241.2" x2="577.2" y2="273.3"/>
    <line class="st4" x1="572" y1="241.2" x2="572" y2="273.3"/>
    <line class="st4" x1="566.8" y1="241.2" x2="566.8" y2="273.3"/>
    <line class="st4" x1="561.7" y1="241.2" x2="561.7" y2="273.3"/>
    <line class="st4" x1="556.5" y1="241.2" x2="556.5" y2="273.3"/>
    <line class="st4" x1="551.3" y1="241.2" x2="551.3" y2="273.3"/>
    <line class="st4" x1="546.2" y1="241.2" x2="546.2" y2="273.3"/>
    <line class="st4" x1="541" y1="241.2" x2="541" y2="273.3"/>
    <line class="st4" x1="535.8" y1="241.2" x2="535.8" y2="273.3"/>
    <line class="st4" x1="477.8" y1="273.3" x2="477.8" y2="241.2"/>
    <line class="st4" x1="483.1" y1="273.3" x2="483.1" y2="241.2"/>
    <line class="st4" x1="488.4" y1="273.3" x2="488.4" y2="241.2"/>
    <line class="st4" x1="493.7" y1="273.3" x2="493.7" y2="241.2"/>
    <line class="st4" x1="499" y1="273.3" x2="499" y2="241.2"/>
    <line class="st4" x1="504.4" y1="273.3" x2="504.4" y2="241.2"/>
    <line class="st4" x1="509.7" y1="273.3" x2="509.7" y2="241.2"/>
    <line class="st4" x1="515" y1="273.3" x2="515" y2="241.2"/>
    <rect class="st11" x="432.5" y="241.2" width="22.8" height="171.4"/>
    <path class="st7" d="M526.4,503v6.6h6.4v26.1h12.7v57h-19.1v6.2h23.6v46.3h3.6l1.7-1.7h16.1l1-3.5h22.8v3.8h17.8v-21.1h74l1.8,2.5h9.8l2.6-1.6h42.6v26.2h12.4v-27.5h4.7v-59.3h25.2v-18.7h73.5l5.8-6v-141.9h-5.9v-15.1h3.1v-69.2h4.7v-22h-12.6v-16.6l-17.4-18h-21.6l-2.6,2.4h-29l-1.4-2.4h-26.9l-1.8,1.9-2.8-1.9-21.7,20.1,1.3,3.4v71.1l3.2,5.3h3.6v3.2h15.2s1.7,172.9,0,172.9h-185v-28.4h-41.3c0-.1,0-.1,0-.1Z"/>
    <polygon class="st7" points="456.3 325.4 459 328.1 459 348.4 401.7 348.4 401.7 425.8 404.7 425.8 404.7 428.5 391.7 428.5 391.7 497 404.6 497 404.6 509.3 391.8 509.3 391.8 525.6 375.5 525.6 375.5 507.9 356.5 507.9 356.5 490.7 333.1 490.7 333.1 486.9 336.3 486.9 336.3 439.3 318.5 439.3 316.8 437.6 305.7 437.6 304.5 438.9 285.8 438.9 272.6 413.6 272.6 398.1 266.3 398.1 266.3 394 295.6 394 298.7 396.3 322 396.3 324.4 394.4 340.5 394.4 340.5 322.5 384.5 325.1 401.9 325.9 456.3 325.4"/>
    <polygon class="st7" points="376.3 546.8 379.2 546.8 379.2 581 390.2 581 392.3 586.4 385.5 586.4 385.5 651.6 405 651.6 405 638.4 418 638.4 418 651.6 466.4 651.6 485 661.8 485 680.4 479.5 680.4 479.5 763.6 484.2 763.6 485.5 765.2 485.5 783.1 469.2 791.6 447.7 791.6 447.7 786.6 365.2 786.6 365.2 780.3 370.5 780.3 370.5 766.4 357.1 760.2 357.1 716.3 353.2 716.3 353.2 672.5 368.8 672.5 368.8 648.3 345 648.3 345 600.6 349 580.6 376.3 580.6 376.3 546.8"/>
    <polygon class="st7" points="256.5 199.6 256.5 209.7 341 209.7 341 229.5 398.5 229.5 401.5 277.5 501.4 277.5 501.4 349.6 499.6 350.7 499.6 368.8 508 385.3 509.3 386 514 395 512.9 396.1 517.5 406 555.7 406 556.7 404.3 606.8 404.3 608.7 406 615.2 406 615.2 403.2 636.5 403.2 636.5 405.6 641.9 405.6 678.3 386.2 678.3 345.5 675.2 345.5 675.2 308.5 694.3 308.5 694.3 295.5 677.6 295.5 677.6 280.5 694.3 280.5 688.2 225.1 675 225.1 675 204.2 697.2 199.6 757.8 199.6 757.8 190.9 719.3 190.9 718.6 188.9 675.7 188.9 675.7 183.8 673.1 183.8 673.1 190.9 626.3 190.9 624.6 189.4 619.7 189.4 619.7 196.7 618.7 197.2 618.7 219.4 620.5 219.4 620.5 273.3 477.8 273.3 461 270.6 455.2 270.6 449.2 271.5 449.2 241.2 577.9 241.2 577.9 238.2 449.3 238.2 449.3 234.8 447.3 234.8 447.3 271.4 414.6 271.4 405 261.8 405 217.6 408 217.6 408 209.5 347 209.5 347 201.1 344.2 201.1 344.2 207.6 266.5 207.6 266.5 199.6 256.5 199.6"/>
    <polygon class="st7" points="424.4 448.7 427.8 448.7 427.8 412.6 462.9 412.6 462.9 408.2 459.5 404.9 459.5 367.2 453.2 367.2 453.2 387.3 421.4 387.3 421.4 425.7 418.1 425.7 418.1 428.4 424.3 428.4 424.4 448.7"/>
    <polyline class="st4" points="356 174 356 203.4 369.7 203.4 369.7 209.5"/>
    <line class="st4" x1="361.3" y1="203.4" x2="361.3" y2="174"/>
    <line class="st4" x1="365.6" y1="203.4" x2="365.6" y2="174"/>
    <polyline class="st4" points="573.2 158.5 573.2 198.4 608.5 217.5 608.5 200.6 619.7 189.4"/>
    <line class="st4" x1="608.5" y1="212.8" x2="573.2" y2="193.7"/>
    <line class="st4" x1="608.5" y1="207.6" x2="573.2" y2="188.5"/>
    <line class="st4" x1="608.5" y1="202.3" x2="573.2" y2="183.2"/>
    <line class="st4" x1="573.2" y1="178.5" x2="610.7" y2="198.4"/>
    <polyline class="st4" points="742.2 199.6 742.2 221.2 745.1 224 824.3 224"/>
    <polyline class="st10" points="741.5 199.6 741.5 222.1 744.5 225.1 789.6 225.1"/>
    <line class="st4" x1="789.6" y1="224" x2="789.6" y2="199.4"/>
    <line class="st4" x1="794.6" y1="224" x2="794.6" y2="199.4"/>
    <line class="st4" x1="799.6" y1="224" x2="799.6" y2="199.4"/>
    <line class="st4" x1="804.6" y1="224" x2="804.6" y2="199.4"/>
    <line class="st4" x1="809.6" y1="224" x2="809.6" y2="199.4"/>
    <line class="st4" x1="814.6" y1="224" x2="814.6" y2="199.4"/>
    <line class="st4" x1="819.5" y1="224" x2="819.5" y2="199.4"/>
    <polygon class="st15" points="689.7 308.5 689.7 323.5 675.2 331.1 675.2 308.5 689.7 308.5"/>
    <line class="st4" x1="730.7" y1="301.1" x2="699.2" y2="301.1"/>
    <line class="st4" x1="700.1" y1="318.8" x2="730.7" y2="318.8"/>
    <line class="st4" x1="730.7" y1="344.4" x2="699.2" y2="339.5"/>
    <line class="st4" x1="730.7" y1="347" x2="730.7" y2="371.6"/>
    <polyline class="st4" points="666.3 392.6 654.7 428.3 654.7 442"/>
    <polyline class="st4" points="658.8 396.6 647.9 428.2 647.9 441.4"/>
    <polyline class="st4" points="652 400.2 641.7 428.8 641.7 441.4"/>
    <polygon class="st15" points="708.3 664.7 708.3 665.5 709.1 665.9 709.1 665 709.1 649.8 708.3 649.8 708.3 664.7"/>
    <polygon class="st15" points="711.3 666.1 711.3 666.9 712.1 667.3 712.1 666.5 712.1 649.8 711.3 649.8 711.3 666.1"/>
    <polygon class="st15" points="714.3 667.5 714.3 668.4 715 668.7 715 667.9 715 649.8 714.3 649.8 714.3 667.5"/>
    <polygon class="st15" points="717.2 669 717.2 669.8 718 670.2 718 669.3 718 649.8 717.2 649.8 717.2 669"/>
    <polygon class="st15" points="720.2 670.4 720.2 671.2 721 671.6 721 670.8 721 649.8 720.2 649.8 720.2 670.4"/>
    <polygon class="st15" points="723.2 671.8 723.2 672.7 723.9 673 723.9 672.2 723.9 649.8 723.2 649.8 723.2 671.8"/>
    <polygon class="st15" points="726.1 673.3 726.1 674.1 726.9 674.5 726.9 673.6 726.9 649.8 726.1 649.8 726.1 673.3"/>
    <polygon class="st15" points="729.1 674.7 729.1 675.5 729.8 675.9 729.8 675.1 729.8 649.8 729.1 649.8 729.1 674.7"/>
    <polygon class="st15" points="732.1 676.1 732.1 677 732.8 677.3 732.8 676.5 732.8 649.8 732.1 649.8 732.1 676.1"/>
    <polygon class="st15" points="735 677.6 735 678.4 735.8 678.8 735.8 677.9 735.8 649.8 735 649.8 735 677.6"/>
    <polygon class="st15" points="738 679 738 679.8 738.8 680.2 738.8 679.4 738.8 649.8 738 649.8 738 679"/>
    <polygon class="st15" points="741 649.8 741 680.4 741 681.3 741.7 681.6 741.7 680.8 741.7 649.8 741 649.8"/>
    <polyline class="st4" points="889.5 251.5 889.5 310.4 867 310.4"/>
    <line class="st4" x1="893.2" y1="262" x2="924.9" y2="262"/>
    <line class="st4" x1="893.2" y1="265.1" x2="924.9" y2="265.1"/>
    <line class="st4" x1="893.2" y1="268.2" x2="924.9" y2="268.2"/>
    <line class="st4" x1="893.2" y1="271.4" x2="924.9" y2="271.4"/>
    <line class="st4" x1="893.2" y1="281.5" x2="924.9" y2="281.5"/>
    <line class="st4" x1="893.2" y1="284.6" x2="924.9" y2="284.6"/>
    <line class="st4" x1="893.2" y1="287.7" x2="924.9" y2="287.7"/>
    <line class="st4" x1="893.2" y1="290.8" x2="924.9" y2="290.8"/>
    <line class="st4" x1="893.2" y1="300.1" x2="924.9" y2="300.1"/>
    <line class="st4" x1="893.2" y1="303.2" x2="924.9" y2="303.2"/>
    <line class="st4" x1="893.2" y1="306.4" x2="924.9" y2="306.4"/>
    <line class="st4" x1="893.2" y1="309.5" x2="924.9" y2="309.5"/>
    <polyline class="st4" points="800.2 690.2 800.2 585.1 803.3 582.2 879.8 582.2 879.8 595.3"/>
    <rect class="st15" x="391.7" y="428.5" width="13.4" height="13.4"/>
    <rect class="st12" x="424.3" y="448.7" width="3.4" height="34.9"/>
    <rect class="st15" x="465.4" y="492.1" width="21.2" height="11.5"/>
    <rect class="st15" x="361.5" y="507.9" width="14.1" height="14.8"/>
    <rect class="st15" x="760.6" y="563" width="24.7" height="15.6"/>
    <rect class="st15" x="459" y="327.5" width="15.4" height="15.4"/>
    <rect class="st15" x="200.7" y="252.1" width="20.4" height="20.4"/>
    <rect class="st15" x="249.4" y="250.5" width="20.2" height="20.2"/>
    <rect class="st15" x="247.2" y="305.2" width="22.2" height="22.2"/>
    <rect class="st15" x="248.8" y="294.9" width="18.2" height="10.3"/>
    <rect class="st15" x="240.2" y="312.4" width="7" height="14.2"/>
    <rect class="st4" x="479.5" y="728.5" width="6.8" height="29.8"/>
    <rect class="st4" x="479.5" y="684.5" width="6.8" height="29.6"/>
    <rect class="st4" x="737.5" y="817.1" width="28.2" height="7.6"/>
    <rect class="st4" x="770.2" y="817.1" width="25.2" height="7.6"/>
    <rect class="st4" x="765.7" y="814.1" width="4.5" height="10.6"/>
    <polyline class="st4" points="811.4 732.3 811.4 771.5 859.3 771.5"/>
    <line class="st4" x1="861.9" y1="693.9" x2="861.9" y2="724.9"/>
    <line class="st4" x1="862.5" y1="771.6" x2="862.5" y2="730.6"/>
    <line class="st4" x1="852.8" y1="693.4" x2="827.9" y2="693.4"/>
    <rect class="st4" x="735" y="732.3" width="26.7" height="4.7"/>
    <rect class="st4" x="772.5" y="732.3" width="26.7" height="4.7"/>
    <rect class="st4" x="811.4" y="739" width="5.7" height="19.7"/>
    <rect class="st4" x="821.8" y="767.4" width="28.5" height="4.1"/>
    <rect class="st4" x="821.8" y="763.3" width="28.5" height="4.1"/>
    <rect class="st4" x="821.8" y="759.1" width="28.5" height="4.1"/>
    <polyline class="st4" points="420 348.4 420 375.8 440.5 377.5 440.5 387.3"/>
    <line class="st4" x1="405.1" y1="427.7" x2="418.1" y2="427.7"/>
    <rect class="st15" x="459" y="436" width="10.4" height="10.4"/>
    <rect class="st15" x="460" y="412.6" width="2" height="24.9"/>
    <rect class="st15" x="468.9" y="444" width="166.4" height="1.5"/>
    <rect class="st15" x="514" y="442.4" width="4" height="4" rx="2" ry="2"/>
    <rect class="st15" x="573" y="443.3" width="4" height="4" rx="2" ry="2"/>
    <line class="st10" x1="463.7" y1="429.9" x2="475.3" y2="441.2"/>
    <line class="st10" x1="690.5" y1="466.7" x2="690.5" y2="478.2"/>
    <line class="st10" x1="692.1" y1="457.2" x2="700.1" y2="465.5"/>
    <polygon class="st10" points="696.3 469.7 704.3 462.4 717.2 475.9 709.3 482.9 696.3 469.7"/>
    <polygon class="st15" points="699.3 456.7 708.2 466.4 718 456.6 709.1 447.6 699.3 456.7"/>
    <polygon class="st15" points="688.1 481.1 697 490.7 706.8 481 697.9 471.9 688.1 481.1"/>
    <rect class="st15" x="705" y="482.4" width="14.8" height="14.8"/>
    <rect class="st17" x="689.7" y="462.4" width="8.2" height="7.2" rx="2.3" ry="2.3" transform="translate(-126.3 627.1) rotate(-45)"/>
    <rect class="st15" x="659.2" y="518.4" width="14.7" height="13.5"/>
    <polygon class="st15" points="481 568.8 492 570.1 490.7 580 480.5 579 480.5 568.8 481 568.8"/>
    <rect class="st15" x="595.3" y="643.9" width="16.2" height="16.2"/>
    <rect class="st15" x="611.5" y="643.3" width="16.2" height="16.2"/>
    <rect class="st15" x="614.5" y="623.2" width="11.2" height="10.4"/>
    <rect class="st15" x="613.1" y="633.6" width="11.2" height="9.7"/>
    <rect class="st15" x="626.9" y="622.7" width="10.9" height="10.9"/>
    <line class="st4" x1="642.2" y1="709" x2="638.5" y2="709"/>
    <rect class="st3" x="648.8" y="696.8" width="10.4" height="12.2"/>
    <rect class="st15" x="654" y="690.8" width="5.6" height="6"/>
    <rect class="st15" x="638.5" y="694.3" width="10.2" height="14.7"/>
    <rect class="st15" x="642.9" y="694.8" width="12.1" height="1.7"/>
    <circle class="st15" cx="483.4" cy="722.4" r="3.9"/>
    <rect class="st18" x="448.8" y="787.3" width="12.1" height="21.8" rx=".4" ry=".4" transform="translate(-362.6 1217.5) rotate(-87.5)"/>
    <polygon class="st15" points="453.8 831.1 470.8 826.5 475.1 842.4 481.2 842.4 482.5 857.5 468.2 858.8 466.5 845.6 458.6 847.7 453.8 831.1"/>
    <polygon class="st15" points="569 811.1 584 801.6 583 793.1 599.7 790.1 603.5 806.4 591.1 809 588.5 812.2 592.2 816.7 577.4 826.1 569 811.1"/>
    <polygon class="st15" points="525.9 743.1 527.9 760.9 545.9 758.6 542.9 741 525.9 743.1"/>
    <polygon class="st15" points="585.5 818.1 594.4 804.6 587.1 799.4 578.1 813.8 585.5 818.1"/>
    <rect class="st15" x="527.6" y="747.1" width="17.8" height="8.9"/>
    <polygon class="st15" points="504.7 758.9 520.8 748.3 531.2 765.1 514.6 775.3 504.7 758.9"/>
    <polygon class="st15" points="573 758.5 589 755 594 770.1 576.4 774.8 573 758.5"/>
    <polygon class="st15" points="587.4 753.3 600.2 766.9 606.8 760.1 593.5 747.2 587.4 753.3"/>
    <circle class="st15" cx="705" cy="682.5" r="4.4"/>
    <rect class="st15" x="760.4" y="578.6" width="8.3" height="15.6"/>
    <rect class="st3" x="768.7" y="578.6" width="3.1" height="13.9"/>
    <rect class="st3" x="879.8" y="589.2" width="19.7" height="6.1"/>
    <polyline class="st3" points="877.6 582.2 877.6 576.1 899.5 576.1 899.5 589.2"/>
    <path class="st15" d="M900.7,480h1.4c.3,0,.5.2.5.5v114.8h-2.5v-114.8c0-.3.2-.5.5-.5h0Z"/>
    <line class="st4" x1="899.4" y1="576.1" x2="899.4" y2="434.8"/>
    <path class="st15" d="M866,385.7c-1.7,0-3.2,1.4-3.2,3.1v.7c0,0-.2,0-.2,0h-.4c-1.9,0-3.4,1.5-3.4,3.4s1.5,3.4,3.4,3.4h.4c1.9,0,3.4-1.5,3.4-3.4h0c1.7,0,3.2-1.4,3.2-3.1v-.9c0-1.7-1.4-3.1-3.2-3.1h0Z"/>
    <path class="st15" d="M932.9,322.8h0c2.4,0,4.3,1.9,4.3,4.3h0c0,2.4-1.9,4.3-4.3,4.3h0c-2.4,0-4.3-1.9-4.3-4.3h0c0-2.4,1.9-4.3,4.3-4.3Z"/>
    <rect class="st15" x="735.5" y="158.5" width="10.9" height="9.8" rx="4.9" ry="4.9"/>
    <rect class="st20" x="738.1" y="164.1" width="8.7" height="1.7" transform="translate(100.8 573.3) rotate(-45)"/>
    <rect class="st15" x="713.2" y="160.8" width="10.5" height="10.5"/>
    <rect class="st15" x="772.8" y="163.4" width="9.4" height="23.9"/>
    <rect class="st15" x="437.3" y="192.1" width="9.5" height="17.4"/>
    <rect class="st15" x="438.8" y="183.8" width="6.9" height="8.6"/>
    <polygon class="st15" points="429.3 181.7 432.7 174.6 441.6 178.5 438.6 185.4 429.3 181.7"/>
    <rect class="st15" x="380.1" y="204.6" width="11.4" height="4.9"/>
    <rect class="st15" x="405" y="217.6" width="5.2" height="17.6"/>
    <rect class="st15" x="440.5" y="245.3" width="6.8" height="26.1"/>
    <rect class="st15" x="418.1" y="263.6" width="23.5" height="7.8"/>
    <polygon class="st15" points="332.4 169.6 337.5 164.3 342.9 169.4 337.9 174.9 332.4 169.6"/>
    <rect class="st15" x="325.9" y="163.5" width="6.1" height="5.6"/>
    <rect class="st15" x="245.3" y="164.6" width="10.9" height="4.4"/>
    <polygon class="st15" points="163.3 207.3 172.7 207.3 172.7 217.8 161.3 217.8 161.6 215.2 163.3 207.3"/>
    <polygon class="st15" points="167.7 186.6 201.8 192.6 198.7 210.8 163.5 206.2 167.7 186.6"/>
    <polygon class="st15" points="193.3 186.1 192.8 191 197.8 192.2 199 187.7 193.3 186.1"/>
    <polygon class="st15" points="174.3 207.3 172.9 213.9 187.3 216.1 188.3 209.1 174.3 207.3"/>
    <path class="st15" d="M169.9,176.2l3.7.5c.8.1,1.6.6,2,1.3l.5.8c.4.7.4,1.5.2,2.2l-.5,1.5c-.4,1.1-1.4,1.8-2.5,1.8h-1c-.5,0-.9-.1-1.3-.4l-2.4-1.4,1.4-6.4h0Z"/>
    <polyline class="st3" points="160.6 227.5 178.4 227.5 197 209.9"/>
    <rect class="st15" x="146.6" y="267.5" width="10.4" height="22.4"/>
    <rect class="st15" x="158.6" y="353.9" width="7.5" height="7.5" rx="3.7" ry="3.7"/>
    <polygon class="st15" points="340.2 327.4 338.4 321.1 331.2 322.5 334 336.9 340.5 335.5 340.2 327.4"/>
    <rect class="st15" x="224.2" y="398.4" width="13.9" height="13.9"/>
    <rect class="st15" x="239.3" y="398.4" width="12.6" height="13.9"/>
    <rect class="st15" x="221.3" y="412.2" width="23.5" height="3.9"/>
    <rect class="st15" x="226.8" y="416.1" width="14.8" height="5.1"/>
    <rect class="st15" x="166.3" y="455.2" width="5.7" height="12.7"/>
    <rect class="st15" x="166.3" y="468.8" width="5.7" height="13.2"/>
    <rect class="st15" x="250.2" y="477.2" width="16.1" height="6.6"/>
    <rect class="st15" x="267" y="478.4" width="14.5" height="5.4"/>
    <rect class="st15" x="290.1" y="439.2" width="8" height="19.7"/>
    <rect class="st15" x="292.3" y="441" width="3.7" height="4.7"/>
    <polygon class="st15" points="325.3 439.2 326.7 454.8 336.3 454.8 336.3 439.3 325.3 439.2"/>
    <path class="st15" d="M330.2,454.9h0c3,0,5.5,2.5,5.5,5.5h0c0,3-2.5,5.5-5.5,5.5h0c-3,0-5.5-2.5-5.5-5.5h0c0-3,2.5-5.5,5.5-5.5Z"/>
    <line class="st9" x1="270.4" y1="412.8" x2="284.7" y2="440.1"/>
    <polygon class="st15" points="194.5 483.6 194.5 475.4 224.1 475.9 224.6 483.6 194.5 483.6"/>
    <polyline class="st3" points="195.4 475.4 195.4 471.4 223.7 472.8 223.7 476.5"/>
    <rect class="st19" x="390.7" y="514.8" width="14.6" height="2.8" transform="translate(-238.9 654.9) rotate(-64.6)"/>
    <rect class="st16" x="391.1" y="488.9" width="14.6" height="2.8" transform="translate(-230.7 431.8) rotate(-45.6)"/>
    <polygon class="st15" points="424.4 560.1 413.2 560.1 414.4 537.4 424.4 537.4 424.4 560.1"/>
    <polygon class="st15" points="376.3 568.1 365 565.1 361.5 576.7 373.2 580.6 376.3 568.1"/>
    <polyline class="st3" points="298.9 580.6 312 580.6 312 549.5"/>
    <circle class="st15" cx="817.5" cy="766.8" r="3.5"/>
    <circle class="st10" cx="704.3" cy="469.9" r="3.9"/>
    <circle class="st10" cx="710" cy="475.6" r="3.9"/>
    <path class="st15" d="M752.4,407.5h-3.8c1.1-.5,1.8-1.6,1.8-2.8s-.3-1.5-.8-2c1.4-.3,2.4-1.5,2.4-3s-.7-2.3-1.8-2.8c.3-.5.5-1,.5-1.6,0-.9-.3-1.6-.9-2.2.1,0,.3,0,.4,0,1,0,1.8-.8,1.8-1.8s-.8-1.8-1.8-1.8-1.8.8-1.8,1.8.1.8.3,1.1c-.4-.1-.7-.2-1.2-.2-1.7,0-3.1,1.4-3.1,3.1s.2,1,.4,1.5c-.6-.6-1.3-.9-2.2-.9-1.7,0-3.1,1.4-3.1,3.1s1.4,3.1,3.1,3.1,3.1-1.4,3.1-3.1-.2-1-.4-1.5c.2.2.5.5.9.6-.3.5-.5,1-.5,1.6s.3,1.5.8,2c-1.4.3-2.4,1.5-2.4,3s.8,2.3,1.8,2.8h0c-.4,0-.8.3-.8.8v4.8c0,.4.3.8.8.8h6.4c.4,0,.8-.3.8-.8v-4.8c0-.4-.3-.8-.8-.8h0Z"/>
    <rect class="st15" x="730" y="201.2" width="11.1" height="11.1"/>
    <polygon class="st15" points="725.4 213.5 735.6 211.8 737.5 222.8 727.1 224.1 725.4 213.5"/>
    <polyline class="st4" points="224.3 169.1 224.3 209.8 257.5 209.8"/>
    <polyline class="st4" points="225.8 169.4 225.8 208.3 256.2 208.3"/>
    <line class="st4" x1="633.9" y1="445.5" x2="685.5" y2="445.5"/>
    <line class="st4" x1="592.3" y1="503.1" x2="592.3" y2="445.3"/>
    <line class="st4" x1="608.6" y1="503.1" x2="608.6" y2="445.3"/>
    <line class="st4" x1="622.6" y1="503.1" x2="622.6" y2="445.3"/>
    <line class="st4" x1="637.6" y1="503.1" x2="637.6" y2="445.3"/>
    <line class="st4" x1="651.3" y1="503.1" x2="651.3" y2="445.3"/>
    <line class="st4" x1="664.6" y1="503.1" x2="664.6" y2="445.3"/>
    <rect class="st4" x="253" y="394" width="13.3" height="3.8"/>
  </g>
</svg>