<?xml version="1.0" encoding="UTF-8"?><svg id="Layer_2" xmlns="http://www.w3.org/2000/svg" viewBox="0 0 1024 1025.02"><defs><style>.cls-1{fill:#ffcf5c;}.cls-1,.cls-2,.cls-3,.cls-4,.cls-5,.cls-6,.cls-7{stroke-width:0px;}.cls-1,.cls-5,.cls-6{opacity:.15;}.cls-8,.cls-9,.cls-10,.cls-11,.cls-12,.cls-13,.cls-14,.cls-15,.cls-16,.cls-17,.cls-18{stroke-miterlimit:10;stroke-width:.75px;}.cls-8,.cls-9,.cls-11,.cls-13,.cls-14,.cls-15,.cls-16,.cls-17,.cls-18{fill:none;}.cls-8,.cls-10,.cls-11,.cls-12,.cls-13,.cls-16,.cls-17,.cls-18{stroke:#677693;}.cls-9{stroke:#ffcf5c;}.cls-10,.cls-3{fill:#080A0D;}.cls-11{stroke-dasharray:0 0 2.08 2.08;}.cls-12{fill:#9cadc4;}.cls-2,.cls-19{fill:#1e2733;}.cls-13{stroke-dasharray:0 0 2.28 2.28;}.cls-14{stroke:#36d0ff;}.cls-15{stroke:#dc0023;}.cls-4{fill:#162330;}.cls-5{fill:#dc0023;}.cls-6{fill:#36d0ff;}.cls-16{stroke-dasharray:0 0 2.2 2.2;}.cls-7{fill:#677693;}.cls-17{stroke-dasharray:0 0 1.96 1.96;}.cls-18{stroke-dasharray:0 2;}</style></defs><g id="OVERPASS"><rect class="cls-3" width="1024" height="1024"/><path class="cls-19" d="M594.39,962.83l3.1,3.14-2.9,2.86,52.89,54.5,3.28-2.88,4.42,4.04,25.35-25.35-3.56-3.72,5.35-5.35,3.81,3.47,56.03-56.03-3.83-4,5.67-5.67,3.92,3.58,67.67-67.5h34.56l.83-4.33h2.89v-2.5h4.44v-11.72h-4.44v-52.56h-4.83v-15.06l4.17-4.44,2.89,2.83,17.86-19.75-2.83-2.17,3.83-5h14.5s-.17,3,0,3h26.92v-3h14.5v-17.83h4.58v-30.62h-5.17v-2.04h-82.42l-34.28-68.22,3.5-1.81,9.22,17.56h93.33v-97.44l-39.78-79h-34.67v-61.22h15.89l60.44-122-83.11-41.11-18.44,36.67h-38v-38h-100.44l-84.42-42.25v-117.92h-94.54v1.88s-2.33.25-2.33,0v-23.29h-25.1v-1.5h15.53V14.67h-85.47v67l24.33,11.72v3.33l7.08,3.64-.57.57h-2.32l-13.86,27.9-17.42-1.5-44.69,38.06h-2.49l-18.12,16.83-11.44,18.67,10.89,6.5-5.41,6.8-.98-.75-30.92,60.9,1.25.83-4.67,9-1.42-.67-22.36,44.81,1.47.81-4.86,9.31-3.33-1.94-104.83,54.8v282.56l79.67,160,65.08-32.71.62-2.38,7.08-3.21,3.92,8.25-1.92,1.17,61.43,122.1,143.61-77.39h7.33v-5.56h5.61v5.83h43.78v-33.11h2.67v3.22h99.61v-45.06l3.83-3.83h83.72v3.94h-34.06v51.06l-45.31,44.86,2.73,2.39-6.11,6.05-2.67-2.5-24.74,24.52,2.6,2.68-6.49,6.43-2.66-2.66-25.32,24.46,3.85,3.66-6.31,6.25-3.53-3.37-24.15,23.91Z"/><path class="cls-8" d="M594.39,962.83l3.1,3.14-2.9,2.86,52.89,54.5,3.28-2.88,4.42,4.04,25.35-25.35-3.56-3.72,5.35-5.35,3.81,3.47,56.03-56.03-3.83-4,5.67-5.67,3.92,3.58,67.67-67.5h34.56l.83-4.33h2.89v-2.5h4.44v-11.72h-4.44v-52.56h-4.83v-15.06l4.17-4.44,2.89,2.83,17.86-19.75-2.83-2.17,3.83-5h14.5s-.17,3,0,3h26.92v-3h14.5v-17.83h4.58v-30.62h-5.17v-2.04h-82.42l-34.28-68.22,3.5-1.81,9.22,17.56h93.33v-97.44l-39.78-79h-34.67v-61.22h15.89l60.44-122-83.11-41.11-18.44,36.67h-38v-38h-100.44l-84.42-42.25v-117.92h-94.54v1.88s-2.33.25-2.33,0v-23.29h-25.1v-1.5h15.53V14.67h-85.47v67l24.33,11.72v3.33l7.08,3.64-.57.57h-2.32l-13.86,27.9-17.42-1.5-44.69,38.06h-2.49l-18.12,16.83-11.44,18.67,10.89,6.5-5.41,6.8-.98-.75-30.92,60.9,1.25.83-4.67,9-1.42-.67-22.36,44.81,1.47.81-4.86,9.31-3.33-1.94-104.83,54.8v282.56l79.67,160,65.08-32.71.62-2.38,7.08-3.21,3.92,8.25-1.92,1.17,61.43,122.1,143.61-77.39h7.33v-5.56h5.61v5.83h43.78v-33.11h2.67v3.22h99.61v-45.06l3.83-3.83h83.72v3.94h-34.06v51.06l-45.31,44.86,2.73,2.39-6.11,6.05-2.67-2.5-24.74,24.52,2.6,2.68-6.49,6.43-2.66-2.66-25.32,24.46,3.85,3.66-6.31,6.25-3.53-3.37-24.15,23.91Z"/><polygon class="cls-10" points="765.17 466.83 765.17 370.5 815.83 370.5 815.83 470.72 802.17 470.72 802.17 512.39 698.94 512.39 698.94 466.72 765.17 466.83"/><polygon class="cls-10" points="652.06 396.83 728.28 403.17 725.39 440.94 649.06 434.28 652.06 396.83"/><path class="cls-10" d="M647.17,396.83v6.78l-58.11,15.28v57.36h3.53v17h-3.53v22.17h-42.56v-20.42h-10.33l-21.67-40.94h-2.44v-10.44h2.89v-73.56h-3.44v-9.22h3.33v-29.56l-47.22-24.56,25.44-53.11,21,11.22-19.11,40.78,38.25,20.17,6-10,2.06,2.06-4.61,8.39h9.72v23.07h-12.15v48.54h11.4v22.89h-11.89v15.22l17.78,37.89h5.89v12.11h24.44v-12.15h1.33v-55.74h-1.44s-.22-20.11,0-20.11h9v12.56l56.44-13.67Z"/><path class="cls-10" d="M419.5,637.17l15.67,34,40-19,101,101v38.61h3.06v-3.72s60.11-.28,60.11,0,0-16.14,0-16.14h-14.08v-4.08h-26.83v-53.36h-42.92v-18.19h-8.22v-60.94h26.89v-25.5h-24.33v-7.33h-68.33v3.67l-62,31Z"/><path class="cls-10" d="M351.58,673.25l26.83-14,21.67,37.89s-28.25,15.28-28.5,14.94-20-38.83-20-38.83Z"/><polygon class="cls-10" points="481.42 583.25 484.25 585.67 499.33 570.17 533.89 570.17 534.03 547.32 531.42 544.75 512.08 562.75 512.08 566.67 498 566.67 481.42 583.25"/><rect class="cls-8" x="570.83" y="554" width="3" height="24.33"/><polygon class="cls-10" points="607.23 554 697.13 554 697.13 539 800.63 539 800.63 578.33 732.96 612 738.96 635.83 760.96 635.83 760.96 672 750.13 672 794.46 737.67 814.96 737.67 814.96 742 623.79 742 623.79 678.17 599.13 678.17 599.13 576.72 607.18 576.72 607.23 554"/><polygon class="cls-10" points="287.28 759.5 337.06 734.83 312.17 685.67 312.17 539 400.08 539 400.08 528.83 385.72 528.83 385.72 533.28 269.5 533.28 252.17 515.42 252.17 501.28 247.06 501.28 247.06 540.12 251.71 540.12 251.71 538.17 275.25 538.17 275.25 576.04 271.92 576.04 271.92 584.46 275.13 584.46 275.13 639 272.11 638.97 272.06 647.25 275.13 647.28 275.13 739.17 287.28 759.5"/><polygon class="cls-10" points="351.06 777.28 355.06 784.83 362.17 780.28 384.06 780.28 402.28 782.28 422.61 782.28 430.61 780.39 448.61 780.39 460.94 781.83 475.83 781.83 486.06 779.72 489.92 779.72 513.42 791.78 524.92 811.42 528.17 833.17 533.08 833.17 533.08 774 356.75 774 351.06 777.28"/><polygon class="cls-10" points="404.72 847.28 430.17 844.28 419.5 867.06 404.72 847.28"/><circle class="cls-12" cx="497" cy="826.25" r="8.17"/><path class="cls-8" d="M500.79,812.46l3.97,11.27c.74,2.09.58,4.4-.44,6.37l-5.78,11.24"/><circle class="cls-8" cx="438.17" cy="724.72" r="16"/><circle class="cls-12" cx="438.17" cy="724.72" r="9.78"/><polygon class="cls-10" points="246.67 417.95 246.67 469.08 251.17 469.08 251.17 461.08 310 461.08 310 489.75 328.5 508 385.83 508 385.83 511.5 400.08 511.5 400.08 505.28 425.39 505.28 435.06 497.06 435.06 464.67 426.5 464.67 426.5 427.83 434.5 427.83 434.5 395.61 424.5 386.39 402.06 386.39 402.06 381.39 394.61 381.39 394.61 363.17 400.06 363.17 400.06 353.61 371.28 353.61 371.28 313.39 407.17 244.17 380.5 231.72 380.94 228.28 373.28 224.72 338.39 294.83 336.61 294.28 332.61 302.83 333.94 303.94 311.67 348.83 310 347.83 305.17 357 308.58 359.42 306.83 414.75 248.75 414.08 248.75 417.96 246.67 417.95"/><polyline class="cls-8" points="427.94 354.39 441.94 354.39 469.94 384.51 469.94 433.94 481.5 433.94"/><path class="cls-8" d="M429.06,537.5h12.67s28.78-27.33,28.78-28.78v-51.67h10.92"/><polyline class="cls-8" points="534.38 491.48 551.71 525.6 531.42 544.75"/><path class="cls-8" d="M531.63,544.81s-.29-.26-.73-.68"/><path class="cls-11" d="M529.4,542.7c-5.55-5.33-19.55-18.88-19.55-18.88l-.69-13.38"/><polyline class="cls-8" points="509.11 509.39 509.06 508.39 510.06 508.39"/><line class="cls-17" x1="512.02" y1="508.39" x2="514.96" y2="508.39"/><polyline class="cls-8" points="515.94 508.39 516.94 508.39 516.94 507.39"/><line class="cls-13" x1="516.94" y1="505.11" x2="516.94" y2="497.14"/><polyline class="cls-8" points="516.94 496 516.94 495 517.94 495"/><line class="cls-16" x1="520.14" y1="495" x2="536.61" y2="495"/><line class="cls-8" x1="537.71" y1="495" x2="538.71" y2="495"/><rect class="cls-12" x="500.83" y="570.17" width="33.19" height="3"/><rect class="cls-12" x="537.75" y="565.21" width="11.92" height="7.04"/><rect class="cls-12" x="589.06" y="451.39" width="13.78" height="24.86"/><polyline class="cls-8" points="499.67 582.92 536.58 582.92 536.58 572.25 570.83 572.25"/><polyline class="cls-18" points="574.25 609.9 593 609.75 593 603.5 578.58 572.25 573.83 572.25"/><rect class="cls-8" x="549.67" y="567.75" width="21.17" height="4.5"/><rect class="cls-8" x="549.67" y="562.96" width="21.17" height="4.5"/><rect class="cls-8" x="549.67" y="558.46" width="21.17" height="4.5"/><rect class="cls-8" x="549.67" y="553.96" width="21.17" height="4.5"/><rect class="cls-8" x="549.67" y="549.46" width="21.17" height="4.5"/><rect class="cls-8" x="549.67" y="544.96" width="21.17" height="4.5"/><rect class="cls-8" x="549.67" y="540.46" width="21.17" height="4.5"/><rect class="cls-8" x="549.67" y="537" width="21.17" height="3.46"/><line class="cls-8" x1="570.83" y1="537" x2="570.83" y2="515.42"/><rect class="cls-8" x="570.83" y="515.42" width="3.83" height="20.83"/><rect class="cls-8" x="574.67" y="515.42" width="3.83" height="20.83"/><rect class="cls-8" x="578.5" y="515.42" width="3.83" height="20.83"/><rect class="cls-8" x="500.88" y="583.46" width="3.46" height="19.04"/><rect class="cls-8" x="504.33" y="583.46" width="3.46" height="19.04"/><rect class="cls-8" x="507.79" y="583.46" width="3.46" height="19.04"/><rect class="cls-8" x="511.25" y="583.46" width="3.46" height="19.04"/><rect class="cls-8" x="514.71" y="583.46" width="3.46" height="19.04"/><rect class="cls-8" x="518.17" y="583.46" width="3.46" height="19.04"/><rect class="cls-8" x="521.63" y="583.46" width="3.46" height="19.04"/><rect class="cls-8" x="525.08" y="583.46" width="3.46" height="19.04"/><rect class="cls-8" x="528.54" y="583.46" width="3.46" height="19.04"/><rect class="cls-8" x="532" y="583.46" width="3.46" height="19.04"/><rect class="cls-8" x="535.46" y="583.46" width="3.46" height="19.04"/><rect class="cls-8" x="538.92" y="583.46" width="3.46" height="19.04"/><rect class="cls-8" x="542.38" y="583.46" width="3.46" height="19.04"/><rect class="cls-8" x="545.83" y="583.46" width="3.46" height="19.04"/><polyline class="cls-8" points="599 508.44 591.89 515.42 588.72 515.42"/><polyline class="cls-8" points="602.5 515.42 608 515.42 608 554"/><path class="cls-12" d="M602.28,568.21h0c2.64,0,4.78,2.14,4.78,4.78v3.74h-9.56v-3.74c0-2.64,2.14-4.78,4.78-4.78Z"/><polygon class="cls-10" points="559.08 292.33 553.58 289.33 549.5 296.67 535.75 289.33 541.75 277.83 554.25 283.42 563.25 265.92 576.92 272.83 588.42 251.75 593.17 253.61 580.5 279.17 592.25 285.67 588.5 292.83 588.5 326.83 590.42 326.83 590.42 334.92 613.83 338.67 613.83 343 590.42 339.17 590.42 349.17 582.08 349.17 582.08 326.83 583.67 326.83 583.67 296.25 562.37 286.66 559.08 292.33"/><line class="cls-8" x1="441.72" y1="537.5" x2="483.5" y2="581.17"/><line class="cls-8" x1="488.5" y1="576.72" x2="446.67" y2="532.77"/><line class="cls-8" x1="493.39" y1="571.28" x2="451.64" y2="527.99"/><line class="cls-8" x1="498" y1="566.67" x2="456.38" y2="523.39"/><line class="cls-8" x1="369.78" y1="508" x2="369.78" y2="533.28"/><line class="cls-8" x1="366.11" y1="508.28" x2="366.11" y2="533.28"/><line class="cls-8" x1="362.39" y1="533.28" x2="362.39" y2="508"/><line class="cls-8" x1="357.72" y1="508.33" x2="357.72" y2="533.28"/><line class="cls-8" x1="341.72" y1="533.67" x2="341.72" y2="508"/><line class="cls-8" x1="338.39" y1="508" x2="338.39" y2="533.28"/><line class="cls-8" x1="334.39" y1="533.67" x2="334.39" y2="508.33"/><line class="cls-8" x1="329.83" y1="508.33" x2="329.83" y2="533.28"/><line class="cls-8" x1="351.58" y1="673.25" x2="315.4" y2="692.05"/><line class="cls-8" x1="318.54" y1="698.27" x2="354.82" y2="679.55"/><line class="cls-8" x1="321.71" y1="704.52" x2="357.96" y2="685.67"/><line class="cls-8" x1="361.58" y1="692.71" x2="325.13" y2="711.27"/><line class="cls-8" x1="364.88" y1="699.14" x2="328.44" y2="717.82"/><line class="cls-8" x1="394.18" y1="686.82" x2="432.98" y2="666.43"/><line class="cls-8" x1="429.68" y1="659.25" x2="390.25" y2="679.42"/><line class="cls-8" x1="387.25" y1="673.92" x2="426.8" y2="653.02"/><line class="cls-8" x1="424.33" y1="646.75" x2="383.42" y2="668"/><polyline class="cls-8" points="380.94 228.28 419.83 247.67 405.33 277.25 393.32 270.87"/><polyline class="cls-8" points="467.61 306.72 452.75 298.67 466.17 271.33 480.78 279.23"/><line class="cls-8" x1="417.72" y1="251.98" x2="463.85" y2="276.05"/><line class="cls-8" x1="413.8" y1="259.98" x2="460.29" y2="283.31"/><line class="cls-8" x1="409.35" y1="269.05" x2="455.79" y2="292.48"/><line class="cls-8" x1="405.84" y1="276.21" x2="453.19" y2="297.76"/><line class="cls-8" x1="293.08" y1="286.99" x2="332.67" y2="307.5"/><line class="cls-8" x1="289.26" y1="293.84" x2="328.76" y2="314.38"/><line class="cls-8" x1="285.51" y1="301.34" x2="325.15" y2="321.66"/><line class="cls-8" x1="851.83" y1="646.28" x2="826.98" y2="595.68"/><line class="cls-8" x1="793.45" y1="581.84" x2="799.06" y2="593.72"/><path class="cls-8" d="M816.49,629.01l-4.41-12c-.13-.28.23-.54.45-.33l20.18,18.7"/><circle class="cls-12" cx="811.85" cy="627.54" r="2.99"/><circle class="cls-12" cx="874.39" cy="566.56" r="6.83"/><polyline class="cls-12" points="877.34 560.4 883.46 557.42 886.54 564.37 881.22 565.96"/><rect class="cls-12" x="850.33" y="596.94" width="10.61" height="6.94"/><polyline class="cls-7" points="800.5 539 810.44 546.44 810.06 564.94 805.47 582.33 800.5 578.33"/><line class="cls-8" x1="808.83" y1="592.83" x2="805.47" y2="582.33"/><line class="cls-8" x1="807.98" y1="590.16" x2="825.61" y2="590.16"/><line class="cls-8" x1="806.7" y1="586.16" x2="825.61" y2="586.16"/><line class="cls-8" x1="805.78" y1="582.33" x2="825.61" y2="582.33"/><line class="cls-8" x1="806.38" y1="578.87" x2="825.61" y2="578.87"/><line class="cls-8" x1="807.15" y1="575.96" x2="825.61" y2="575.96"/><line class="cls-8" x1="807.98" y1="573.39" x2="825.61" y2="573.39"/><line class="cls-8" x1="808.54" y1="570.68" x2="825.61" y2="570.68"/><line class="cls-8" x1="809.26" y1="567.97" x2="825.61" y2="567.97"/><polyline class="cls-8" points="809.98 565.23 825.61 565.23 825.61 592.5"/><polygon class="cls-7" points="802.17 512.39 810.44 503.5 810.44 470.72 802.17 470.72 802.17 512.39"/><polygon class="cls-7" points="854.83 408.61 907.33 297.17 831.21 259.77 838.23 245.81 921.5 286.61 861.06 408.61 854.83 408.61"/><line class="cls-8" x1="684.22" y1="369.11" x2="708.67" y2="369.11"/><circle class="cls-12" cx="772.16" cy="270.92" r="2.86"/><circle class="cls-12" cx="766.44" cy="272.5" r="2.86"/><circle class="cls-12" cx="777.89" cy="270.92" r="2.86"/><circle class="cls-12" cx="772.16" cy="276.64" r="2.86"/><circle class="cls-12" cx="777.89" cy="276.64" r="2.86"/><polyline class="cls-8" points="613.83 338.67 649.06 346.06 649.06 372.06 683.94 371.78 683.94 370.83 683.94 295.17 708.67 295.17"/><polyline class="cls-8" points="590.42 334.92 602.67 294.17 637.71 222.25 625.91 216.34 592.25 285.67"/><rect class="cls-12" x="365.5" y="855.25" width="3.83" height="16"/><rect class="cls-12" x="395.5" y="855.25" width="3.83" height="16"/><polygon class="cls-12" points="314.96 804.96 321.21 801.62 328.79 816.96 322.7 820.34 314.96 804.96"/><polygon class="cls-12" points="326.28 827.46 331.42 824.58 339 839.71 333.89 842.58 326.28 827.46"/><rect class="cls-12" x="419.29" y="769.29" width="18.08" height="4.42"/><rect class="cls-12" x="450.33" y="769.29" width="18.08" height="4.42"/><circle class="cls-3" cx="184.04" cy="585.12" r="6.62"/><circle class="cls-3" cx="191.94" cy="673.47" r="2.58"/><circle class="cls-3" cx="208.61" cy="550.47" r="2.58"/><path class="cls-12" d="M173.14,603.04c1.5-5.44,6.52-14.09,23.32-12.06.99.12,1.84.74,2.24,1.65.61,1.37,1.15,3.61.05,6.29-1.83,4.5-4.42,10.5-4.5,14.5-.06,3-11.23,2.39-17.59-1.41-3.06-1.83-4.47-5.54-3.52-8.97Z"/><path class="cls-12" d="M237.24,684.34l6.07-10.51c.48-.83,1.35-1.36,2.31-1.42l4.57-.25c.88-.05,1.73.31,2.3.97h0c4.17,2.62,7.76,6.05,10.56,10.1h0c1.06,1.53,1.29,3.48.63,5.21l-2.45,6.39c-.38,1-.64,2.04-.75,3.11h0c-.04.4-.29.76-.65.94l-.84.42c-1.56.78-3.39.77-4.94-.03-3.99-2.07-11.78-6.64-16.7-13.01-.43-.55-.46-1.31-.11-1.92Z"/><polygon class="cls-12" points="445.97 623.93 442.83 618.67 456 611.72 459.41 617.21 445.97 623.93"/><polygon class="cls-12" points="324.92 576.67 349.83 585.75 354.33 572.25 329.75 563.83 324.92 576.67"/><rect class="cls-12" x="324.92" y="602.83" width="26.33" height="14.25"/><polygon class="cls-12" points="321.17 647.17 325.58 659.92 349.83 650.5 344.42 637.92 321.17 647.17"/><line class="cls-8" x1="369.78" y1="539" x2="369.78" y2="663.76"/><rect class="cls-12" x="369.78" y="571.75" width="8.03" height="15.42"/><rect class="cls-12" x="369.78" y="616.44" width="8.03" height="16.14"/><circle class="cls-12" cx="374.78" cy="601.38" r="5"/><circle class="cls-3" cx="183.97" cy="444.31" r="2.92"/><circle class="cls-2" cx="228.19" cy="378.86" r="2.92"/><rect class="cls-12" x="225.63" y="417.58" width="21.12" height="13.58"/><path class="cls-12" d="M315.79,495.46v1.67c0,2.66,2.16,4.81,4.81,4.81h1.9l-6.71-6.48Z"/><path class="cls-12" d="M435.06,477.5l1.02.6c2.67,1.58,2.67,4.1,0,5.68l-1.02.6v-6.89Z"/><path class="cls-12" d="M434.69,409.17l1.14.6c3,1.58,3,4.1,0,5.68l-1.14.6v-6.89Z"/><rect class="cls-12" x="469.94" y="474.58" width="10.06" height="18.5"/><rect class="cls-8" x="465.71" y="469.94" width="4.49" height="23.81"/><rect class="cls-8" x="465.71" y="399.68" width="4.49" height="23.81"/><polyline class="cls-8" points="269.53 461.08 269.53 464.58 293.5 464.58 293.5 460.92"/><polyline class="cls-8" points="246.75 453.67 241.33 453.67 241.33 468.42 247.06 468.42"/><polyline class="cls-8" points="246.75 501.94 241.33 501.94 241.33 516.25 247.06 516.25"/><polyline class="cls-8" points="731.83 826.83 741.17 836.17 705.5 871.28"/><line class="cls-8" x1="730.88" y1="827.77" x2="740.36" y2="836.96"/><polygon class="cls-12" points="376.83 149.24 431.61 155.46 433.78 132.54 401.22 128.98 376.83 149.24"/><polygon class="cls-10" points="426.72 54.61 433.72 54.61 433.72 60.61 448.28 60.61 448.28 74.83 440.17 70.72 438.17 74.83 426.72 68.61 426.72 54.61"/><polygon class="cls-10" points="476.06 133.94 487.28 140.39 504.5 106.06 501.72 106.06 501.72 102.61 500.28 102.61 500.28 105.94 488.39 105.94 476.06 133.94"/><polygon class="cls-10" points="572.25 143.97 572.25 172.5 559.67 172.5 572.25 143.97"/><path class="cls-10" d="M598.25,223.97l27.27-7.52c.15-.04.28.12.21.26l-5.64,11.61c-.04.09-.15.13-.24.09l-10.76-4.84c-.09-.04-.19,0-.23.07l-4.5,7.61c-.05.08-.15.11-.23.07l-4.65-2.07c-.11-.05-.14-.18-.08-.27l2.82-4.13c.08-.11,0-.27-.12-.29l-3.85-.59Z"/><rect class="cls-8" x="363.17" y="836.33" width="75.33" height="51.33"/><rect class="cls-8" x="428.33" y="790.5" width="37.58" height="37.58"/><rect class="cls-12" x="447.24" y="821.01" width="32.37" height="4.52" transform="translate(434.2 -121.02) rotate(27.6)"/><line class="cls-8" x1="577.31" y1="791.78" x2="577.31" y2="816.83"/><line class="cls-8" x1="584" y1="820.06" x2="584" y2="788.03"/><line class="cls-8" x1="588.33" y1="788.03" x2="588.33" y2="820.06"/><line class="cls-8" x1="592.58" y1="820.06" x2="592.58" y2="788"/><line class="cls-8" x1="730" y1="742" x2="730" y2="771.17"/><line class="cls-8" x1="735.75" y1="742" x2="735.75" y2="771.17"/><line class="cls-8" x1="740.9" y1="742" x2="740.9" y2="771.17"/><line class="cls-8" x1="746.06" y1="742" x2="746.06" y2="771.17"/><line class="cls-8" x1="751.21" y1="742" x2="751.21" y2="771.17"/><line class="cls-8" x1="756.36" y1="742" x2="756.36" y2="771.17"/><line class="cls-8" x1="761.51" y1="742" x2="761.51" y2="771.17"/><line class="cls-8" x1="766.67" y1="742" x2="766.67" y2="771.17"/><line class="cls-8" x1="769.5" y1="772.92" x2="790.83" y2="772.92"/><line class="cls-8" x1="769.5" y1="777.33" x2="790.83" y2="777.33"/><line class="cls-8" x1="769.5" y1="781.75" x2="790.83" y2="781.75"/><line class="cls-8" x1="769.5" y1="786.17" x2="790.83" y2="786.17"/><line class="cls-8" x1="769.5" y1="790.58" x2="790.83" y2="790.58"/><line class="cls-8" x1="769.5" y1="795" x2="790.83" y2="795"/><line class="cls-8" x1="769.5" y1="799.42" x2="790.83" y2="799.42"/><line class="cls-8" x1="768.33" y1="771.17" x2="768.33" y2="801.42"/><line class="cls-8" x1="791.67" y1="742" x2="791.67" y2="801.42"/><rect class="cls-12" x="792.75" y="756" width="2.33" height="15.17"/><polyline class="cls-8" points="773.87 707.35 776.17 705.67 783.5 715.75 780.64 717.39"/><circle class="cls-12" cx="926.36" cy="726.42" r="3.39"/><circle class="cls-12" cx="926.54" cy="742.42" r="3.33"/><polyline class="cls-12" points="901.5 752.25 901.5 746.42 906.88 746.42 906.88 752.25"/><path class="cls-12" d="M917.25,749.08v-2.67c0-1.88,1.52-3.4,3.4-3.4s3.4,1.52,3.4,3.4v2.83"/><line class="cls-8" x1="919.5" y1="700.62" x2="930.25" y2="700.62"/><line class="cls-8" x1="922.97" y1="726.67" x2="922.97" y2="700.63"/><line class="cls-8" x1="926.36" y1="722.97" x2="926.36" y2="700.63"/><line class="cls-8" x1="929.75" y1="726.41" x2="929.75" y2="700.63"/><rect class="cls-12" x="876.89" y="699.11" width="18.06" height="11.33"/><polygon class="cls-12" points="887.19 749.14 883.22 745.89 886.06 741.69 892.42 745.47 889.42 749.25 887.19 749.14"/><polygon class="cls-12" points="896.97 745.94 892.49 745.75 889.97 752.25 896.97 752.25 896.97 745.94"/><circle class="cls-12" cx="850.92" cy="810.79" r="2.21"/><circle class="cls-12" cx="850.92" cy="815.21" r="2.21"/><rect class="cls-12" x="842.83" y="818.17" width="11" height="13.25"/><rect class="cls-12" x="732.62" y="778.96" width="9.84" height="13.5"/><rect class="cls-12" x="732.62" y="795" width="9.84" height="12.92"/><rect class="cls-12" x="732.62" y="811.88" width="6.15" height="7.25"/><rect class="cls-12" x="787.61" y="881.09" width="5.32" height="6.56" transform="translate(-393.88 817.83) rotate(-45)"/><rect class="cls-12" x="741.18" y="905.35" width="33" height="13.56" transform="translate(-423.05 802.92) rotate(-45)"/><polyline class="cls-8" points="849 779.94 828.28 779.94 823.94 784.5 823.94 863.94"/><polyline class="cls-8" points="814.96 741.33 819.08 741.33 819.08 754.5 791.67 754.5"/><polyline class="cls-7" points="698.94 510.25 690.58 503.33 690.58 468.08 698.94 468.08"/><polygon class="cls-7" points="697.13 540.42 689.92 545.92 689.92 554 697.13 554 697.13 540.42"/><line class="cls-8" x1="623.58" y1="409.81" x2="623.58" y2="553.96"/><polyline class="cls-12" points="624.17 467.75 627.86 467.75 627.25 481.25 623.58 481.25"/><rect class="cls-12" x="647.17" y="397.53" width="4.69" height="1.78"/><polygon class="cls-12" points="590.67 418.17 592.92 426.5 604.42 423.83 601.86 415.52 590.67 418.17"/><polygon class="cls-12" points="590.41 396.22 600.71 394.17 603.5 407.41 593.5 410.04 590.41 396.22"/><polyline class="cls-8" points="555.5 698.72 558.58 698.72 558.58 711.92 555.36 711.92"/><rect class="cls-12" x="602.83" y="678.17" width="20.96" height="6.71"/><polygon class="cls-12" points="551.47 669.89 554.92 673.14 559.97 667.74 556.24 664.78 551.47 669.89"/><polygon class="cls-12" points="476.89 311.55 469.11 323.56 484.78 333.11 492.32 319.57 476.89 311.55"/><rect class="cls-12" x="411.16" y="200.31" width="5.42" height="5.42" transform="translate(138.75 -166.86) rotate(27.23)"/><rect class="cls-7" x="815.83" y="412.17" width="4.17" height="57.67"/><rect class="cls-7" x="839.5" y="412.17" width="5.67" height="57.67"/><path class="cls-8" d="M655.06,372.01c0-.62,0-25.84,0-25.84h-6"/><line class="cls-8" x1="545.78" y1="326.22" x2="541" y2="315.89"/><line class="cls-8" x1="548.92" y1="297.5" x2="559.42" y2="299"/><polygon class="cls-12" points="562.37 286.66 556.71 297.33 578.71 307.29 583.67 296.25 562.37 286.66"/><circle class="cls-12" cx="574.91" cy="266.56" r="4.72"/><line class="cls-8" x1="618.17" y1="227.5" x2="590.24" y2="284.56"/><polygon class="cls-7" points="572.61 143.61 570.06 142.45 570.06 116.08 572.61 116.08 572.61 143.61"/><polyline class="cls-8" points="494.01 126.98 548.72 154.39 557.57 136.27"/><polyline class="cls-8" points="572.17 143.5 522.17 118.72 512.76 136.37"/><line class="cls-8" x1="544.61" y1="152.33" x2="553.76" y2="134.38"/><line class="cls-8" x1="540.45" y1="150.21" x2="549.59" y2="132.26"/><line class="cls-8" x1="536.29" y1="148.09" x2="545.43" y2="130.14"/><line class="cls-8" x1="532.13" y1="145.97" x2="541.27" y2="128.02"/><line class="cls-8" x1="527.96" y1="143.85" x2="537.11" y2="125.9"/><line class="cls-8" x1="523.8" y1="141.73" x2="532.94" y2="123.78"/><line class="cls-8" x1="519.64" y1="139.61" x2="528.78" y2="121.66"/><rect class="cls-12" x="522.53" y="112.47" width="7" height="7.57" transform="translate(104.68 -219.43) rotate(26.08)"/><rect class="cls-12" x="528.86" y="115.57" width="7" height="7.57" transform="translate(106.69 -221.9) rotate(26.08)"/><polygon class="cls-18" points="514.06 264.83 519.93 247.8 496.17 213.28 496.17 163.72 439.72 136.99 439.72 106.39 446.83 103.94 448.28 74.83 486.83 94.83 474.17 118.72 480.78 123.21 476.06 133.94 487.28 140.39 490.28 134.41 526.43 155.06 526.43 172.5 560.42 172.5 555.72 183.72 595.06 201.94 587.06 219.39 598.25 223.97 522.86 246.19 525.28 265 518.99 267.92 514.06 264.83"/><path class="cls-15" d="M685.7,298.42v61.5h58.5v-13.57l-4.01-2.43c-4.86-2.95-7.83-8.22-7.83-13.91h0c0-4.91,2.22-9.56,6.03-12.64l5.8-3.98v-14.97h-58.5Z"/><path class="cls-5" d="M685.7,298.42v61.5h58.5v-13.57l-4.01-2.43c-4.86-2.95-7.83-8.22-7.83-13.91h0c0-4.91,2.22-9.56,6.03-12.64l5.8-3.98v-14.97h-58.5Z"/><path class="cls-12" d="M459.61,134.06l-.5,11.06s15.06.89,15.22.94.56-11.39.56-11.39l-15.28-.61Z"/><path class="cls-12" d="M522.29,155.89c.06-.17,4.88-7.83,4.88-7.83l12.97,6.84-4.95,8.82-12.9-7.83Z"/><line class="cls-8" x1="492.77" y1="129.44" x2="530.33" y2="148.06"/><path class="cls-18" d="M527.17,195.58h40.67v5.69l-5.89,6.78-6.89-1.67-15.51,29.43"/><line class="cls-18" x1="587.06" y1="219.39" x2="563.25" y2="265.92"/><line class="cls-18" x1="555.5" y1="195.58" x2="555.5" y2="206.51"/><line class="cls-18" x1="531.33" y1="172.5" x2="531.33" y2="195.92"/><line class="cls-18" x1="536.25" y1="172.5" x2="536.25" y2="195.92"/><line class="cls-18" x1="541.17" y1="172.5" x2="541.17" y2="195.92"/><line class="cls-18" x1="546.08" y1="172.5" x2="546.08" y2="195.92"/><line class="cls-18" x1="551" y1="172.5" x2="551" y2="195.92"/><line class="cls-18" x1="555.92" y1="172.5" x2="555.92" y2="195.92"/><line class="cls-18" x1="560.83" y1="172.5" x2="560.83" y2="195.92"/><rect class="cls-12" x="492.94" y="65.28" width="7.11" height="15.22"/><rect class="cls-12" x="483.14" y="45.72" width="7.11" height="15.22"/><rect class="cls-12" x="483.14" y="27.51" width="7.11" height="15.22"/><rect class="cls-12" x="473.71" y="22.12" width="6.96" height="6.96"/><rect class="cls-12" x="480.54" y="22.12" width="6.96" height="6.96"/><rect class="cls-12" x="483.58" y="15.12" width="6.96" height="6.96"/><rect class="cls-12" x="477.19" y="15.12" width="6.23" height="6.96"/><rect class="cls-12" x="455.9" y="15.12" width="21.29" height="6.96"/><line class="cls-8" x1="426.72" y1="64.06" x2="426.72" y2="40.17"/><rect class="cls-8" x="405.17" y="42.74" width="21.56" height="5"/><rect class="cls-8" x="405.17" y="47.73" width="21.56" height="5"/><rect class="cls-8" x="405.17" y="52.73" width="21.56" height="5"/><rect class="cls-8" x="405.17" y="57.73" width="21.56" height="5"/><rect class="cls-8" x="405.17" y="62.72" width="21.56" height="5"/><line class="cls-8" x1="474.56" y1="60.94" x2="483.42" y2="52.8"/><rect class="cls-18" x="448.46" y="62.72" width="5.38" height="25.23"/><line class="cls-18" x1="562.27" y1="207.68" x2="587.06" y2="219.39"/><rect class="cls-8" x="572.61" y="161.83" width="24.47" height="4.67"/><rect class="cls-8" x="572.61" y="157.17" width="24.47" height="4.67"/><rect class="cls-8" x="572.61" y="152.5" width="24.47" height="4.67"/><polyline class="cls-5" points="436.94 204.12 461.08 155.46 579.88 211.74 569.95 231.96 543 240.4 523.11 245.76 525.53 264.57 519.24 267.49 428.53 221.07 432.86 212.33"/><rect class="cls-8" x="572.61" y="147.83" width="24.47" height="4.67"/><rect class="cls-8" x="572.61" y="143.17" width="24.47" height="4.67"/><rect class="cls-8" x="572.61" y="138.5" width="24.47" height="4.67"/><rect class="cls-8" x="572.61" y="133.83" width="24.47" height="4.67"/><rect class="cls-8" x="572.61" y="129.17" width="24.47" height="4.67"/><rect class="cls-8" x="572.61" y="124.5" width="24.47" height="4.67"/><rect class="cls-8" x="572.61" y="119.83" width="24.47" height="4.67"/><rect class="cls-8" x="572.61" y="115.17" width="24.47" height="4.67"/><rect class="cls-8" x="572.61" y="110.5" width="24.47" height="4.67"/><rect class="cls-8" x="572.61" y="105.83" width="24.47" height="4.67"/><polygon class="cls-7" points="572.17 140.61 597.08 152.74 597 154.14 571.61 141.69 572.17 140.61"/><polygon class="cls-12" points="559.67 172.5 560.94 173.03 556.59 182.16 625.91 216.34 625.47 217.25 555.04 182.67 559.67 172.5"/><polygon class="cls-6" points="450.77 195.19 476.06 143.97 520.94 165.86 488.5 234.75 442.61 212.75 450.77 195.19"/><polyline class="cls-14" points="451.71 194.05 476.06 143.97 520.94 165.86 488.5 234.75 442.61 212.75 443.08 211.78"/><polygon class="cls-12" points="443.83 192.5 437.04 209.5 454.72 216.17 460.83 197.94 443.83 192.5"/><polyline class="cls-15" points="436.69 204.55 460.83 155.89 579.63 212.17 569.7 232.39 542.75 240.83 522.86 246.19 525.28 265 518.99 267.92 428.28 221.5 432.61 212.76"/><polygon class="cls-12" points="416.83 198.28 421.39 216.72 439.72 212.06 435.06 193.5 416.83 198.28"/><path class="cls-7" d="M500.68,219.77l8.93,12.62,19.44-13-8.96-13.02c-1-1.46-3-1.83-4.46-.82l-14.15,9.73c-1.47,1.01-1.83,3.04-.8,4.5Z"/><path class="cls-4" d="M523.03,251.35c-.1,0-.15-.05-.18-.09l-12.55-18.74,18.6-12.44,13.34,20.89-19.36,5.35.6,4.6c0,.09-.02.17-.09.25-.09.1-.24.17-.36.17h0Z"/><path class="cls-7" d="M528.76,220.79l12.7,19.89-18.29,5.06-.84.23.11.86.47,3.64-11.92-17.8,17.76-11.88M529.06,219.39l-19.44,13,12.83,19.15c.15.22.37.31.59.31.49,0,1.01-.43.95-.99l-.54-4.17,19.6-5.42-13.98-21.89h0Z"/><path class="cls-9" d="M601.72,967.28l78.33-77.67s49.22,49,49.22,49.33-78.78,78.78-78.78,78.78l-48.78-50.44Z"/><path class="cls-1" d="M601.72,967.94l78.33-77.67s49.22,49,49.22,49.33-78.78,78.78-78.78,78.78l-48.78-50.44Z"/><rect class="cls-12" x="683.94" y="343.72" width="16.72" height="24.89"/><line class="cls-8" x1="701.5" y1="341" x2="701.5" y2="369.11"/><circle class="cls-10" cx="750.67" cy="330.17" r="17.5"/><rect class="cls-12" x="684.78" y="297.17" width="14.5" height="10.33"/><rect class="cls-12" x="752.94" y="430.5" width="12" height="12"/><rect class="cls-18" x="598.42" y="714.47" width="25.06" height="25.06"/><rect class="cls-18" x="600.33" y="720" width="13.67" height="14.06"/><rect class="cls-18" x="606.44" y="734.06" width="12.72" height="5.47"/><rect class="cls-12" x="631.28" y="768.33" width="3.94" height="3.94"/><polygon class="cls-12" points="678.97 801.83 672.22 801.83 672.22 785.06 679 785.06 678.97 801.83"/><polygon class="cls-12" points="679.01 819.35 664.41 818.09 665.15 809.59 679 810.79 679.01 819.35"/><polyline class="cls-7" points="845.17 469.83 879.83 469.83 919.61 548.83 919.61 646.28 910.94 646.28 910.94 552.94 873.28 478.94 856.39 478.94 845.17 469.83"/></g></svg>