<?xml version="1.0" encoding="UTF-8"?>
<svg id="Layer_1" data-name="Layer 1" xmlns="http://www.w3.org/2000/svg" viewBox="0 0 1023.45 1023.45">
  <defs>
    <style>
      .cls-1 {
        fill: #37485d;
      }

      .cls-1, .cls-2, .cls-3, .cls-4, .cls-5, .cls-6, .cls-7, .cls-8, .cls-9, .cls-10, .cls-11, .cls-12, .cls-13, .cls-14 {
        stroke-miterlimit: 10;
      }

      .cls-1, .cls-2, .cls-3, .cls-4, .cls-5, .cls-7, .cls-8, .cls-9, .cls-11, .cls-12, .cls-13, .cls-14 {
        stroke-width: .75px;
      }

      .cls-1, .cls-3, .cls-5, .cls-7, .cls-8, .cls-9, .cls-10, .cls-11, .cls-12, .cls-13, .cls-14 {
        stroke: #677694;
      }

      .cls-2 {
        stroke: #ffcf5c;
      }

      .cls-2, .cls-4, .cls-6, .cls-8, .cls-13 {
        fill: none;
      }

      .cls-3 {
        fill: #1e2733;
      }

      .cls-4 {
        stroke: #36d0ff;
      }

      .cls-5 {
        fill: #263544;
      }

      .cls-15 {
        fill: #ffcf5c;
      }

      .cls-15, .cls-16, .cls-17 {
        opacity: .15;
      }

      .cls-6 {
        stroke: #dc0023;
      }

      .cls-16 {
        fill: #36d0ff;
      }

      .cls-7 {
        fill: #090a0e;
      }

      .cls-17 {
        fill: #dc0023;
      }

      .cls-8, .cls-18 {
        opacity: .35;
      }

      .cls-9 {
        fill: #9cadc4;
      }

      .cls-10 {
        fill: #090a0e;
        stroke-width: .15px;
      }

      .cls-11 {
        fill: #141e26;
      }

      .cls-12 {
        fill: #090a0e;
      }

      .cls-14 {
        fill: #090a0e;
      }
    </style>
  </defs>
  <rect class="cls-10" x=".08" y=".08" width="1023.3" height="1023.3"/>
  <g id="a_main_and_ladder" data-name="a main and ladder">
    <path class="cls-5" d="M30.06,203.88h59.93v21.04h92.94v-21.04h91.94v9.07h36.99v-12.06h26.93v3.08h-22.94v10.97h1.02v7.98h-1.02v17.05h18.95v-13.96h26.02v-22.12h-10.06v-2.99h14.05v101.92h-15.05v147.07h91.04v1.9h6.89v31.01h-6.89v91.85h6.89v5.98h2.09v3.9h2.99v1.18h19.89v-2.06h84.02v-7.98h13v4.05h28.95v73.87l10.94,22v16.02h106.99v-7.07h2.96v7.07h.97v11.88h-277.7v7.07h-8.07v-1.99h-8.89v1.99h-9.16v-4.99h-62.93v4.08h-7.98v-9.07h1v-36.99h85.96v-54.86h8.25v10.88h60.75v-30.83h-29.02l-.06-3.08h-19.89v2.99h-19.98v-10h-194.01v85.9h40.26v242.64h33.91v9.25h-8.16v33h58.94v-3.26h9.07v3.26h44.97v-3.04h8.02v1.95h8.98v-1.99h8.02v3.08h20.95v2.99h50.96v-3.04h19v-35h85.96v35h212.85v-1.04h32.96v1.04h18v4.99h16v-5.98h13.96v-4.03h6.03v4.03h40.94v-3.99h6.08v3.94h37.9v-36.99h-6.98v-.95h-1.04v-1.95l6.08-12.01h.95v2.99l-2.95,6.98h3.94v-50.01h-3.94l-2.09-1.99v-3.99l2.04-8.93,2.04-2.04h1.95v-15.01h-38.99v-40.98h38.99v-135.87h-15.96v-9.02h15.96v-61.93h-16v-69.95h-29.97v-79.97h5.98v-62.93h-4.03v-2.99h-102.87v-7.03h17.95v-25.93h-31.01v-72.99h15.05v-54h-13.06v-36.95h38.08v-84.92h-22.03v6.03h-7.03v-6.03h-60.93v7.93h-19v-7.93h-66.96v7.98h-18.95v-3.99h-15.01v1.99h-5.98v-1.99h-13.01v8.02h-3.99v7.98h-78.93v-6.98h-8.02v-2.99h-7.98v-19h-103.91l4.94,16v8.98s-2.58,10.02-17.95,10.02v8.98h-7.98v2.99l-90.9,24.75-61.66,10.16h-36.36v-8.89H30.06v60.84Z"/>
    <path class="cls-14" d="M386.83,360.84h-8.95v5.08h73.02v-6.17h-10.16v-1.93h1.09v-6.89h-1.09v-14.14h124.89v22h11.12v-7.98h70.85v8.1h11.12v-36.03h74.84v36.03h8.1v7.01h3.99v6.89h7.86v-7.01h4.11v-4.96h57.06v-33h-7.25v-163.82h-47.88v-25.03h-32.04v25.03h-52.95v-4.11h-1.09v-3.87h-3.75v-3.14l-11.24-26.72h-3.87l-15.84,5.8-2.12,1.99v4.08l9.97,25.84h-17.05l.05,54.04h-61.93l-.02-50.9-84.99.12-.04,8.87v31.01s-47.88-.12-47.88-.12v59.98l-1.04,9.97v5.02h-10.88v18.98h-16.08v35.91s-13.54-5.68-13.18,8.58h-5.68v15.47h-1.09Z"/>
    <rect class="cls-7" x="301.9" y="687.8" width="11.97" height="10.79"/>
    <polygon class="cls-7" points="345.85 736.63 345.85 745.59 347.83 745.59 347.83 747.58 345.85 747.58 345.85 907.46 341.82 907.46 341.82 916.46 363.85 916.46 363.85 918.43 372.81 918.43 372.81 916.46 417.8 916.46 417.8 918.43 426.76 918.43 426.76 917.46 434.78 917.46 434.78 918.43 442.78 918.43 442.78 794.55 446.77 794.55 446.77 785.55 442.76 785.55 442.76 735.59 434.78 735.59 434.78 737.56 425.78 737.56 425.78 735.59 416.81 735.59 416.81 739.56 354.83 739.56 354.83 736.59 345.85 736.59 345.85 736.63"/>
    <polygon class="cls-7" points="657.64 579.78 657.64 646.64 750.49 646.64 750.49 692.58 747.59 692.58 747.59 690.65 749.52 683.63 745.65 683.63 745.65 686.66 743.48 692.58 743.48 701.65 751.57 701.65 751.57 702.7 832.45 702.7 832.45 709.5 856.51 709.5 856.51 702.62 913.45 702.62 913.45 749.43 957.56 749.43 957.56 573.67 752.59 573.67 752.59 569.71 751.51 569.71 751.51 560.77 749.58 560.77 749.58 506.72 770.76 506.72 770.76 485.7 745.5 485.7 745.5 569.71 740.51 569.71 740.51 578.78 743.65 578.78 743.65 612.63 698.66 612.63 698.66 579.6 657.64 579.6 657.64 579.78"/>
    <polygon class="cls-7" points="745.59 381.81 749.55 381.84 749.55 427.8 770.57 427.8 770.57 448.8 745.59 448.79 745.59 381.81"/>
    <polygon class="cls-7" points="808.52 426.83 808.52 448.77 800.53 451.81 800.53 481.77 808.52 484.77 808.52 506.71 915.48 506.71 915.48 426.83 808.52 426.83"/>
    <polygon class="cls-7" points="832.49 738.58 858.51 738.58 858.51 744.57 886.47 744.57 886.47 751.53 858.51 751.53 858.51 787.52 865.44 787.52 865.44 866.5 858.46 866.5 858.46 906.45 973.42 906.45 973.42 905.44 969.46 899.46 969.46 896.46 971.4 896.46 971.4 898.43 976.41 908.47 977.41 908.47 977.41 910.43 975.38 910.43 975.38 911.46 966.43 911.46 966.43 915.41 960.42 915.41 960.42 911.45 919.43 911.45 919.43 915.41 913.45 915.41 913.45 911.43 858.47 911.43 858.47 913.43 832.49 913.43 832.49 738.58"/>
    <circle class="cls-7" cx="874.86" cy="885.24" r="2.38"/>
    <rect class="cls-7" x="268.85" y="608.69" width="139.95" height="21.94"/>
    <line class="cls-13" x1="717.61" y1="949.44" x2="717.61" y2="930.45"/>
    <line class="cls-13" x1="721.88" y1="949.44" x2="721.88" y2="930.45"/>
    <line class="cls-13" x1="725.61" y1="949.44" x2="725.61" y2="930.45"/>
    <line class="cls-13" x1="729.57" y1="949.44" x2="729.57" y2="930.45"/>
    <line class="cls-13" x1="732.27" y1="949.44" x2="732.27" y2="930.45"/>
    <line class="cls-13" x1="732.31" y1="930.45" x2="717.61" y2="930.45"/>
    <line class="cls-13" x1="476.7" y1="904.57" x2="816.55" y2="904.57"/>
    <line class="cls-13" x1="816.55" y1="847.46" x2="816.55" y2="904.57"/>
    <line class="cls-13" x1="784.73" y1="890.65" x2="784.73" y2="904.79"/>
    <line class="cls-13" x1="442.63" y1="748.66" x2="498.6" y2="748.66"/>
    <line class="cls-13" x1="761.47" y1="749.43" x2="816.55" y2="749.43"/>
    <line class="cls-13" x1="816.55" y1="808.32" x2="816.55" y2="749.43"/>
    <line class="cls-13" x1="784.8" y1="749.43" x2="784.8" y2="761.06"/>
    <line class="cls-13" x1="816.55" y1="752.94" x2="784.8" y2="752.94"/>
    <line class="cls-13" x1="816.55" y1="757.08" x2="784.8" y2="757.08"/>
    <line class="cls-13" x1="816.55" y1="761.21" x2="784.8" y2="761.21"/>
    <line class="cls-13" x1="816.55" y1="890.43" x2="784.8" y2="890.43"/>
    <line class="cls-13" x1="816.55" y1="894.57" x2="784.8" y2="894.57"/>
    <line class="cls-13" x1="816.55" y1="898.7" x2="784.8" y2="898.7"/>
    <line class="cls-13" x1="816.55" y1="808.32" x2="832.5" y2="808.32"/>
    <line class="cls-13" x1="816.55" y1="805.22" x2="832.5" y2="805.22"/>
    <line class="cls-13" x1="816.55" y1="802.12" x2="832.5" y2="802.12"/>
    <line class="cls-13" x1="816.55" y1="799.02" x2="832.5" y2="799.02"/>
    <line class="cls-13" x1="816.55" y1="795.92" x2="832.5" y2="795.92"/>
    <line class="cls-13" x1="816.55" y1="859.86" x2="832.5" y2="859.86"/>
    <line class="cls-13" x1="816.55" y1="856.76" x2="832.5" y2="856.76"/>
    <line class="cls-13" x1="816.55" y1="853.66" x2="832.5" y2="853.66"/>
    <line class="cls-13" x1="816.55" y1="850.56" x2="832.5" y2="850.56"/>
    <line class="cls-13" x1="816.55" y1="847.46" x2="832.5" y2="847.46"/>
    <rect class="cls-1" x="840.02" y="818.33" width="66.9" height="16.16" transform="translate(1699.88 -47.06) rotate(90)"/>
    <line class="cls-13" x1="957.56" y1="742.31" x2="1004.24" y2="742.31"/>
    <line class="cls-13" x1="957.56" y1="737.29" x2="1004.24" y2="737.29"/>
    <line class="cls-13" x1="957.56" y1="732.27" x2="1004.24" y2="732.27"/>
    <rect class="cls-17" x="595.89" y="516.78" width="131.44" height="41.81" rx="6.64" ry="6.64"/>
    <rect class="cls-6" x="595.89" y="516.78" width="131.44" height="41.81" rx="6.64" ry="6.64"/>
    <rect class="cls-17" x="491.66" y="806.11" width="131.44" height="41.81" rx="6.64" ry="6.64"/>
    <rect class="cls-6" x="491.66" y="806.11" width="131.44" height="41.81" rx="6.64" ry="6.64"/>
    <line class="cls-13" x1="957.56" y1="727.25" x2="1004.24" y2="727.25"/>
    <line class="cls-13" x1="957.56" y1="702.7" x2="1004.24" y2="702.7"/>
    <line class="cls-13" x1="957.56" y1="697.68" x2="1004.24" y2="697.68"/>
    <line class="cls-13" x1="957.56" y1="692.66" x2="1004.24" y2="692.66"/>
    <line class="cls-13" x1="957.56" y1="687.63" x2="1004.24" y2="687.63"/>
    <line class="cls-13" x1="957.56" y1="620.03" x2="985.21" y2="620.03"/>
    <line class="cls-13" x1="957.56" y1="615.01" x2="985.21" y2="615.01"/>
    <line class="cls-13" x1="957.56" y1="609.99" x2="985.21" y2="609.99"/>
    <line class="cls-13" x1="957.56" y1="604.97" x2="985.21" y2="604.97"/>
    <rect class="cls-9" x="795.58" y="372.32" width="16.98" height="16.98"/>
    <rect class="cls-9" x="779.93" y="361.29" width="16.98" height="16.98"/>
    <path class="cls-1" d="M647.68,381.84h97.91v27.3h-97.91c-1.18,0-2.14-.96-2.14-2.14v-23.01c0-1.18.96-2.14,2.14-2.14Z"/>
    <path class="cls-1" d="M751.65,381.84h.42v27.3h-.42c-1.18,0-2.14-.96-2.14-2.14v-23.01c0-1.18.96-2.14,2.14-2.14Z" transform="translate(1501.58 790.99) rotate(-180)"/>
    <rect class="cls-1" x="599.73" y="520.37" width="123.76" height="34.64" rx="2.14" ry="2.14"/>
    <rect class="cls-1" x="496.68" y="747.85" width="99.24" height="33.64" rx="6.71" ry="6.71"/>
    <rect class="cls-1" x="647.91" y="747.85" width="115.19" height="31.03" rx="6.71" ry="6.71"/>
    <rect class="cls-1" x="493.14" y="810.19" width="127.59" height="33.64" rx="1.64" ry="1.64"/>
    <rect class="cls-1" x="481.74" y="434.05" width="115.09" height="28.78" rx="2.14" ry="2.14" transform="translate(-99.15 158.05) rotate(-15.29)"/>
    <rect class="cls-9" x="650.56" y="521.74" width="21.56" height="31.9" rx="3.63" ry="3.63"/>
    <polygon class="cls-1" points="594.62 755.25 586.06 755.25 586.06 748.94 557.7 748.94 557.7 755.25 497.6 755.25 497.6 773.62 557.7 773.62 557.7 779.92 586.06 779.92 586.06 773.62 594.62 773.62 594.62 755.25"/>
    <polygon class="cls-1" points="535.37 811.72 538.03 806.11 576.13 806.11 578.49 811.72 535.37 811.72"/>
    <polygon class="cls-1" points="578.49 842.3 575.83 847.91 537.73 847.91 535.37 842.3 578.49 842.3"/>
    <rect class="cls-1" x="500.52" y="809.51" width="114.6" height="35"/>
    <circle class="cls-9" cx="541.06" cy="834.83" r="3.32"/>
    <rect class="cls-9" x="568.01" y="828.45" width="6.79" height="12.77" transform="translate(493.97 -173.86) rotate(30)"/>
    <circle class="cls-1" cx="556.49" cy="826.63" r="14.92"/>
    <path class="cls-1" d="M763.25,756.05c-2.56-4.56-7.44-7.64-13.04-7.64s-10.48,3.08-13.04,7.64h-2.8c-2.56-4.56-7.44-7.64-13.04-7.64s-10.48,3.08-13.04,7.64h-4.32c-2.56-4.56-7.44-7.64-13.04-7.64s-10.48,3.08-13.04,7.64h-1.2c-2.56-4.56-7.44-7.64-13.04-7.64s-10.48,3.08-13.04,7.64h-4v15.65h4.63c2.69,3.99,7.24,6.61,12.41,6.61s9.72-2.62,12.41-6.61h2.46c2.69,3.99,7.24,6.61,12.41,6.61s9.72-2.62,12.41-6.61h5.58c2.69,3.99,7.24,6.61,12.41,6.61s9.72-2.62,12.41-6.61h4.05c2.69,3.99,7.24,6.61,12.41,6.61s9.72-2.62,12.41-6.61h2.54v-15.65h-1.92Z"/>
    <rect class="cls-1" x="569.74" y="876.01" width="115.89" height="28.78"/>
    <rect class="cls-1" x="572.86" y="877.74" width="110.19" height="25.32" rx="5.68" ry="5.68"/>
    <polygon class="cls-1" points="685.63 883.54 638.89 883.54 638.89 878.47 615.12 878.47 615.12 883.54 569.74 883.54 569.74 896.59 615.12 896.59 615.12 902.25 638.89 902.25 638.89 896.59 685.63 896.59 685.63 883.54"/>
    <line class="cls-13" x1="684.68" y1="703.49" x2="684.68" y2="723.47"/>
    <line class="cls-13" x1="680.69" y1="703.49" x2="680.69" y2="723.47"/>
    <line class="cls-13" x1="676.55" y1="703.49" x2="676.55" y2="723.47"/>
    <line class="cls-13" x1="672.42" y1="703.49" x2="672.42" y2="723.47"/>
    <line class="cls-13" x1="759.73" y1="701.59" x2="759.73" y2="725.61"/>
    <line class="cls-13" x1="755.75" y1="701.59" x2="755.75" y2="725.61"/>
    <line class="cls-13" x1="751.61" y1="701.59" x2="751.61" y2="725.61"/>
    <line class="cls-13" x1="747.48" y1="701.59" x2="747.48" y2="725.61"/>
    <line class="cls-13" x1="668.28" y1="703.49" x2="668.28" y2="723.47"/>
    <line class="cls-13" x1="664.3" y1="703.49" x2="664.3" y2="723.47"/>
    <line class="cls-13" x1="660.16" y1="703.49" x2="660.16" y2="723.47"/>
    <line class="cls-13" x1="656.32" y1="703.49" x2="656.32" y2="723.47"/>
    <line class="cls-13" x1="656.8" y1="723.47" x2="716.58" y2="723.47"/>
    <line class="cls-13" x1="747.48" y1="725.61" x2="779.63" y2="725.61"/>
    <line class="cls-13" x1="716.58" y1="723.47" x2="716.58" y2="747.85"/>
    <line class="cls-13" x1="747.48" y1="725.61" x2="747.48" y2="747.85"/>
    <line class="cls-13" x1="720.58" y1="691.6" x2="743.97" y2="691.6"/>
    <line class="cls-13" x1="720.58" y1="694.09" x2="743.48" y2="694.09"/>
    <line class="cls-13" x1="720.58" y1="696.58" x2="743.48" y2="696.58"/>
    <line class="cls-13" x1="720.58" y1="699.07" x2="743.48" y2="699.07"/>
    <line class="cls-13" x1="720.58" y1="701.57" x2="743.48" y2="701.57"/>
    <circle class="cls-9" cx="48.47" cy="146.27" r="2.36"/>
    <circle class="cls-9" cx="42.26" cy="198.99" r="4.48"/>
    <circle class="cls-9" cx="79.48" cy="146.27" r="2.36"/>
    <circle class="cls-9" cx="110.79" cy="146.27" r="2.36"/>
    <circle class="cls-9" cx="142.24" cy="146.27" r="2.36"/>
    <circle class="cls-9" cx="173.55" cy="146.27" r="2.36"/>
    <circle class="cls-9" cx="205.01" cy="146.27" r="2.36"/>
    <circle class="cls-9" cx="240.03" cy="146.27" r="2.36"/>
    <rect class="cls-9" x="48.47" y="195.89" width="5.32" height="6.94"/>
    <rect class="cls-9" x="55.41" y="195.89" width="5.32" height="6.94"/>
    <rect class="cls-9" x="63.09" y="195.89" width="5.32" height="6.94"/>
    <rect class="cls-9" x="70.62" y="195.89" width="5.32" height="6.94"/>
    <rect class="cls-9" x="78.59" y="195.89" width="5.32" height="6.94"/>
    <rect class="cls-9" x="91" y="207.85" width="9.01" height="14.33"/>
    <rect class="cls-9" x="188.32" y="195.89" width="5.32" height="6.94"/>
    <rect class="cls-9" x="195.85" y="195.89" width="5.32" height="6.94"/>
    <rect class="cls-9" x="203.24" y="195.89" width="5.32" height="6.94"/>
    <rect class="cls-9" x="211.21" y="195.89" width="5.32" height="6.94"/>
    <rect class="cls-9" x="218.89" y="195.89" width="5.32" height="6.94"/>
    <circle class="cls-9" cx="320.03" cy="237.26" r="4.18"/>
    <circle class="cls-9" cx="330.37" cy="237.26" r="3.31"/>
    <rect class="cls-9" x="474.53" y="558.89" width="21.41" height="24.66"/>
    <circle class="cls-9" cx="721.88" cy="916.61" r="4.43"/>
    <circle class="cls-9" cx="721.88" cy="925.62" r="4.43"/>
    <rect class="cls-9" x="717.31" y="739.8" width="8.05" height="8.05"/>
    <rect class="cls-9" x="769.59" y="726.65" width="10.04" height="15.65"/>
    <rect class="cls-9" x="750.34" y="731.2" width="17.2" height="17.2" transform="translate(77.32 -71.79) rotate(5.71)"/>
    <rect class="cls-9" x="705.06" y="679.84" width="11.52" height="11.52"/>
    <circle class="cls-9" cx="784.07" cy="707.14" r="4.44"/>
    <circle class="cls-9" cx="792.95" cy="707.14" r="4.44"/>
    <circle class="cls-9" cx="784.07" cy="716.01" r="4.44"/>
    <circle class="cls-9" cx="792.95" cy="716.01" r="4.44"/>
    <circle class="cls-9" cx="650.19" cy="686.92" r="4.44"/>
    <rect class="cls-9" x="598.73" y="596.7" width="15.65" height="16.75"/>
    <rect class="cls-9" x="518.98" y="500.26" width="7.53" height="18.9"/>
    <circle class="cls-9" cx="524.07" cy="354.57" r="4.21"/>
    <circle class="cls-9" cx="524.07" cy="362.99" r="4.21"/>
    <rect class="cls-9" x="504.8" y="350.36" width="15.65" height="15.65"/>
    <rect class="cls-9" x="991.26" y="647.68" width="12.98" height="7.24"/>
    <polygon class="cls-9" points="988.75 616.48 988.75 600.83 985.21 600.83 985.21 616.48 985.21 620.03 988.75 620.03 1004.55 620.03 1004.55 616.48 988.75 616.48"/>
    <rect class="cls-9" x="719.53" y="144.64" width="7.97" height="13.14"/>
    <rect class="cls-9" x="761.82" y="141.9" width="11.23" height="18.69" transform="translate(-13.65 109.61) rotate(-8.1)"/>
    <rect class="cls-9" x="461.38" y="163.55" width="21.41" height="12.85"/>
    <rect class="cls-9" x="447.8" y="175.66" width="35" height="31.01"/>
    <rect class="cls-9" x="315.77" y="240.93" width="18.46" height="2.07"/>
    <polygon class="cls-9" points="431.93 365.8 431.93 426.77 433.78 426.77 441.87 365.8 431.93 365.8"/>
    <rect class="cls-1" x="440.85" y="336.48" width="124.94" height="14.18"/>
    <rect class="cls-1" x="567.71" y="204.92" width="62" height="12.95"/>
    <rect class="cls-1" x="609.51" y="677.19" width="35.74" height="14.18"/>
    <line class="cls-13" x1="780.74" y1="755.25" x2="770.99" y2="755.25"/>
    <line class="cls-13" x1="780.74" y1="773.84" x2="770.99" y2="773.84"/>
    <line class="cls-13" x1="770.99" y1="755.25" x2="770.99" y2="773.84"/>
    <line class="cls-13" x1="780.74" y1="817.72" x2="770.99" y2="817.72"/>
    <line class="cls-13" x1="780.74" y1="836.31" x2="770.99" y2="836.31"/>
    <line class="cls-13" x1="770.99" y1="817.72" x2="770.99" y2="836.31"/>
    <line class="cls-13" x1="780.74" y1="879.18" x2="770.99" y2="879.18"/>
    <line class="cls-13" x1="780.74" y1="897.77" x2="770.99" y2="897.77"/>
    <line class="cls-13" x1="770.99" y1="879.18" x2="770.99" y2="897.77"/>
  </g>
  <g id="upper" class="cls-18">
    <polygon class="cls-3" points="338.8 203.97 315.93 203.97 315.93 214.92 316.83 214.92 316.83 222.96 315.86 222.96 315.86 575.67 318.89 575.67 318.89 584.68 314.9 584.68 314.9 623.67 320.82 623.67 320.82 630.68 268.9 630.68 268.9 608.62 268.9 608.62 268.9 578.7 238.79 578.7 238.79 664.59 279.05 664.59 279.05 907.23 312.96 907.23 312.96 916.57 304.8 916.48 304.8 949.49 363.74 949.49 363.74 946.22 372.81 946.22 372.81 949.49 417.78 949.49 417.78 946.4 425.81 946.45 425.81 948.4 434.77 948.46 434.77 946.4 442.81 946.4 442.81 949.49 463.75 949.49 463.78 952.45 514.68 952.45 514.71 949.44 533.71 949.44 533.72 916.42 472.73 916.42 474.72 904.39 476.7 904.57 476.62 875.44 442.81 875.44 442.81 918.48 434.77 918.48 434.77 917.45 426.76 917.46 426.76 918.43 417.78 918.48 417.8 916.46 372.81 916.46 372.87 918.48 363.85 918.43 363.85 916.46 341.82 916.46 341.8 907.48 345.85 907.46 345.85 747.58 347.83 747.58 347.78 745.59 345.85 745.59 345.85 736.59 354.83 736.59 354.83 739.56 416.81 739.56 416.81 735.59 425.78 735.59 425.78 737.56 434.78 737.56 434.77 735.56 442.81 735.56 442.81 710.65 434.77 710.65 434.77 708.6 425.85 708.57 425.85 710.56 416.69 710.56 416.69 705.58 353.89 705.64 353.89 709.63 345.79 709.66 345.79 700.59 346.81 700.59 346.81 663.63 432.77 663.63 432.77 433.86 427.82 433.86 427.82 426.73 430.84 426.73 430.84 411.74 431.93 411.74 431.93 365.8 426.73 365.8 426.73 358.78 432.77 358.78 432.77 323.84 426.73 323.84 426.73 307.89 432.77 307.89 432.77 294.95 426.85 294.95 426.85 277.9 432.77 277.9 432.77 276.9 343.91 276.9 343.91 267.75 360.84 267.75 360.84 203.91 350.8 203.91 338.8 203.97"/>
    <g id="Layer_4" data-name="Layer 4">
      <polygon class="cls-12" points="342.82 357.09 342.82 547.75 356.85 547.75 356.85 536.62 368.82 536.62 368.82 451.87 356.85 451.87 356.85 433.86 404.85 433.86 404.85 425.88 392.76 425.88 392.76 365.8 396.87 365.8 396.87 357.09 342.82 357.09"/>
      <polygon class="cls-12" points="301.9 687.8 301.84 698.56 313.87 698.56 313.87 687.8 301.9 687.8"/>
      <rect class="cls-12" x="390.85" y="512.81" width="11.97" height="23.85"/>
      <rect class="cls-12" x="390.85" y="452.87" width="11.97" height="23.94"/>
      <polygon class="cls-12" points="745.59 381.81 745.59 448.79 770.62 448.79 770.62 427.82 749.52 427.82 749.52 381.81 745.59 381.81"/>
      <polygon class="cls-12" points="808.52 426.85 808.52 448.73 800.54 451.75 800.54 481.74 808.52 484.82 808.52 506.76 915.51 506.76 915.51 426.85 808.52 426.85"/>
      <polygon class="cls-12" points="338.8 578.73 379.79 578.73 379.79 573.65 379.79 578.73 338.8 578.73"/>
    </g>
    <polygon class="cls-12" points="336.81 630.68 336.81 623.61 340.8 623.61 340.8 608.69 379.79 608.69 408.8 608.69 408.8 630.68 336.81 630.68"/>
    <polygon class="cls-12" points="337.81 578.73 337.81 576.64 343.79 576.64 343.79 573.65 379.79 573.65 379.79 578.7 337.81 578.73"/>
    <polygon class="cls-11" points="685.63 949.44 732.42 949.44 732.31 930.45 717.18 930.45 717.18 912.74 685.63 912.74 685.63 949.44"/>
    <rect class="cls-11" x="619.66" y="916.61" width="65.96" height="32.83"/>
    <line class="cls-8" x1="334.82" y1="229.58" x2="360.84" y2="229.58"/>
    <line class="cls-8" x1="334.82" y1="233.42" x2="360.84" y2="233.42"/>
    <line class="cls-8" x1="334.82" y1="237.26" x2="360.84" y2="237.26"/>
    <line class="cls-8" x1="332.66" y1="241.1" x2="360.84" y2="241.1"/>
    <line class="cls-8" x1="315.86" y1="276.67" x2="343.95" y2="276.67"/>
    <line class="cls-8" x1="315.86" y1="280.51" x2="343.95" y2="280.51"/>
    <line class="cls-8" x1="315.86" y1="284.35" x2="343.95" y2="284.35"/>
    <line class="cls-8" x1="315.77" y1="288.19" x2="343.95" y2="288.19"/>
    <line class="cls-8" x1="315.86" y1="292.03" x2="343.95" y2="292.03"/>
    <line class="cls-8" x1="315.86" y1="295.87" x2="343.95" y2="295.87"/>
    <line class="cls-8" x1="315.86" y1="299.71" x2="343.95" y2="299.71"/>
    <line class="cls-8" x1="315.77" y1="303.55" x2="343.95" y2="303.55"/>
    <line class="cls-8" x1="315.86" y1="307.39" x2="343.95" y2="307.39"/>
    <line class="cls-8" x1="315.86" y1="311.23" x2="343.95" y2="311.23"/>
    <line class="cls-8" x1="315.86" y1="315.07" x2="343.95" y2="315.07"/>
    <line class="cls-8" x1="315.77" y1="318.91" x2="343.95" y2="318.91"/>
    <line class="cls-8" x1="315.86" y1="322.75" x2="343.95" y2="322.75"/>
    <line class="cls-8" x1="315.77" y1="326.59" x2="343.95" y2="326.59"/>
    <line class="cls-8" x1="315.77" y1="330.43" x2="343.98" y2="330.43"/>
    <line class="cls-8" x1="343.98" y1="326.88" x2="343.98" y2="330.43"/>
    <line class="cls-13" x1="269.99" y1="578.7" x2="269.99" y2="608.36"/>
    <line class="cls-13" x1="274.86" y1="578.7" x2="274.86" y2="608.36"/>
    <line class="cls-13" x1="279.74" y1="578.7" x2="279.74" y2="608.36"/>
    <line class="cls-13" x1="284.31" y1="578.7" x2="284.31" y2="608.36"/>
    <line class="cls-13" x1="289.04" y1="578.7" x2="289.04" y2="608.36"/>
    <line class="cls-13" x1="293.91" y1="578.7" x2="293.91" y2="608.36"/>
    <line class="cls-13" x1="299.52" y1="578.7" x2="299.52" y2="608.36"/>
    <line class="cls-13" x1="304.69" y1="578.7" x2="304.69" y2="608.36"/>
    <line class="cls-13" x1="268.9" y1="610.13" x2="238.79" y2="610.13"/>
    <line class="cls-13" x1="268.9" y1="613.97" x2="238.79" y2="613.97"/>
    <line class="cls-13" x1="268.9" y1="617.81" x2="238.79" y2="617.81"/>
    <line class="cls-13" x1="268.9" y1="621.65" x2="238.79" y2="621.65"/>
    <line class="cls-13" x1="268.9" y1="625.49" x2="238.79" y2="625.49"/>
    <line class="cls-13" x1="268.9" y1="629.33" x2="238.79" y2="629.33"/>
    <line class="cls-13" x1="408.8" y1="629.33" x2="432.74" y2="629.33"/>
    <line class="cls-13" x1="408.8" y1="625.49" x2="432.74" y2="625.49"/>
    <line class="cls-13" x1="408.8" y1="621.65" x2="432.74" y2="621.65"/>
    <line class="cls-13" x1="408.8" y1="617.81" x2="432.74" y2="617.81"/>
    <line class="cls-13" x1="408.8" y1="613.97" x2="432.74" y2="613.97"/>
    <line class="cls-13" x1="408.8" y1="610.13" x2="432.74" y2="610.13"/>
    <line class="cls-13" x1="387.24" y1="630.68" x2="387.24" y2="663.63"/>
    <line class="cls-13" x1="391.08" y1="630.68" x2="391.08" y2="663.63"/>
    <line class="cls-13" x1="394.92" y1="630.68" x2="394.92" y2="663.63"/>
    <line class="cls-13" x1="398.76" y1="630.68" x2="398.76" y2="663.63"/>
    <line class="cls-13" x1="402.6" y1="630.68" x2="402.6" y2="663.63"/>
    <line class="cls-13" x1="406.43" y1="630.68" x2="406.43" y2="663.63"/>
    <line class="cls-13" x1="347" y1="665.51" x2="310.01" y2="665.51"/>
    <line class="cls-13" x1="347" y1="671.72" x2="310.01" y2="671.72"/>
    <line class="cls-13" x1="347" y1="677.92" x2="310.01" y2="677.92"/>
    <line class="cls-13" x1="347" y1="684.12" x2="310.01" y2="684.12"/>
    <line class="cls-13" x1="310.01" y1="665.51" x2="310.01" y2="687.8"/>
    <line class="cls-13" x1="301.84" y1="698.56" x2="301.84" y2="722.67"/>
    <line class="cls-13" x1="301.84" y1="883.05" x2="301.84" y2="907.15"/>
    <line class="cls-13" x1="424.98" y1="918.43" x2="424.98" y2="946.45"/>
    <line class="cls-13" x1="428.74" y1="917.45" x2="428.74" y2="948.4"/>
    <line class="cls-13" x1="432.29" y1="917.45" x2="432.29" y2="948.44"/>
    <line class="cls-13" x1="436.13" y1="918.38" x2="436.13" y2="946.45"/>
    <line class="cls-13" x1="349.77" y1="709.71" x2="349.77" y2="736.51"/>
    <line class="cls-13" x1="356.31" y1="705.72" x2="356.31" y2="739.39"/>
    <line class="cls-13" x1="414.35" y1="705.72" x2="414.35" y2="739.39"/>
    <line class="cls-13" x1="359.22" y1="705.72" x2="359.22" y2="739.39"/>
    <line class="cls-13" x1="362.07" y1="705.72" x2="362.07" y2="739.39"/>
    <line class="cls-13" x1="364.84" y1="705.72" x2="364.84" y2="739.39"/>
    <line class="cls-13" x1="367.61" y1="705.72" x2="367.61" y2="739.39"/>
    <line class="cls-13" x1="370.6" y1="705.72" x2="370.6" y2="739.39"/>
    <line class="cls-13" x1="373.36" y1="705.72" x2="373.36" y2="739.39"/>
    <line class="cls-13" x1="376.13" y1="705.72" x2="376.13" y2="739.39"/>
    <line class="cls-13" x1="379.12" y1="705.72" x2="379.12" y2="739.39"/>
    <line class="cls-13" x1="381.89" y1="705.72" x2="381.89" y2="739.39"/>
    <line class="cls-13" x1="384.88" y1="705.72" x2="384.88" y2="739.39"/>
    <line class="cls-13" x1="387.76" y1="705.72" x2="387.76" y2="739.39"/>
    <line class="cls-13" x1="390.75" y1="705.72" x2="390.75" y2="739.39"/>
    <line class="cls-13" x1="393.52" y1="705.72" x2="393.52" y2="739.39"/>
    <line class="cls-13" x1="396.74" y1="705.72" x2="396.74" y2="739.39"/>
    <line class="cls-13" x1="399.5" y1="705.72" x2="399.5" y2="739.39"/>
    <line class="cls-13" x1="402.61" y1="705.72" x2="402.61" y2="739.39"/>
    <line class="cls-13" x1="405.71" y1="705.72" x2="405.71" y2="739.39"/>
    <line class="cls-13" x1="408.7" y1="705.72" x2="408.7" y2="739.39"/>
    <line class="cls-13" x1="411.52" y1="705.72" x2="411.52" y2="739.39"/>
    <line class="cls-13" x1="353.04" y1="709.66" x2="353.04" y2="736.59"/>
    <circle class="cls-9" cx="352.22" cy="281.32" r="3.31"/>
    <circle class="cls-9" cx="352.22" cy="289.37" r="3.31"/>
    <circle class="cls-9" cx="396.23" cy="406.48" r="3.31"/>
    <circle class="cls-9" cx="359.31" cy="435.95" r="2.34"/>
    <rect class="cls-9" x="392.86" y="410.77" width="6.65" height="14.62"/>
    <rect class="cls-9" x="391.09" y="476.63" width="11.52" height="36.03"/>
    <rect class="cls-9" x="302.03" y="722.67" width="2.07" height="160.38"/>
    <rect class="cls-9" x="308.24" y="786.61" width="9.6" height="9.6" transform="translate(90.78 -30.13) rotate(6.44)"/>
    <polygon class="cls-9" points="349.88 321.42 349.88 276.67 343.98 276.67 343.98 321.42 343.98 326.88 349.88 326.88 364.95 326.88 364.95 321.42 349.88 321.42"/>
  </g>
  <rect class="cls-4" x="886.19" y="792.96" width="71.38" height="66.9"/>
  <rect class="cls-16" x="886.19" y="792.96" width="71.38" height="66.9"/>
  <rect class="cls-15" x="37.78" y="151.36" width="73.01" height="40.76"/>
  <rect class="cls-2" x="37.78" y="151.36" width="73.01" height="40.76"/>
</svg>