<?xml version="1.0" encoding="UTF-8"?><svg id="Layer_2" xmlns="http://www.w3.org/2000/svg" xmlns:xlink="http://www.w3.org/1999/xlink" viewBox="0 0 1024 1024"><defs><style>.cls-1{fill:#ffcf5c;}.cls-1,.cls-2,.cls-3,.cls-4,.cls-5,.cls-6,.cls-7{stroke-width:0px;}.cls-1,.cls-4,.cls-5{opacity:.15;}.cls-8,.cls-9,.cls-10,.cls-11,.cls-12,.cls-13,.cls-14,.cls-15,.cls-16,.cls-17,.cls-18,.cls-19,.cls-20,.cls-21,.cls-22,.cls-23,.cls-24,.cls-25,.cls-26,.cls-27,.cls-28,.cls-29,.cls-30{stroke-miterlimit:10;}.cls-8,.cls-9,.cls-10,.cls-11,.cls-12,.cls-13,.cls-14,.cls-15,.cls-16,.cls-18,.cls-20,.cls-21,.cls-22,.cls-23,.cls-25,.cls-26,.cls-27,.cls-28,.cls-29,.cls-30{stroke-width:.75px;}.cls-8,.cls-9,.cls-10,.cls-13,.cls-15,.cls-17,.cls-18,.cls-19,.cls-20,.cls-21,.cls-22,.cls-23,.cls-24,.cls-25,.cls-26,.cls-27,.cls-28,.cls-29,.cls-30{fill:none;}.cls-8,.cls-9,.cls-11,.cls-12,.cls-13,.cls-14,.cls-15,.cls-16,.cls-17,.cls-18,.cls-19,.cls-21,.cls-23,.cls-24,.cls-25,.cls-26,.cls-27,.cls-28,.cls-29,.cls-30{stroke:#677693;}.cls-9{stroke-dasharray:0 0 2.09 2.09;}.cls-10{stroke:#ffcf5c;}.cls-11,.cls-3{fill:#080A0D;}.cls-12,.cls-2{fill:#1e2733;}.cls-31{opacity:.2;}.cls-13{stroke-dasharray:0 0 1.93 1.93;}.cls-14{fill:#080a0d;}.cls-15{stroke-dasharray:0 0 2 2;}.cls-16{fill:#9cadc4;}.cls-17{stroke-width:3px;}.cls-18{stroke-dasharray:0 0 1.97 1.97;}.cls-19{stroke-width:2px;}.cls-20{stroke:#36d0ff;}.cls-21{stroke-dasharray:0 0 2.14 2.14;}.cls-22{stroke:#dc0023;}.cls-23{stroke-dasharray:0 0 1.96 1.96;}.cls-32{clip-path:url(#clippath);}.cls-25{stroke-dasharray:0 0 1.9 1.9;}.cls-4,.cls-7{fill:#dc0023;}.cls-5{fill:#36d0ff;}.cls-26{stroke-dasharray:0 0 2.03 2.03;}.cls-6{fill:#677693;}.cls-27{stroke-dasharray:0 0 7.11 7.11;}.cls-28{stroke-dasharray:0 0 2.02 2.02;}.cls-29{stroke-dasharray:0 2;}.cls-30{stroke-dasharray:0 0 1.81 1.81;}</style><clipPath id="clippath"><path class="cls-8" d="M154.05,403.76v40.5h10.75v11.83h-10.67v52.5h10.67v12.31h95v-60.47h13.75v69.08h12.67v16h-80.28v54.92h-4.47v18.75h-47.92v3.08h9.92v12.5h-9.42v53.03h9.78v11.33h-10.44v50.67h10.89v12.22h-11.11v53.33h8v10.44h2.67v-10.44h12.67v11.5h50.67v-12.39h13.11v11.56h52.11v-11h12.33v11.83h51.67v-11.83h10.5v10.5h53.17v-10h11.42v10.17h.92v18h36.11v-35.11h22.65v-113.44h-124.26v-7.61h-10.17v-12h10.5v-7.28h11.39v17.89h43.44v-82.94h8.67v-32.5h-5.67v-6.5h18v6.17h-4.17v25.33h15.83v53h38.78v-36.33h-19.78v-42.03h-10.92v-6.61h10.53v-79.86h48.06v79.67h46v5.83h-29.83l.17,135.33h-7.67v-56.33"/></clipPath></defs><g id="Layer_14"><rect class="cls-3" width="1024" height="1024"/><g class="cls-31"><path class="cls-2" d="M723.46,725.51h-91.08v-83.33h-68.67v103.67h-4.67v-108h73.5v-69.83h-5.58v-4.83h19.17v-40.33h1.69l6.22-32.28-.56-37.89-1.33-7.44h-4.33v-5.33h-46.74v-16.33h-80.26v14.61h-47l-22.28-16.72h-10.61v-22.65h-7.85v-2.88l-18.08,3.75-1.96-10.21h-1.58v10.71h-27.29v38.42h21.96v46.17h-21.58v5.17h-5.33v-5.75h-18.67v69.42h-7.67v10.92h-7.67v-18.5h-4.25v-16.75h12.67v-131.03h-79.92v18.78h-14.89v-22.22l-104.78,8.97v40.5h10.75v11.83h-10.67v52.5h10.67v12.31h95v-60.47h13.75v69.08h12.67v16h-80.28v54.92h-4.47v18.75h-47.92v3.08h9.92v12.5h-9.42v53.03h9.78v11.33h-10.44v50.67h10.89v12.22h-11.11v53.33h8v10.44h2.67v-10.44h12.67v11.5h50.67v-12.39h13.11v11.56h52.11v-11h12.33v11.83h51.67v-11.83h10.5v10.5h53.17v-10h11.42v10.17h.92v18h36.11v-35.11h22.65v-113.44h-124.26v-7.61h-10.17v-12h10.5v-7.28h11.39v17.89h43.44v-82.94h8.67v-32.5h-5.67v-6.5h18v6.17h-4.17v25.33h15.83v53h38.78v-36.33h-19.78v-42.03h-10.92v-6.61h10.53v-79.86h48.06v79.67h46s1.33,5.83,0,5.83h-29.83l.17,135.33h-7.67v-56.33l-29.22,3v56.56h7v40.67h30.67v12.56h-8.44v10.67h-2.89v29.56h2.11v13.22h9.67v11.11h43.61v-11.22h11.94v11.22h52.11v-11.44h12.11v12.61l64.75-1.17v-100.17Z"/><g class="cls-32"><polygon class="cls-10" points="319.38 697.43 319.38 825.18 466.55 825.18 466.55 805.85 489.21 805.85 488.21 697.43 319.38 697.43"/><polygon class="cls-1" points="319.62 697.82 319.62 825.57 466.79 825.57 466.79 806.24 489.46 806.24 488.46 697.82 319.62 697.82"/></g><path class="cls-8" d="M154.05,403.76v40.5h10.75v11.83h-10.67v52.5h10.67v12.31h95v-60.47h13.75v69.08h12.67v16h-80.28v54.92h-4.47v18.75h-47.92v3.08h9.92v12.5h-9.42v53.03h9.78v11.33h-10.44v50.67h10.89v12.22h-11.11v53.33h8v10.44h2.67v-10.44h12.67v11.5h50.67v-12.39h13.11v11.56h52.11v-11h12.33v11.83h51.67v-11.83h10.5v10.5h53.17v-10h11.42v10.17h.92v18h36.11v-35.11h22.65v-113.44h-124.26v-7.61h-10.17v-12h10.5v-7.28h11.39v17.89h43.44v-82.94h8.67v-32.5h-5.67v-6.5h18v6.17h-4.17v25.33h15.83v53h38.78v-36.33h-19.78v-42.03h-10.92v-6.61h10.53v-79.86h48.06v79.67h46v5.83h-29.83l.17,135.33h-7.67v-56.33"/><polyline class="cls-8" points="723.46 725.51 632.38 725.51 632.38 642.18 563.71 642.18 563.71 745.85 559.05 745.85 559.05 637.85 632.55 637.85 632.55 568.01 626.96 568.01 626.96 563.18 646.13 563.18 646.13 522.85 647.82 522.85 654.05 490.57 653.49 452.68 652.16 445.24 647.82 445.24 647.82 439.9 601.09 439.9 601.09 423.57 520.82 423.57 520.82 438.18 473.82 438.18 451.55 421.46 440.94 421.46 440.94 398.81 433.09 398.81 433.09 395.93 415.01 399.68 413.05 389.47 411.46 389.47 411.46 400.18 384.17 400.18 384.17 438.6 406.13 438.6 406.13 484.76 384.55 484.76 384.55 489.93 379.21 489.93 379.21 484.18 360.55 484.18 360.55 553.6 352.88 553.6 352.88 564.51 345.21 564.51 345.21 546.01 340.96 546.01 340.96 529.26 353.63 529.26 353.63 398.24 273.71 398.24 273.71 417.01 258.82 417.01 258.82 394.79"/><polyline class="cls-8" points="500.82 651.35 500.82 707.9 507.82 707.9 507.82 748.57 538.49 748.57 538.49 761.12 530.05 761.12 530.05 771.79 527.16 771.79 527.16 801.35 529.27 801.35 529.27 814.57 538.94 814.57 538.94 825.68 582.55 825.68 582.55 814.46 594.49 814.46 594.49 825.68 646.6 825.68 646.6 814.24 658.71 814.24 658.71 826.85 723.46 825.68"/><polyline class="cls-8" points="723.46 784.56 553.27 784.56 553.27 769.12 560.27 769.12 560.27 745.85"/><rect class="cls-16" x="443.16" y="827.57" width="25.22" height="37.78"/><rect class="cls-16" x="277.38" y="698.24" width="46.67" height="33"/><rect class="cls-16" x="278.13" y="684.51" width="13.92" height="13.92"/><rect class="cls-16" x="380.21" y="679.51" width="33.42" height="6.61"/><rect class="cls-16" x="308.38" y="619.18" width="18.37" height="18.38"/><rect class="cls-16" x="326.76" y="619.18" width="18.37" height="18.38"/><rect class="cls-16" x="345.13" y="619.18" width="11.63" height="3.29"/><rect class="cls-16" x="352.21" y="624.68" width="15" height="3"/><polygon class="cls-14" points="378.94 501.79 384.6 501.79 384.6 550.35 389.05 550.35 389.05 562.68 394.94 562.68 394.94 569.46 378.94 569.46 378.94 632.85 367.21 632.85 367.21 624.68 356.76 624.68 356.76 619.18 290.71 619.18 290.71 600.79 249.94 600.79 249.94 586.79 345.13 586.79 345.13 576.79 353.05 576.79 353.05 583.9 372.6 583.9 372.6 513.79 378.94 513.79 378.94 501.79"/><circle class="cls-14" cx="298.29" cy="512.16" r="3.36"/><rect class="cls-16" x="273.55" y="507.29" width="12.33" height="22.22"/><rect class="cls-16" x="349.44" y="438.24" width="4.19" height="37.83"/><rect class="cls-16" x="408.05" y="443.07" width="6.67" height="36.89"/><rect class="cls-16" x="492.3" y="445.76" width="26" height="6.67"/><rect class="cls-16" x="473.38" y="438.18" width="45.33" height="2.67"/><polygon class="cls-16" points="564.96 443.51 530.3 443.51 531.01 424.93 565.67 424.93 564.96 443.51"/><rect class="cls-16" x="565.3" y="423.57" width="34" height="18.61"/><rect class="cls-16" x="642.55" y="527.76" width="3.58" height="35.42"/><rect class="cls-16" x="473.8" y="479.85" width="45.75" height="4"/><rect class="cls-16" x="547.86" y="503.56" width="27.51" height="27.51" transform="translate(188.09 -148.65) rotate(18.06)"/><rect class="cls-16" x="389.16" y="513.9" width="4.72" height="10.75" transform="translate(57.4 -38.66) rotate(6.1)"/><polygon class="cls-16" points="246.37 430.17 239.49 423.7 250.4 414.33 257.28 420.81 246.37 430.17"/><line class="cls-19" x1="247.48" y1="412.08" x2="259.5" y2="423.22"/><line class="cls-17" x1="242.58" y1="426.6" x2="241.03" y2="428.01"/><line class="cls-8" x1="242.55" y1="394.85" x2="242.55" y2="395.85"/><line class="cls-18" x1="242.55" y1="397.82" x2="242.55" y2="518.92"/><line class="cls-8" x1="242.55" y1="519.9" x2="242.55" y2="520.9"/><line class="cls-29" x1="273.71" y1="417.01" x2="273.55" y2="460.43"/><rect class="cls-24" x="189.05" y="399.18" width="33.11" height="9.17"/><rect class="cls-29" x="225.71" y="399.18" width="33.11" height="9.17"/><rect class="cls-16" x="203.73" y="465.25" width="22.56" height="23.44" transform="translate(48.3 -18.95) rotate(5.68)"/><polygon class="cls-6" points="164.62 507.31 157.71 489.14 175.59 482.47 181.04 497.7 199.15 494.92 202.15 520.25 164.57 520.25 164.62 507.31"/><polyline class="cls-6" points="179.73 476.97 182.32 495.36 201.07 492.99 198.57 474.92 179.52 476.97"/><line class="cls-8" x1="200.21" y1="394.79" x2="200.21" y2="395.79"/><line class="cls-23" x1="200.21" y1="397.75" x2="200.21" y2="491.01"/><polyline class="cls-8" points="200.21 491.99 200.21 492.99 201.21 492.99"/><line class="cls-15" x1="203.21" y1="492.99" x2="226.21" y2="492.99"/><polyline class="cls-8" points="227.21 492.99 228.21 492.99 228.21 491.99"/><line class="cls-13" x1="228.21" y1="490.05" x2="228.21" y2="467.81"/><line class="cls-8" x1="228.21" y1="466.85" x2="228.21" y2="465.85"/><line class="cls-29" x1="166.27" y1="395.35" x2="166.27" y2="505.51"/><line class="cls-17" x1="352.7" y1="433.57" x2="338.95" y2="440.29"/><line class="cls-17" x1="156.05" y1="767.68" x2="156.05" y2="791.35"/><line class="cls-17" x1="156.49" y1="700.12" x2="156.49" y2="748.46"/><line class="cls-17" x1="156.05" y1="636.9" x2="156.05" y2="686.46"/><line class="cls-17" x1="180.66" y1="825.01" x2="210.49" y2="825.01"/><line class="cls-17" x1="241.55" y1="824.35" x2="291.3" y2="824.35"/><line class="cls-17" x1="306.8" y1="825.18" x2="354.88" y2="825.18"/><line class="cls-17" x1="396.92" y1="697.9" x2="410.6" y2="706.51"/><rect class="cls-8" x="617.84" y="701.43" width="14.08" height="14.08"/><polygon class="cls-8" points="553.27 771.51 563.32 769.24 566.82 780.07 553.27 783.85 553.27 771.51"/><line class="cls-17" x1="595.6" y1="822.35" x2="645.38" y2="822.35"/><line class="cls-17" x1="658.82" y1="822.35" x2="710.94" y2="822.35"/><line class="cls-29" x1="567.38" y1="569.35" x2="567.38" y2="637.85"/><line class="cls-29" x1="567.38" y1="641.85" x2="567.38" y2="710.35"/><polyline class="cls-29" points="558.27 607.57 558.27 623.72 566.49 623.72"/><polyline class="cls-29" points="547.05 607.57 547.05 623.01 537.61 623.01"/><polyline class="cls-29" points="548.88 700.9 548.88 734.46 559.05 734.46"/><line class="cls-29" x1="537.71" y1="704.68" x2="537.71" y2="749.12"/><line class="cls-29" x1="537.16" y1="761.12" x2="537.16" y2="784.56"/><rect class="cls-29" x="473.94" y="620.07" width="14.78" height="25.28"/><rect class="cls-16" x="412.21" y="695.12" width="32.33" height="18.06"/><circle class="cls-16" cx="448.01" cy="701.47" r="3.46"/><rect class="cls-16" x="454.46" y="698.64" width="31.08" height="12.58" transform="translate(44.53 -27.74) rotate(3.55)"/><polygon class="cls-16" points="153.16 801.51 178.99 801.51 178.99 826.85 176.49 826.85 176.49 815.35 163.82 815.35 163.82 825.79 161.16 825.79 161.16 815.43 153.16 815.43 153.16 801.51"/><line class="cls-8" x1="360.55" y1="536.43" x2="372.6" y2="536.43"/><line class="cls-8" x1="360.55" y1="532.68" x2="372.6" y2="532.68"/><line class="cls-8" x1="360.55" y1="540.18" x2="372.6" y2="540.18"/><line class="cls-8" x1="360.55" y1="543.93" x2="372.6" y2="543.93"/><line class="cls-8" x1="360.55" y1="547.68" x2="372.6" y2="547.68"/><line class="cls-8" x1="280.8" y1="545.51" x2="280.8" y2="586.79"/><line class="cls-8" x1="275.71" y1="545.51" x2="275.71" y2="586.79"/><line class="cls-8" x1="270.63" y1="545.51" x2="270.63" y2="586.79"/><line class="cls-8" x1="265.55" y1="545.51" x2="265.55" y2="586.79"/><line class="cls-8" x1="260.46" y1="545.51" x2="260.46" y2="586.79"/><line class="cls-8" x1="255.38" y1="545.51" x2="255.38" y2="586.79"/><line class="cls-8" x1="567.38" y1="564.24" x2="567.38" y2="541.8"/><line class="cls-8" x1="626.96" y1="563.74" x2="626.96" y2="541.8"/></g><path class="cls-12" d="M366.88,764.17v51.56h-10.5v11.83h-51.67v-11.83h-12.33v11h-52.11v-11.56h-13.11v12.39h-50.67v-11.5h-12.67v10.44h-2.67v-10.44h-8v-53.33h11.11v-12.22h-10.89v-50.67h10.67s.67-12.67,0-12.67h-10v-51.69h9.42v-12.5h-9.92v-32.03h10.94v-5.44h113.22v-56.61h98.22v5.14h7v-7h11.11v-11.06h-8.19v-6.03h-9.22v6.08h-80.81v-63.53h-17.33v-125.78h123.33v-46.56h-15v35h-108.56v-9h-48.33v20.67h24.89v68.72h-12.56v126.06h-77.47v-12.31h-10.67v-52.5h10.67v-11.83h-10.75v-40.5h-24.44v-228.42l13.56-13.56h227.33v23.11h6.22v44.89h19.67v-46.28h21.33v-37.67h24v17.17h13.33v20.5l1.75,1.75v9.42h10.08v-10h48.17v7.17h11.5v-7.33h54.83v7.33h12.5v-8h7v15.67h28.94v109.5h-5v3.67h2.78v8.78h6.33v56.67h23.22l1.33,1.67,4.11.22.67,1.44h3.67v-3.67h109.67v62.06h17.78v9.61h-19.72v4.39h19.72v18.92h-10.42v11h10.42v53.75h-10v11.92h10v6.33h-10v11.25h9.67v53.58h-9.83v12.17h10.17v53.75h-10.06v11.11h10.06v117.39h-14.22v10.67h-121.44v-11.44h-12.11v11.44h-52.11v-11.22h-12v11.22h-43.56v-11.11h-9.67v-13.22h-2.11v-29.56h2.89v-10.67h8.44v-12.56h-30.67v-40.67h-7v-70.22h6.89v-52.11h12.5v-17.56h143.5v-24.5h9.33v-18.33h-40.83v9.67h-23.83v26.5h-87v-131.83h3.33v-6.83h-148.17v27.5h8.5v-4.17h12v-10.83h73.33v127.67h-2.5v6.83h-13.83l-9,9h-24v6.83h74.17v65.5h-64.83v-39.17h-5.17l-1.33-1.33h-22.5v-25.33h6.83v-7h-85v6.5h6.17v21h37.33v7.33h-9.5v11.67h10v50.83h-10.5v12h10.17v63.83h-10.61v12.11h10.61Z"/><rect class="cls-20" x="516.96" y="191.39" width="112.42" height="113.75"/><rect class="cls-5" x="516.96" y="190.79" width="112.42" height="113.75"/><rect class="cls-22" x="194.38" y="206.06" width="65.89" height="74.67"/><rect class="cls-4" x="194.38" y="206.06" width="65.89" height="74.67"/><rect class="cls-4" x="692.16" y="550.92" width="47.78" height="97.83" transform="translate(1315.88 -116.21) rotate(90)"/><path class="cls-11" d="M450.71,224.72h24.33v6.62l1.9,1.9v107.03h18.99v14s-30.88,0-31.22,0l-14.67-15.44.67-114.11Z"/><polygon class="cls-11" points="555.38 313.06 587.49 313.06 587.49 309.61 598.27 309.61 598.27 314.17 596.16 314.17 596.16 409.83 608.71 409.83 608.71 430.61 576.16 430.61 576.16 456.72 580.94 456.72 580.94 462.17 569.49 462.17 569.49 423.83 586.49 423.83 586.49 354.83 538.94 354.83 538.94 340.39 555.05 340.39 555.38 313.06"/><polygon class="cls-11" points="530.05 619.72 537.88 619.72 537.88 638.56 631.71 638.56 631.71 633.06 690.55 633.06 690.55 639.72 683.05 645.22 683.05 688.22 691.55 694.06 691.55 699.06 632.55 699.06 632.55 642.89 563.71 642.89 563.71 746.56 559.05 746.56 559.05 642.39 537.71 642.39 537.71 706.06 530.05 706.06 530.05 619.72"/><polygon class="cls-11" points="591.63 456.81 591.63 462.17 607.46 462.17 607.46 466.06 631.71 466.06 631.71 474.22 674.55 474.22 674.55 454.39 744.71 454.39 744.71 449.72 681.88 449.72 681.88 437.72 666.38 424.06 666.38 403.56 663.21 403.56 663.21 405.39 657.99 405.39 657.99 410.22 644.77 410.22 644.77 450.67 608.05 450.67 608.05 456.83 591.63 456.81"/><circle class="cls-11" cx="667.13" cy="548.06" r="3.42"/><circle class="cls-11" cx="703.73" cy="481.68" r="3.42"/><circle class="cls-11" cx="299.02" cy="512.71" r="3.19"/><circle class="cls-11" cx="669.83" cy="416.85" r="3.42"/><circle class="cls-11" cx="382.68" cy="310.92" r="3.47"/><circle class="cls-11" cx="390.32" cy="329.22" r="3.47"/><circle class="cls-11" cx="283.45" cy="383.94" r="3.47"/><circle class="cls-8" cx="506.25" cy="188.92" r="3.47"/><circle class="cls-11" cx="587.03" cy="284.25" r="2.14"/><circle class="cls-11" cx="587.03" cy="308.15" r="2.14"/><rect class="cls-11" x="152.71" y="184.06" width="19.78" height="11.44"/><rect class="cls-11" x="263.94" y="184.06" width="11.89" height="11.89"/><rect class="cls-11" x="149.82" y="296.17" width="16.44" height="38.89"/><polyline class="cls-8" points="325.05 767.39 241.05 767.39 241.05 647.56 181.38 647.56 181.38 797.39 332.88 797.39 332.88 647.56 276.21 647.56 276.21 733.14 325.46 733.14"/><line class="cls-8" x1="241.05" y1="651.94" x2="276.21" y2="651.94"/><line class="cls-8" x1="241.05" y1="657.17" x2="276.21" y2="657.17"/><line class="cls-8" x1="241.05" y1="662.39" x2="276.21" y2="662.39"/><line class="cls-8" x1="241.05" y1="667.61" x2="276.21" y2="667.61"/><line class="cls-8" x1="241.05" y1="672.83" x2="276.21" y2="672.83"/><line class="cls-8" x1="241.05" y1="678.06" x2="276.21" y2="678.06"/><line class="cls-8" x1="241.05" y1="683.28" x2="276.21" y2="683.28"/><line class="cls-8" x1="241.05" y1="688.5" x2="276.21" y2="688.5"/><line class="cls-8" x1="241.05" y1="693.72" x2="276.21" y2="693.72"/><line class="cls-8" x1="241.05" y1="698.94" x2="276.21" y2="698.94"/><line class="cls-8" x1="241.05" y1="704.17" x2="276.21" y2="704.17"/><line class="cls-8" x1="241.05" y1="709.39" x2="276.21" y2="709.39"/><line class="cls-8" x1="241.05" y1="714.61" x2="276.21" y2="714.61"/><line class="cls-8" x1="241.05" y1="719.83" x2="276.21" y2="719.83"/><line class="cls-8" x1="241.05" y1="725.06" x2="276.21" y2="725.06"/><line class="cls-8" x1="241.05" y1="730.28" x2="276.21" y2="730.28"/><line class="cls-8" x1="281.27" y1="733.14" x2="281.27" y2="767.39"/><line class="cls-8" x1="286.05" y1="733.14" x2="286.05" y2="767.39"/><line class="cls-8" x1="290.82" y1="733.14" x2="290.82" y2="767.39"/><line class="cls-8" x1="295.6" y1="733.14" x2="295.6" y2="767.39"/><line class="cls-8" x1="300.38" y1="733.14" x2="300.38" y2="767.39"/><line class="cls-8" x1="305.16" y1="733.14" x2="305.16" y2="767.39"/><line class="cls-8" x1="309.94" y1="733.14" x2="309.94" y2="767.39"/><line class="cls-8" x1="314.71" y1="733.14" x2="314.71" y2="767.39"/><rect class="cls-16" x="278.13" y="685.22" width="13.92" height="12.92"/><rect class="cls-16" x="278.13" y="698.14" width="45.92" height="33.08"/><rect class="cls-16" x="278.49" y="419.72" width="17.89" height="33"/><rect class="cls-16" x="354.13" y="406.64" width="22.42" height="25.08"/><rect class="cls-16" x="379.38" y="404.72" width="37.83" height="18.67"/><rect class="cls-16" x="433.8" y="419.81" width="24.08" height="3.58"/><rect class="cls-16" x="451.55" y="438.56" width="12.08" height="16.75"/><rect class="cls-16" x="573.38" y="357.97" width="13.11" height="27"/><rect class="cls-16" x="550.63" y="305.14" width="4.43" height="33.92"/><rect class="cls-16" x="555.06" y="282.11" width="27.23" height="30.94"/><polygon class="cls-16" points="611.63 200.22 610.21 234.56 629.82 234.56 629.82 200.22 611.63 200.22"/><circle class="cls-16" cx="530.88" cy="191.94" r="3.22"/><circle class="cls-16" cx="595.6" cy="196.44" r="3.22"/><circle class="cls-16" cx="472.63" cy="192.15" r="3.22"/><circle class="cls-16" cx="445.55" cy="264.4" r="3.22"/><circle class="cls-16" cx="446.82" cy="273.48" r="3.22"/><polygon class="cls-16" points="481.13 255.89 479.76 255.89 476.94 255.89 476.94 240.31 481.13 240.31 481.13 255.89"/><rect class="cls-16" x="316.05" y="236.94" width="24" height="38.67"/><rect class="cls-16" x="341.82" y="309.61" width="36" height="5.56"/><rect class="cls-16" x="748.71" y="378.5" width="27.5" height="23.89"/><rect class="cls-16" x="700.77" y="378.5" width="19.17" height="2.67"/><rect class="cls-16" x="692.99" y="429.89" width="46.67" height="19.83"/><rect class="cls-16" x="681.88" y="429.67" width="11.11" height="20.06"/><rect class="cls-16" x="679.55" y="426.61" width="32.94" height="2.33"/><rect class="cls-16" x="674.55" y="456.39" width="38.33" height="20.42"/><rect class="cls-16" x="784.71" y="454.56" width="9.67" height="18.92"/><rect class="cls-16" x="784.71" y="484.47" width="9.67" height="53.75"/><rect class="cls-16" x="741.55" y="535.39" width="18.17" height="17.58"/><rect class="cls-16" x="761.38" y="535.39" width="17.58" height="17.58"/><rect class="cls-16" x="790.88" y="633.47" width="3.5" height="53.75"/><rect class="cls-16" x="790.88" y="698.33" width="3.5" height="88.22"/><polygon class="cls-16" points="794.38 786.56 775.71 786.56 775.71 807.89 756.55 807.89 756.55 826.39 780.16 826.39 780.16 815.72 794.38 815.72 794.38 786.56"/><rect class="cls-16" x="594.49" y="821.56" width="52.11" height="3"/><rect class="cls-16" x="658.82" y="821.56" width="52.11" height="3"/><rect class="cls-16" x="538.87" y="609.68" width="25.08" height="25.92" transform="translate(25.65 -21.8) rotate(2.32)"/><circle class="cls-16" cx="534.3" cy="614.31" r="4.76"/><circle class="cls-16" cx="787.33" cy="702.61" r="3.55"/><rect class="cls-16" x="467.49" y="617.94" width="3.33" height="26.94"/><rect class="cls-16" x="491.82" y="617.94" width="3.33" height="26.94"/><rect class="cls-16" x="534.27" y="556.67" width="18.61" height="5.39"/><circle class="cls-16" cx="597.4" cy="550.49" r="3.69"/><circle class="cls-16" cx="599.73" cy="465.38" r="3.69"/><circle class="cls-16" cx="607.11" cy="469.6" r="3.69"/><circle class="cls-16" cx="787.33" cy="446.03" r="3.69"/><circle class="cls-16" cx="604.78" cy="550.49" r="3.69"/><circle class="cls-16" cx="597.4" cy="557.87" r="3.69"/><circle class="cls-16" cx="604.78" cy="557.87" r="3.69"/><rect class="cls-16" x="588.57" y="541.43" width="16.7" height="2.16" transform="translate(-179.53 323.97) rotate(-26.55)"/><polygon class="cls-16" points="794.38 552.97 750.63 552.97 750.63 574.17 767.49 574.17 767.49 621.28 794.05 621.28 794.05 567.72 784.38 567.72 784.38 556.47 794.38 556.47 794.38 552.97"/><polygon class="cls-16" points="690.55 639.72 691.55 694.06 683.05 688.22 683.05 645.22 690.55 639.72"/><rect class="cls-16" x="617.38" y="703.28" width="15" height="14.11"/><polygon class="cls-16" points="553.27 771.94 564.94 770.28 567.27 781.39 553.27 783.83 553.27 771.94"/><polygon class="cls-16" points="723.46 789.22 736.13 776.39 738.71 778.97 752.63 765.81 765.96 779.56 739.46 804.72 723.46 789.22"/><line class="cls-8" x1="553.27" y1="785.26" x2="715.88" y2="785.26"/><polyline class="cls-8" points="632.55 699.06 632.55 725.56 717.38 725.56"/><polyline class="cls-8" points="553.27 771.94 553.27 769.83 560.27 769.83 560.27 746.89"/><polyline class="cls-8" points="548.88 694.06 548.88 735.89 559.05 735.89"/><line class="cls-8" x1="537.71" y1="706.06" x2="538.49" y2="749.28"/><polygon class="cls-16" points="686.46 572.39 705.55 570.47 710.88 605.64 691.05 608.06 686.46 572.39"/><rect class="cls-16" x="711.71" y="596.72" width="17.58" height="17.58"/><rect class="cls-16" x="640.55" y="414.39" width="4.22" height="32.67"/><rect class="cls-16" x="671.47" y="419.84" width="2.2" height="6.25" transform="translate(-78.28 163.2) rotate(-13.08)"/><circle class="cls-16" cx="483.09" cy="308.33" r="4.1"/><circle class="cls-16" cx="491.28" cy="308.33" r="4.1"/><circle class="cls-16" cx="483.09" cy="316.53" r="4.1"/><circle class="cls-16" cx="491.28" cy="316.53" r="4.1"/><rect class="cls-16" x="483.77" y="321.49" width="3.39" height="16.71" transform="translate(-96.29 407.51) rotate(-41.8)"/><rect class="cls-8" x="473.71" y="621.06" width="15.22" height="25"/><rect class="cls-7" x="477.44" y="619.33" width="8" height="3.89"/><rect class="cls-8" x="302.71" y="509.39" width="60.22" height="6.64"/><circle class="cls-11" cx="789.21" cy="638.19" r="3.42"/><polygon class="cls-16" points="482.88 261.35 480.7 262.54 477.67 255.89 480.51 255.89 482.88 261.35"/><polygon class="cls-8" points="402.42 214.31 396.38 216.35 396.38 223.01 404.59 220.18 402.42 214.31"/><polygon class="cls-8" points="396.38 230.5 396.38 232.18 402.05 232.18 402.05 227.97 407.38 226.81 406.59 220.89 399.58 221.91 396.38 223.01 396.38 230.5"/><rect class="cls-8" x="370.55" y="205.44" width="6.17" height="9.61"/><rect class="cls-8" x="365.27" y="194.67" width="9.94" height="6.56"/><rect class="cls-8" x="275.82" y="187.69" width="6.33" height="6.33" rx="3.17" ry="3.17"/><rect class="cls-8" x="157.38" y="195.94" width="6.36" height="6.36" rx="3.18" ry="3.18"/><rect class="cls-16" x="203.97" y="466.61" width="22.56" height="23.44" transform="translate(48.43 -18.97) rotate(5.68)"/><rect class="cls-16" x="166.27" y="316.83" width="17.61" height="17.61"/><rect class="cls-16" x="196.19" y="264.29" width="17.58" height="17.58" transform="translate(-121.84 174.2) rotate(-36.27)"/><rect class="cls-16" x="243.27" y="206.06" width="17" height="16.11"/><rect class="cls-16" x="243.27" y="223.83" width="17" height="16.11"/><rect class="cls-16" x="261.99" y="213.17" width="17" height="16.11"/><rect class="cls-16" x="225.38" y="399.89" width="16.89" height="10"/><polyline class="cls-8" points="217.05 399.89 223.05 399.89 223.05 409.89 217.05 409.89"/><line class="cls-27" x1="209.94" y1="409.89" x2="199.27" y2="409.89"/><polyline class="cls-8" points="195.71 409.89 189.71 409.89 189.71 399.89 195.71 399.89"/><line class="cls-27" x1="202.82" y1="399.89" x2="213.49" y2="399.89"/><polyline class="cls-8" points="200.21 399.89 200.21 493.56 229.88 493.56 229.88 470.39"/><line class="cls-8" x1="166.27" y1="404.72" x2="200.21" y2="404.72"/><line class="cls-8" x1="166.27" y1="409.06" x2="200.21" y2="409.06"/><line class="cls-8" x1="166.27" y1="413.39" x2="200.21" y2="413.39"/><line class="cls-8" x1="166.27" y1="417.72" x2="200.21" y2="417.72"/><line class="cls-8" x1="166.27" y1="422.06" x2="200.21" y2="422.06"/><line class="cls-8" x1="166.27" y1="426.39" x2="200.21" y2="426.39"/><line class="cls-8" x1="166.27" y1="430.72" x2="200.21" y2="430.72"/><line class="cls-8" x1="166.27" y1="465.39" x2="200.21" y2="465.39"/><line class="cls-8" x1="166.27" y1="469.72" x2="200.21" y2="469.72"/><line class="cls-8" x1="166.27" y1="474.06" x2="200.21" y2="474.06"/><line class="cls-8" x1="166.27" y1="478.39" x2="200.21" y2="478.39"/><line class="cls-8" x1="166.27" y1="482.72" x2="200.21" y2="482.72"/><line class="cls-8" x1="166.27" y1="487.06" x2="200.21" y2="487.06"/><line class="cls-8" x1="166.27" y1="491.39" x2="200.21" y2="491.39"/><line class="cls-8" x1="205.94" y1="493.56" x2="205.94" y2="521.61"/><line class="cls-8" x1="211.05" y1="493.56" x2="211.05" y2="521.61"/><line class="cls-8" x1="216.16" y1="493.56" x2="216.16" y2="521.61"/><line class="cls-8" x1="221.27" y1="493.56" x2="221.27" y2="521.61"/><line class="cls-8" x1="226.38" y1="493.56" x2="226.38" y2="521.61"/><line class="cls-8" x1="229.88" y1="491.39" x2="242.27" y2="491.39"/><line class="cls-8" x1="229.88" y1="487.61" x2="242.27" y2="487.61"/><line class="cls-8" x1="229.88" y1="483.83" x2="242.27" y2="483.83"/><line class="cls-8" x1="229.88" y1="480.06" x2="242.27" y2="480.06"/><line class="cls-8" x1="229.88" y1="476.28" x2="242.27" y2="476.28"/><line class="cls-19" x1="166.27" y1="399.17" x2="166.27" y2="521.61"/><line class="cls-19" x1="155.49" y1="404.72" x2="155.49" y2="444.97"/><line class="cls-19" x1="155.49" y1="509.51" x2="155.49" y2="456.81"/><polyline class="cls-8" points="158.29 491.43 157.94 490.5 158.87 490.15"/><line class="cls-25" x1="160.65" y1="489.49" x2="174" y2="484.51"/><polyline class="cls-8" points="174.89 484.18 175.82 483.83 176.16 484.77"/><line class="cls-28" x1="176.84" y1="486.68" x2="180.59" y2="497.16"/><polyline class="cls-8" points="180.93 498.11 181.27 499.06 182.26 498.9"/><line class="cls-30" x1="184.05" y1="498.63" x2="197.5" y2="496.57"/><polyline class="cls-8" points="198.39 496.43 199.38 496.28 199.5 497.27"/><line class="cls-21" x1="199.75" y1="499.39" x2="202.14" y2="519.56"/><polyline class="cls-8" points="202.26 520.62 202.38 521.61 201.38 521.61"/><line class="cls-9" x1="199.29" y1="521.61" x2="166.84" y2="521.61"/><polyline class="cls-8" points="165.8 521.61 164.8 521.61 164.8 520.61"/><polyline class="cls-26" points="164.81 518.59 164.85 508.67 158.65 492.38"/><polyline class="cls-29" points="179.96 478.33 182.55 496.72 201.3 494.35 198.8 476.28 179.76 478.33"/><line class="cls-19" x1="207.05" y1="395.5" x2="242.27" y2="395.5"/><line class="cls-19" x1="211.16" y1="395.5" x2="211.16" y2="399.89"/><line class="cls-19" x1="237.05" y1="396.06" x2="237.05" y2="399.89"/><polyline class="cls-8" points="376.71 203.39 260.27 203.39 260.27 284.06 239.05 284.06"/><line class="cls-16" x1="242.55" y1="395.56" x2="242.55" y2="326.83"/><path class="cls-16" d="M401.82,326.72h23.33v-12.33h25.03s.58-36.89,0-36.89h-48.8l.44,49.22Z"/><circle class="cls-16" cx="405.8" cy="313.58" r="3.97"/><circle class="cls-16" cx="413.94" cy="313.58" r="3.97"/><circle class="cls-16" cx="405.8" cy="321.53" r="3.97"/><circle class="cls-16" cx="413.94" cy="321.53" r="3.97"/><polyline class="cls-8" points="402.88 331.28 425.12 331.28 425.12 314.39 450.18 314.39 450.18 347.5 402.88 347.5"/><rect class="cls-16" x="430.55" y="314.39" width="15.61" height="16.06"/><rect class="cls-16" x="403.99" y="272.78" width="38" height="4.72"/><rect class="cls-16" x="454.91" y="484.21" width="10.83" height="18.03" transform="translate(211.13 -133.73) rotate(21.35)"/><rect class="cls-16" x="464.96" y="454.47" width="5.42" height="34.08"/><line class="cls-8" x1="538.49" y1="761.83" x2="538.49" y2="794.39"/><rect class="cls-16" x="598.71" y="568.72" width="49.11" height="5.89"/><rect class="cls-16" x="228.93" y="620.26" width="9.33" height="13.99" transform="translate(-304.2 228.77) rotate(-33.04)"/><line class="cls-19" x1="223.05" y1="626.18" x2="236.55" y2="617.26"/><line class="cls-17" x1="237.01" y1="633.37" x2="238.17" y2="635.06"/></g></svg>