<?xml version="1.0" encoding="UTF-8"?><svg id="Layer_2" xmlns="http://www.w3.org/2000/svg" viewBox="0 0 1024 1024"><defs><style>.cls-1{fill:#ffcf5c;}.cls-1,.cls-2,.cls-3,.cls-4,.cls-5{stroke-width:0px;}.cls-1,.cls-3,.cls-4{opacity:.15;}.cls-6,.cls-7,.cls-8,.cls-9,.cls-10,.cls-11,.cls-12,.cls-13,.cls-14,.cls-15,.cls-16{stroke-miterlimit:10;}.cls-6,.cls-7,.cls-8,.cls-9,.cls-10,.cls-12,.cls-13,.cls-14,.cls-16{stroke-width:.75px;}.cls-6,.cls-7,.cls-10,.cls-12,.cls-13,.cls-16{fill:none;}.cls-6,.cls-8,.cls-9,.cls-11,.cls-14,.cls-15,.cls-16{stroke:#677693;}.cls-7{stroke:#ffcf5c;}.cls-8,.cls-2{fill:#080A0D;}.cls-9,.cls-15{fill:#9cadc4;}.cls-10{stroke:#597497;}.cls-11{fill:#080a0d;}.cls-12{stroke:#36d0ff;}.cls-13{stroke:#dc0023;}.cls-14{fill:#162330;}.cls-3{fill:#dc0023;}.cls-4{fill:#36d0ff;}.cls-5{fill:#677693;}.cls-16{stroke-dasharray:0 2;}</style></defs><g id="ANUBIS"><rect class="cls-2" width="1024" height="1024"/><path class="cls-14" d="M345.33,148.39l2.33-7.22,10.56-20.78-1.33-2.44,19.22-23.56v-3.11l22.78-22.22,15.11-26.22s33.33-7.56,34.67-7.78,19.33,0,19.33,0c0,0,33.11-4,34.44-4s38.22-3.78,39.78-3.78h19.33l25.33,4.22s16.44,5.78,18,6.44,25.78,8.44,25.78,8.44l-21.33,66-.11,50.89-1.56,2.67v9.33h7.33v49.22l49.44,24.56,2.69,3.75h5.22l4.11-3v-9.14l32.42-36.28v-20h30.89l2.35,40.46h13.71l3.83,4.54h16.58v-27.75h20.42l3.67-3.17h11.22l4.22,2.69h15.89v15.89l-2.44,4.11v5.44l6,4.56s6,1.67,8.28-1.89v25.17h14.11l3.06-1.06h8.39l3.72,1.33h10.83v12l1.06,2.17v10.17l-1.78,8.5.22,31.56.39,39.17h-6.67v22.89h7.83v61.22l-44.89,43.33h-41.78v-5.75h-17.96s-.4,4.38-4.81,5.98l-.27.12v22.31h5.13v15.81h44v24.53l.81,3.67v51.61l-1.28,5,.5,8.44,1,2.17-.56,19.67-1.33,3.78v87.67l-6.22,2.28v5.17h-74.5l-2.17.89h-14.5l-24.92,23.83v23.67h-31v59.33h10.75v31.83h-10.92v41.58l-22.08,21.42v5.22l-24.67,25.56h-13.89l-3.33-1-3.78.11v2.11h-12l-1.22-2.56h-5.94v14.39h-6.17l-8.75-10.38h-6.33l-5.96,2.08h-6.12l-2.06-4.21h-18.28l-3.25-.58h-90.25l-70.58-70.92h-11.92l-43.67-46.17,7.58-7.25-20.75-22.75,37.44-37.44-30.78-32.78-5.11-2.22-48.94-48.94v-35.61h-70.94v-55.17l-25.33-28.5,39-37.5,17.33,19.33c1.72,1.92,4.71,2,6.53.17l20.6-20.69c1.78-1.78,1.65-4.71-.27-6.33l-9.1-7.73v-39.17l13.75-13.17h49.83v-12h-12.92v-101.33h6.96v-34.97l4.18-4.39v-51.06l16.28-16.17,33.92-9.92,26.67-7.08-.67-6.42-9.33-35.5v-6h6.25v-26.08l2-5h0c.71-1.72.32-3.69-.98-5.02l-.47-.48-5.89-.28-10.78-7.61-.22-.94Z"/><path class="cls-12" d="M354.54,245.9l-1.33,29.17h51.26s-1.41-8.59,0-8.59h68.25l12,9.42h27.67v-19.33l-1.86-8.17.09-8.09v-34.44l.6-25.9-1.6-9.44-26.81-1.44-19.72,5.47-24.76,20.17-77.07.21h-4.88s1.3,9.54,1.3,9.54l9.53,37.92-12.67,3.5Z"/><path class="cls-4" d="M354.54,245.9l-1.33,29.17h51.26s-1.41-8.59,0-8.59h68.25l12,9.42h27.67v-19.33l-1.86-8.17.09-8.09v-34.44l.6-25.9-1.6-9.44-26.81-1.44-19.72,5.47-24.76,20.17-77.07.21h-4.88s1.3,9.54,1.3,9.54l9.53,37.92-12.67,3.5Z"/><path class="cls-8" d="M319.22,333.89h13.56l2.22-2.33h5.78l2.22,2.22h11.67l10.22-9.22v-6.43c0-1.23.44-2.42,1.23-3.36l.86-1.02c1.38-1.63,2.14-3.7,2.14-5.84v-1.84c0-2.04-.79-4.01-2.2-5.48l-1.15-1.2c-.94-.98-2.12-1.71-3.42-2.11l-3.46-1.06v-4.89h12.11v-13h-9.11l-3,1.67h-16.67v4.11h-2.59c-1.19,0-2.34.44-3.23,1.23l-1.73,1.54h-1.89v6.22l-8.11,6.56-1.55.48c-1.24.38-2.37,1.07-3.28,1.99l-.73.75c-.51.52-.94,1.11-1.28,1.76l-.26.5c-.48.93-.73,1.96-.73,3v1.07c0,.99.15,1.98.44,2.93l1.17,3.84.78,1.72v16.17Z"/><path class="cls-8" d="M321.08,491.33h28.17s1.25,28.33,0,28.33h-28.17v-28.33Z"/><circle class="cls-8" cx="381.12" cy="505.63" r="5.96"/><circle class="cls-8" cx="315.12" cy="567.99" r="6.54"/><circle class="cls-8" cx="847.68" cy="298.95" r="8.61"/><circle class="cls-8" cx="763.67" cy="272.62" r="13.22"/><path class="cls-8" d="M718.14,230.61c-4.53,0-8.19,3.67-8.19,8.19,0,2.09.79,3.98,2.07,5.43l-.13.14c-14.22,16.79-12.79,43.11-12.79,43.11-3.22,1.1-5.54,4.15-5.54,7.75s2.44,6.8,5.79,7.83l.21,13.6h4l.43-13.55c3.44-.97,5.96-4.13,5.96-7.88s-2.31-6.63-5.52-7.74c-.48-27.61,12.15-40.68,12.15-40.68,0,0,.92.18,1.57.18,4.53,0,8.19-3.67,8.19-8.19s-3.67-8.19-8.19-8.19Z"/><path class="cls-8" d="M310.78,733.83l13.97,13.97,2.37-.37c.85-.13,1.63-.57,2.18-1.23l2.85-3.4c.41-.49.68-1.07.79-1.7l.23-1.34c.17-1.04-.16-2.09-.9-2.83l-4.87-4.87-5.56.33-2.21-2.32c-.61-.64-1.47-.97-2.35-.91l-.58.04c-.67.05-1.3.33-1.79.78l-4.13,3.85Z"/><polygon class="cls-8" points="760.22 545.17 787.83 545.17 787.83 570.83 782.33 573.33 782.33 618.83 781 620.67 781 643.17 784.33 648 784.33 656.44 791.11 659.33 791.11 689.56 715.44 689.56 714 682.33 710.22 681.56 700.33 670.89 700.33 617.36 775.67 617.36 775.67 572 760.44 572 760.22 545.17"/><path class="cls-8" d="M529.44,555.78v25.77h5.17s23.06.01,23.06.01v-14.94h49.92v14.94h23.5l4.42,3.11h13l4.58-3.5h22.33v-42.08l-1.67-1.67v-18.67l1.67-3.25v-59.67h102.75v4.78l12.83-.06,3.11,1.39h28.56v-41.28h-14.22s-.33-9.11,0-9.11h24v1.22h1.89v-30.33h6.67v-21.67l-3.44-1.78h-4.44l-15.44-14.78h-3.78l-8.44-10.11-1.56-5.33-1.96-.44c-1.36-.3-2.74-.45-4.13-.45h0c-1.93,0-3.84.29-5.68.87l-.78.24-1.33,3.89-18,31.89-10.56.89-34.56,34.89-49.33.11-3.22-3.67-6.56-.44-2.22,6.89h-34.31l-4.25-1.44-12.83.33-2.58,2.75-.5,2.75-.83,17.67-4.83,2.33-1.08,15.92-1.75,54.21-.54,2.79-2.75,1.38-.96,1.25-2.92-.29-10.42-4.17h-2v2.62l15.71,8.08.38,3,4.71,4.04h7.79v18l-1.04,3.75-2.33.54-.83.12v19h-47.88l-3.58-2.5-26.47.19Z"/><path class="cls-8" d="M535.08,495.67v20.75h24.88l4.12-2.33.96-3.88,12.42,5.88h2.6v-3.08l-15.25-7.31s-.92-4.58-1.03-4.63-2.53-1.06-2.53-1.06l-.94.08v-4.33l-25.22-.08Z"/><polygon class="cls-8" points="236.83 589 234.25 591.58 238.67 597.58 246.5 597.58 270.75 621.08 341 621.08 343.72 624.17 343.72 713.56 380.33 747.81 390.22 738.48 390.22 732.44 423.89 699.78 434.44 699.78 434.44 661.89 445.78 661.89 445.78 649.56 499.11 649.56 499.11 623.11 470.11 623.11 470.11 629.56 449 629.56 449 626.44 437.22 626.44 435.33 630 382.89 630 381.44 580.22 369.67 579.56 369.67 592.56 286.11 592.56 262.22 567.11 258.44 567.11 236.83 589"/><path class="cls-11" d="M346.92,837.58l16.83,18.5.58,3.75h4.25l1.67,2.92h4.42l21.08-21.42,8.08,4.92,22.5.08v24.42l2.42,1.33,1.42,22.58,8.92.58,2.08-2,9.08-.17,3.58.33,1.83,2.17h10.33v-10.5l3.83-1h3.92s47.85-.06,47.79,0,0-30.04,0-30.04l2.62-2.54h8.54l2.88,1.33v6.38h27.08v12.29h44.08l2.33.67.67,2.67v4.5h7v-5.67l2.17-2,3.25-.42v-61.25l-3.17-5.17v-26.58h-41.92l-4.5-5.08v-24.33s-22.83-23.75-23.17-23.75-16.92-1.92-16.92-1.92l-8.5-.67-2.75.58-3.25,2.42-8.33.17-3.33-3.58h-45.92l-6.64,6.25-2.67,5.11-10.33,8.67-3.67.89-3,3-1.22,4.22-6.78,8.56-4.44,3-5.33-1.67-3.33-1.33-9.78,7.78-.33,2.67,4,4,1.33,3.11-1.67,2.56-31.78,31.67-4.67,1.33-4.11,5.67-.89,2.67-18.19,17.36Z"/><polygon class="cls-8" points="528.56 622.25 528.56 648 542.78 648 542.78 680.67 551.78 680.67 554.67 681.89 555.22 692.78 600.56 692.78 607.89 703.78 607.89 738.22 674.89 738.22 695.11 717.33 695.11 700.89 681.44 689.11 674.56 689.11 674.56 640.22 649.33 640.22 649.33 631.56 633.5 631.56 632.22 637.33 611.83 637.33 611.33 632.33 557.56 632.33 557.56 622 528.56 622.25"/><path class="cls-6" d="M356.87,123.99l17.35,6.78,8.44-1.78,52.56-28.22,16.22.56s52.78,9.22,53.11,9.44,75.67,2,75.67,2v148h34.78l18.44,9.22"/><polyline class="cls-6" points="595.78 260.78 596.44 114.67 618.56 43.43"/><path class="cls-6" d="M363.93,161s31.4-10.41,31.4-10.41l22-1.58,21.42-15.58"/><polyline class="cls-6" points="362.47 166.66 395.92 155.75 419.92 155.75 419.92 150.33 396.06 150.53"/><rect class="cls-15" x="574.28" y="260.78" width="12.06" height="24.94"/><rect class="cls-15" x="586.33" y="272.44" width="14.39" height="13.78"/><rect class="cls-15" x="586.33" y="262.06" width="5.56" height="10.39"/><rect class="cls-15" x="591.89" y="268.61" width="6.72" height="3.83"/><polyline class="cls-6" points="703.75 310.51 737.33 343.83 727.58 353"/><line class="cls-6" x1="733.32" y1="347.61" x2="703.56" y2="316.67"/><polygon class="cls-15" points="724.91 331.08 733.59 322.33 743.58 332.07 734.24 340.42 724.91 331.08"/><polyline class="cls-6" points="835.83 232.11 835.83 289.33 843.5 289.33"/><polyline class="cls-6" points="829.25 227.17 829.25 295.67 836.33 295.67 836.33 314.83 883.08 314.83"/><line class="cls-6" x1="843.5" y1="255.39" x2="843.5" y2="291.58"/><line class="cls-6" x1="856.29" y1="296.44" x2="882.95" y2="296.44"/><line class="cls-6" x1="856.29" y1="300.22" x2="882.95" y2="300.22"/><line class="cls-6" x1="854.65" y1="304" x2="882.95" y2="304"/><line class="cls-6" x1="847.42" y1="307.64" x2="883.08" y2="307.64"/><path class="cls-6" d="M738.96,327.33c76.33,0,72.59-51.44,72.59-51.44h8.56v-13.89"/><path class="cls-6" d="M725.79,235.9s3.5-8.03,16.33-11.05"/><line class="cls-6" x1="737.33" y1="343.83" x2="760.72" y2="366.39"/><line class="cls-6" x1="734.02" y1="347.15" x2="757.41" y2="369.71"/><line class="cls-6" x1="730.7" y1="350.47" x2="754.09" y2="373.03"/><line class="cls-6" x1="644.22" y1="370.33" x2="644.22" y2="403.44"/><line class="cls-6" x1="640" y1="370.33" x2="640" y2="403.44"/><line class="cls-6" x1="635.78" y1="370.33" x2="635.78" y2="403.44"/><line class="cls-6" x1="631.56" y1="370.33" x2="631.56" y2="403.44"/><path class="cls-6" d="M834.24,412.59l12.01,23.57s-5.83,20.67-23.58,23.5"/><polyline class="cls-6" points="884.67 420.92 868.33 420.92 868.33 459.11"/><path class="cls-15" d="M884.67,401.33c-.67-.11-10-2.5-10-2.5l-1.72,18.06,11.72,1.72v-17.28Z"/><polygon class="cls-15" points="754.61 455.64 748.08 461.56 754.61 466.86 762.03 457.92 759.11 455.64 754.61 455.64"/><polygon class="cls-15" points="750.06 456.11 751.94 458.67 748.08 461.56 743.5 458.33 745.11 455.64 750.06 456.11"/><rect class="cls-15" x="675.42" y="499.33" width="5.36" height="7.14" rx="1.89" ry="1.89"/><rect class="cls-15" x="675.42" y="506.47" width="5.36" height="7.14" rx="1.89" ry="1.89"/><path class="cls-6" d="M695.11,455.64l.31,68.11s7.92-2.58,9.83-7.83,2.08-7.5,2.08-7.5c0,0,5-.58,5,0s1.25,24,1.33,24.25,0,9.17,0,9.17l29.67-10.08v-8.42h15.33v-24.6h-15.5v-42.9"/><polygon class="cls-15" points="703.42 530.42 701 542.75 707.58 542.75 710.25 530.75 703.42 530.42"/><line class="cls-6" x1="692.17" y1="455.64" x2="692.17" y2="571.56"/><path class="cls-6" d="M694.56,610.33v-31.44l1-2.67h6.89l6.67-21.56,34.22-11.92v38.58h16.67s.78,29,0,29h-65.44Z"/><rect class="cls-6" x="771.72" y="525.44" width="7.94" height="10.67"/><rect class="cls-6" x="771.72" y="536.11" width="7.94" height="9.06"/><path class="cls-6" d="M740.78,739.82c.09-.04,0-14.82,0-14.82h50.33"/><rect class="cls-15" x="740.79" y="727.25" width="10.13" height="11.86"/><rect class="cls-15" x="750.92" y="732.75" width="5.83" height="6.36"/><rect class="cls-15" x="808" y="735.93" width="9" height="3.18"/><path class="cls-15" d="M823.22,695.78l-1.84.55c-.72.21-1.27.79-1.45,1.51l-.43,1.73c-.11.43-.08.88.08,1.29l.2.54.83,1.89-.5,2-1.23,1.01c-.38.31-.59.78-.56,1.27.06.93.16,2.4.23,2.67.11.39.28,3.11.5,3.17s1.17.78,1.17.78l-.22.78-1.72,3.28s.33,1.28.39,1.44,1.06,2.78,1.06,2.78l.06,2.17-1.72.39v4l1.39,1.11,3.78.39v-34.72Z"/><rect class="cls-15" x="673.75" y="846.83" width="6.92" height="31.83"/><rect class="cls-6" x="622.17" y="824.33" width="15.72" height="27.56"/><path class="cls-15" d="M579.12,871.5h28.75c1.03,0,1.88.84,1.88,1.88v4.71h-30.62v-6.58h0Z"/><rect class="cls-6" x="576.67" y="874.46" width="10.58" height="6.75"/><rect class="cls-6" x="603" y="877.17" width="6.75" height="3.46"/><rect class="cls-6" x="587.25" y="876.88" width="4.21" height="3"/><line class="cls-6" x1="403.22" y1="766.56" x2="362.83" y2="804"/><line class="cls-6" x1="331.62" y1="743.43" x2="348.75" y2="760.33"/><line class="cls-6" x1="297.83" y1="752.33" x2="313.64" y2="736.69"/><line class="cls-6" x1="312.18" y1="735.24" x2="296.04" y2="751.04"/><polyline class="cls-6" points="326.67 732.1 303.44 709.11 299.95 711.94"/><polyline class="cls-6" points="316.7 729.2 289 700.67 289 670.44 268.56 670.44 268.56 688.33 284.78 688.33 284.85 700.98 313.8 731.02"/><line class="cls-6" x1="346.92" y1="758.52" x2="368.32" y2="736.56"/><line class="cls-6" x1="345.13" y1="756.74" x2="366.53" y2="734.78"/><line class="cls-6" x1="343.34" y1="754.95" x2="364.75" y2="732.99"/><line class="cls-6" x1="341.56" y1="753.17" x2="362.96" y2="731.21"/><line class="cls-6" x1="339.77" y1="751.38" x2="361.17" y2="729.42"/><line class="cls-6" x1="337.99" y1="749.59" x2="359.39" y2="727.63"/><line class="cls-6" x1="336.2" y1="747.81" x2="357.6" y2="725.85"/><line class="cls-6" x1="248.94" y1="673.96" x2="268.56" y2="673.96"/><rect class="cls-6" x="248.94" y="668.33" width="11.76" height="5.62"/><polyline class="cls-6" points="202.69 559.47 175.33 587.33 194.17 607.67 194.17 651.08 277.58 651.08"/><polygon class="cls-15" points="343.92 439.21 349.33 445.17 341.5 452.17 337.37 447.29 343.79 441.98 343.92 439.21"/><rect class="cls-15" x="198.92" y="644.5" width="14.08" height="6.58"/><polyline class="cls-6" points="191.36 571.01 258.75 643 292.63 643 316.54 666.92 316.54 722.08"/><polyline class="cls-6" points="536 610.33 675.42 610.33 675.42 581.17"/><polygon class="cls-8" points="633.5 607.17 633.5 618.83 649.33 618.83 649.33 609 647.42 607.08 633.5 607.17"/><line class="cls-6" x1="607.58" y1="579.44" x2="557.67" y2="579.44"/><rect class="cls-15" x="557.67" y="566.61" width="6" height="11.33"/><rect class="cls-6" x="601.58" y="566.61" width="6" height="3.39"/><rect class="cls-6" x="605.33" y="566.61" width="2.25" height="9.67"/><rect class="cls-15" x="528.78" y="499.44" width="6.31" height="12.56"/><rect class="cls-15" x="474.83" y="649.56" width="16.33" height="5.69"/><rect class="cls-15" x="380.22" y="527.44" width="8.5" height="11.89"/><line class="cls-6" x1="284.37" y1="366.25" x2="284.37" y2="419.5"/><path class="cls-8" d="M396.17,278.33l7.5-1.25v-10.58h68.25l12,10.42v7.25h-5.5l-.64,96.72h-36.89v25.11h-48.78l-6.33,2.33h-39.22l-7.06,5.83v19.67l4.42,4.5v3.47l-6.42,5.36-3.17-.61-15.03-15.03v-26.19l2.44-2h4.92v-36.92l2.77-.58c1.27-.27,2.37-1.04,3.05-2.14l.43-.7c.44-.71.68-1.52.71-2.35l.04-1.4,3.5-2.08,13.75.25,32.17,1.25,8.67-.08,6.75-3.17-.25-11.83s4-13.08,4.08-13.42,0-16.17,0-16.17l5.49-3.39c1.25-.77,2.22-1.92,2.76-3.29h0c.43-1.08.58-2.26.44-3.41l-.46-3.6c-.26-2.02-1.26-3.87-2.82-5.18l-.63-.53c-.14-.12-.28-.23-.42-.34l-1.13-.83c-1.4-1.03-3.09-1.59-4.83-1.59h-4.4l-.17-13.5Z"/><polyline class="cls-6" points="319.31 403.83 319.31 367.83 329.17 358 333.67 359.25"/><line class="cls-6" x1="319.22" y1="330.83" x2="288" y2="330.83"/><polyline class="cls-6" points="295.17 330.83 295.17 339 284.37 339"/><line class="cls-6" x1="368.94" y1="304.45" x2="368.94" y2="291.33"/><path class="cls-6" d="M397.56,291.83c.17,0,0,22.11,0,22.11l5.06-.12"/><line class="cls-6" x1="371" y1="280.67" x2="396.67" y2="280.67"/><line class="cls-6" x1="371" y1="284.22" x2="396.67" y2="284.22"/><line class="cls-6" x1="371" y1="287.78" x2="396.67" y2="287.78"/><line class="cls-6" x1="371" y1="291.33" x2="396.67" y2="291.33"/><path class="cls-6" d="M440.89,405.44s16.94-.17,16.78,0,0-7.67,0-7.67h20.78"/><line class="cls-6" x1="464.44" y1="397.78" x2="464.44" y2="380.89"/><line class="cls-6" x1="467" y1="397.78" x2="467" y2="380.89"/><line class="cls-6" x1="469.56" y1="397.78" x2="469.56" y2="380.89"/><line class="cls-6" x1="472.11" y1="397.78" x2="472.11" y2="380.89"/><line class="cls-6" x1="474.67" y1="397.78" x2="474.67" y2="380.89"/><line class="cls-6" x1="477.22" y1="397.78" x2="477.22" y2="380.89"/><rect class="cls-15" x="600.33" y="345.17" width="12.17" height="12.67"/><rect class="cls-15" x="599.98" y="358.29" width="12.52" height="8.62"/><rect class="cls-15" x="560.81" y="351.94" width="9.78" height="4.36"/><path class="cls-8" d="M371.5,431h16.33v11.67h29.46c.17,0,4.62-4.62,4.62-4.62h19.08v5.96h11.83v3.83h50.54c1.19,0,2.32-.52,3.1-1.42l.95-1.1c.64-.74,1-1.69,1-2.67v-87.06h32.25l2.42-5.25,16.25.42h1.67v9.21l-1.96,3.21h-4.46v25.79l-3.04,6.83v64.71h-35.12v6.67h-15.92v33.75h6.75v15.67h-10.17l-3.75.83-1.58,4.58v18.19c0,.71.07,1.41.22,2.1l1.45,6.88v6.83h5.83v24.78l-4.08-.12h-23.67v-3.17h-23.67v21.33l.92,1.83v7.17h-11.83l-5.75-3.83h-7.17v-49.06h-22.72v2.33h-3.11l-.56.56h-12.89l-3.17,7.11h-10.61v-21.83h7.33l2.56-3.78h7.89v-5.78h9.39v11.17h29.61v-91.31h-34.47l-6.17,3.75h-7.5l-2.83-4.08h-5.42l.17-22.08Z"/><rect class="cls-15" x="551.54" y="435.11" width="7.9" height="13.56"/><rect class="cls-6" x="551.54" y="448.67" width="7.9" height="11.83"/><polyline class="cls-6" points="288.08 479.58 249.25 518.92 245.42 515"/><line class="cls-6" x1="231.48" y1="535.63" x2="248.53" y2="517.83"/><line class="cls-6" x1="228.97" y1="533.8" x2="246.21" y2="515.51"/><polyline class="cls-6" points="323.47 435.69 325.5 444 370.94 491.33 370.94 543.11"/><line class="cls-6" x1="428.33" y1="630" x2="428.33" y2="604"/><line class="cls-6" x1="430.33" y1="630" x2="430.33" y2="604"/><line class="cls-6" x1="432.33" y1="630" x2="432.33" y2="604.96"/><line class="cls-6" x1="404.33" y1="554.94" x2="404.33" y2="601.89"/><line class="cls-6" x1="381.85" y1="594.34" x2="404.54" y2="594.34"/><line class="cls-6" x1="381.85" y1="596.33" x2="404.54" y2="596.33"/><line class="cls-6" x1="381.85" y1="598.33" x2="404.54" y2="598.33"/><line class="cls-6" x1="381.85" y1="600.32" x2="404.54" y2="600.32"/><polyline class="cls-6" points="306.22 592.56 306.22 564.22 310.11 560.34 323.47 560.34 323.47 555.44 370.94 555.44"/><polyline class="cls-6" points="370.94 551.33 297.22 551.33 283.78 566.22 283.78 590.07"/><polyline class="cls-6" points="312.58 355.25 312.58 405.08 289.92 405.08"/><line class="cls-6" x1="284.37" y1="409.67" x2="319.31" y2="409.67"/><line class="cls-6" x1="284.37" y1="413.17" x2="319.31" y2="413.17"/><line class="cls-6" x1="284.37" y1="416.67" x2="319.31" y2="416.67"/><line class="cls-6" x1="537" y1="158.49" x2="537" y2="111.76"/><polyline class="cls-6" points="618.49 761.25 618.49 765 572.58 765"/><path class="cls-9" d="M504.07,722.08s-3.71-5.79-6.33-5.79-4.08,3-4.08,3h-9.11c-2.66,0-2.22-1.08-4.89-1.08s-4.21,3.87-4.21,3.87h28.62Z"/><path class="cls-5" d="M394.41,107.14l.21-4.82c.12-2.68,1.3-5.19,3.29-6.99l11-9.92c.7-.63,1.75-.62,2.44.01l2.43,2.23c.68.62.78,1.65.24,2.4l-8.9,12.33c-1.53,2.12-3.82,3.55-6.4,4l-4.32.75Z"/><path class="cls-5" d="M530.24,110.31l.21-4.82c.12-2.68,1.3-5.19,3.29-6.99l11-9.92c.7-.63,1.75-.62,2.44.01l2.43,2.23c.68.62.78,1.65.24,2.4l-8.9,12.33c-1.53,2.12-3.82,3.55-6.4,4l-4.32.75Z"/><rect class="cls-6" x="473.57" y="204.5" width="7" height="11.33"/><rect class="cls-6" x="473.57" y="239.42" width="7" height="11.33"/><polyline class="cls-6" points="508.81 170.56 482 169.11 462.28 174.58 437.52 194.75 403.96 194.75 403.96 204.5 415.18 204.5 415.35 194.75"/><path class="cls-8" d="M462.28,174.58l6.61,10.64,6.56-3.28h6.56v-12.83h-8.49c-1.69,0-3.35.48-4.78,1.39l-6.45,4.09Z"/><polyline class="cls-6" points="442.59 190.39 447.79 198.14 437.35 203.86 432.79 194.53"/><path class="cls-5" d="M509.66,180.33c.04.45-.85,5.06-.85,5.06v19.95l.85,1.67.24,9.25h-2.08v24.42h1.98l1.78-4.22v-15.33l-1.67-3.11,1.67-1.58.82-11.92.58-25.67-3.33,1.49Z"/><path class="cls-8" d="M512.47,158.22v9.33l-3.67,3,.89,10.22,1.89,6.22v14l-1.78,4.89.11,12.11,1.67,3.11v15.33l-1.78,3.89-.11,10.44.94,3.78.94,3v17.22l-4.11.56v8.67h5.89s-.56,35.44,0,35.44h27v5.56h12.89l17.22-7.56h36.44v13.22h5.56v35.83l-8.33-.06s.11,11.33,0,11.44,13.11,0,13.11,0l10.89-7.56h37.33v4.56l2.89,2h5.11l3.11-4-1.33-70.72,1.33-6.17v-14.33l-3.5-3.5h-8.67v8.83l-3.5,2.33-3,5v2.56h-6.78l-2.67.94h-32.06v-9.89l-1.83-2h-40.72v-108.5l1.78-2.61v-9.44h-2.56v-7.17h-60.61Z"/><rect class="cls-5" x="407.03" y="294.29" width="6.79" height="17.54"/><g id="Layer_7"><path class="cls-13" d="M345.74,470.42l25.21,25.25s.71,43.67,0,43.67h-71.54v-68.91h46.33Z"/><path class="cls-3" d="M345.85,470.42l25.21,25.25s.71,43.67,0,43.67h-71.54v-68.91h46.33Z"/><path class="cls-13" d="M715.96,317.75v-35.33s-6.02-57.44,66.22-51.16v-23.51h47.02v54.25h-28.79s6.48,40.71-33.08,53.05c-6.01,1.88-12.3,2.71-18.6,2.71h-32.76Z"/><path class="cls-3" d="M715.96,317.75v-35.33s-6.02-57.44,66.22-51.16v-23.51h47.02v54.25h-28.79s6.48,40.71-33.08,53.05c-6.01,1.88-12.3,2.71-18.6,2.71h-32.76Z"/><path class="cls-7" d="M374.29,911.53c.67-.11,31-29.78,31-29.78l24.87,12.91,8.92.58,2.08-2,9.08-.17,3.58.33,1.83,2.17h130.41l.42,76.47-3.75,1.44-147.11-1.42-61.33-60.56Z"/><path class="cls-1" d="M374.29,911.53c.67-.11,31-29.78,31-29.78l24.87,12.91,8.92.58,2.08-2,9.08-.17,3.58.33,1.83,2.17h130.41l.42,76.47-3.75,1.44-147.11-1.42-61.33-60.56Z"/></g><line class="cls-16" x1="529.44" y1="581.54" x2="499.25" y2="580.78"/><line class="cls-16" x1="499.11" y1="623.11" x2="528.56" y2="622.36"/><line class="cls-6" x1="499.11" y1="624.86" x2="499.25" y2="576.28"/><line class="cls-6" x1="528.56" y1="627.75" x2="529.06" y2="599.75"/><line class="cls-6" x1="529.44" y1="581.16" x2="529.44" y2="588.67"/><line class="cls-6" x1="551.54" y1="460.5" x2="551.54" y2="495.72"/><line class="cls-6" x1="546.74" y1="495.72" x2="546.74" y2="460.5"/><line class="cls-6" x1="541.24" y1="460.5" x2="541.24" y2="495.67"/><line class="cls-6" x1="387.08" y1="526.73" x2="387.08" y2="488.75"/><line class="cls-6" x1="387.08" y1="493.92" x2="345.3" y2="448.77"/><line class="cls-6" x1="371.16" y1="491.33" x2="387.08" y2="493.92"/><line class="cls-6" x1="342.56" y1="451.22" x2="381.85" y2="493"/><line class="cls-6" x1="333.75" y1="445.92" x2="376.26" y2="492.06"/><line class="cls-6" x1="323.47" y1="558.09" x2="370.85" y2="558.09"/><line class="cls-6" x1="323.47" y1="560.7" x2="323.47" y2="574.31"/><line class="cls-6" x1="327.36" y1="558.09" x2="327.36" y2="574.31"/><line class="cls-6" x1="315.82" y1="574.54" x2="331.79" y2="574.54"/><line class="cls-6" x1="370.85" y1="561.97" x2="327.36" y2="561.97"/><line class="cls-6" x1="315.82" y1="592.75" x2="315.82" y2="574.54"/><line class="cls-6" x1="313.02" y1="592.75" x2="313.02" y2="574.19"/><rect class="cls-6" x="731.74" y="228.92" width="7.2" height="7.2" transform="translate(-17.75 398.82) rotate(-30)"/><rect class="cls-6" x="726.9" y="234.83" width="6.27" height="3.96" transform="translate(-20.6 396.75) rotate(-30)"/><polygon class="cls-6" points="750.12 230.56 739.06 231.7 737.87 229.65 750.12 228.51 750.12 230.56"/><polyline class="cls-6" points="820.11 262 820.11 212.92 782.18 212.92"/><path class="cls-6" d="M782.18,216.97h33.89v54.03h-9.67s9.13,48.73-69.54,54.52"/><path class="cls-10" d="M734.24,322.97s70.27.27,68.61-54.89l.03-1.44h8.97v-45.89h-29.67"/></g></svg>