<?xml version="1.0" encoding="UTF-8"?><svg id="Layer_2" xmlns="http://www.w3.org/2000/svg" viewBox="0 0 1024 1024"><defs><style>.cls-1{fill:#ffcf5c;}.cls-1,.cls-2,.cls-3,.cls-4{stroke-width:0px;}.cls-1,.cls-3,.cls-4{opacity:.15;}.cls-5,.cls-6,.cls-7,.cls-8,.cls-9,.cls-10,.cls-11,.cls-12,.cls-13,.cls-14,.cls-15,.cls-16,.cls-17,.cls-18,.cls-19,.cls-20,.cls-21,.cls-22{stroke-miterlimit:10;}.cls-5,.cls-6,.cls-7,.cls-8,.cls-10,.cls-13,.cls-14,.cls-15,.cls-16,.cls-19,.cls-20,.cls-21,.cls-22{stroke-width:.75px;}.cls-5,.cls-6,.cls-9,.cls-10,.cls-11,.cls-12,.cls-13,.cls-14,.cls-16,.cls-17,.cls-20,.cls-21,.cls-22{fill:none;}.cls-5,.cls-7,.cls-8,.cls-9,.cls-10,.cls-11,.cls-12,.cls-14,.cls-17,.cls-20,.cls-21,.cls-22{stroke:#677693;}.cls-6{stroke:#ffcf5c;}.cls-7,.cls-2{fill:#080A0D;}.cls-8{fill:#9cadc4;}.cls-9{stroke-width:.5px;}.cls-10{stroke-dasharray:0 0 1.39 1.39;}.cls-11{stroke-width:3px;}.cls-12{stroke-width:2px;}.cls-13{stroke:#36d0ff;}.cls-14{stroke-dasharray:0 0 2.03 2.03;}.cls-15{fill:#1e2733;}.cls-15,.cls-18,.cls-19{stroke:#597497;}.cls-16{stroke:#dc0023;}.cls-18,.cls-19{fill:#37485d;}.cls-20{stroke-dasharray:0 0 1.76 1.76;}.cls-3{fill:#dc0023;}.cls-4{fill:#36d0ff;}.cls-21{stroke-dasharray:0 0 2.2 2.2;}.cls-22{stroke-dasharray:0 2;}</style></defs><g id="MIRAGE"><rect class="cls-2" width="1024" height="1024"/><polygon class="cls-15" points="233.71 691.75 233.71 753.31 292.6 753.31 330.38 829.75 344.99 829.75 344.99 831.81 472.44 873.97 467.66 863.86 479.38 857.31 484.6 859.86 552.96 824.81 554.63 819.39 564.55 814.39 570.63 826.06 627.94 826.06 627.94 780.08 647.16 780.08 647.16 821.42 694.6 821.42 694.6 817.31 701.71 817.31 701.71 821.69 724.44 821.69 724.44 817.08 737.55 817.08 737.55 824.64 795.42 824.64 795.42 817.47 797.55 817.47 797.55 821.81 859.8 821.81 859.8 819.1 865.42 819.1 865.42 785.93 859.26 785.93 859.26 771.56 866.84 771.56 866.84 730.64 859.94 730.64 859.94 724.86 866.84 724.86 866.84 693.86 852.82 693.86 852.82 641.31 928.49 641.31 928.49 595.61 932.71 595.61 932.71 550.47 929.51 550.47 929.51 503.64 932.88 503.64 932.88 480.47 929.38 480.47 929.38 434.2 932.88 434.2 932.88 425.47 937.73 425.47 937.73 383.53 943.6 383.53 943.6 357.53 937.6 357.53 937.6 322.5 924.1 322.5 924.1 233.75 887.27 233.75 886.26 234.93 879.13 234.93 879.13 206.26 853.05 199.36 772.38 199.36 772.38 190.58 782.77 190.58 782.77 158.64 735.21 158.64 733.96 160.64 675.32 160.64 675.32 167.81 672.44 167.81 672.44 160.56 626.92 160.56 624.94 162.53 619.28 162.53 619.28 158.47 549.41 158.47 549.41 203.72 545.8 213.64 449.71 213.64 449.71 216.75 446.82 216.75 446.82 173.97 346.32 173.97 346.32 182.69 343.77 182.69 343.77 163.53 308.82 163.53 307.38 161.69 295.94 161.69 295.94 163.58 291.32 163.58 291.32 168.31 266.71 168.31 266.71 180.64 256.21 180.64 256.21 164.64 226.16 164.64 226.16 169.36 223.16 169.36 217.66 169.36 170.32 174.08 161.44 215.92 160.44 229.19 118.32 229.19 116.38 226.97 105.8 236.81 108.3 239.64 112.05 322.14 165.96 322.14 165.96 327.14 164.13 328.06 164.13 343.97 165.63 344.72 165.63 348.97 156.38 355.47 156.38 393.97 168.63 393.97 168.63 396.14 166.3 397.22 166.3 483.64 224.55 483.64 224.55 474.56 248.96 474.56 248.96 483.81 312.05 483.81 315.63 490.06 298.88 490.06 298.88 679.31 286.3 691.64 233.71 691.75"/><rect class="cls-3" x="200.16" y="250.47" width="70.22" height="77.5"/><rect class="cls-16" x="200.16" y="250.47" width="70.22" height="77.5"/><polygon class="cls-13" points="238.38 693.64 287.55 693.64 302.8 678.39 302.8 653.31 353.55 653.31 353.55 774.14 307.55 774.14 295.96 749.47 238.38 749.47 238.38 693.64"/><polygon class="cls-4" points="238.38 693.64 287.55 693.64 302.8 678.39 302.8 653.31 353.55 653.31 353.55 774.14 307.55 774.14 295.96 749.47 238.38 749.47 238.38 693.64"/><rect class="cls-3" x="521.42" y="754.94" width="71.19" height="55.03"/><rect class="cls-16" x="521.42" y="754.94" width="71.19" height="55.03"/><polygon class="cls-6" points="867.05 316.56 922.55 316.56 922.55 323.56 936.3 323.56 936.3 421.31 866.38 421.31 867.05 316.56"/><polygon class="cls-1" points="867.05 316.56 922.55 316.56 922.55 323.56 936.3 323.56 936.3 421.31 866.38 421.31 867.05 316.56"/><path class="cls-7" d="M424.46,484.14s.75,96.25,0,96.25h-11l-2.67,5.92h7.5v14.25h31.33v11.92s16.92.92,16.92,0v-12.5h33.08s.25-6,0-6h-19.08v-25.17h8.33v-13.08h-8.42v-46.14h18.14v-6h-71.33v-19.44h-2.81Z"/><polygon class="cls-7" points="253.13 393.97 186.3 393.97 186.3 396.64 189.21 396.64 189.21 432.06 221.3 432.06 221.3 397.89 253.13 397.89 253.13 393.97"/><path class="cls-7" d="M669.55,760.81v35.5h30.33v-10.83h2.33v-14.33h-2.17v-38.83h127.83v-116.5h75.67v-20.5h-89.33v94.83c0,.17-57.17,0-57.17,0l-2.42-1.36h-10.61l-1.33,1.69h-43.06v-25.83h-13.08v26h-26.92v31.58h21.25v38.75l-11.33-.17Z"/><rect class="cls-7" x="723.21" y="771.47" width="14" height="14"/><rect class="cls-7" x="761.05" y="771.47" width="13.33" height="14"/><rect class="cls-7" x="798.05" y="771.47" width="13.33" height="14"/><rect class="cls-7" x="341.38" y="268.68" width="10.83" height="14.92"/><polygon class="cls-7" points="198.82 250.36 213.55 250.36 213.55 246.53 198.82 246.53 194.88 246.53 194.88 250.36 194.88 268.47 198.82 268.47 198.82 250.36"/><polygon class="cls-7" points="269.55 246.53 254.24 246.53 254.24 250.47 269.55 250.47 269.55 267.72 273.38 267.72 273.38 250.47 273.38 246.53 269.55 246.53"/><polygon class="cls-7" points="269.44 327.42 254.71 327.42 254.71 331.25 269.44 331.25 273.38 331.25 273.38 327.42 273.38 309.31 269.44 309.31 269.44 327.42"/><polygon class="cls-7" points="198.71 310.06 194.88 310.06 194.88 327.31 194.88 331.25 198.71 331.25 214.02 331.25 214.02 327.31 198.71 327.31 198.71 310.06"/><polyline class="cls-5" points="539.05 615.31 539.05 668.19 542.1 671.25 564.3 671.25 568.23 667.32 568.23 643.51"/><polyline class="cls-5" points="543.49 671.25 595.27 772.64 491.49 825.31 473.07 789.6"/><polyline class="cls-5" points="553.64 671.25 605.94 776.19 487.05 836.86 464.16 791.64"/><polyline class="cls-5" points="564.3 671.25 616.82 779.75 483.71 847.31 455.27 791.64"/><line class="cls-5" x1="659.63" y1="708.97" x2="658.63" y2="708.97"/><line class="cls-21" x1="656.43" y1="708.97" x2="644.31" y2="708.97"/><polyline class="cls-5" points="643.21 708.97 642.21 708.97 642.21 709.97"/><line class="cls-20" x1="642.21" y1="711.73" x2="642.21" y2="721.42"/><polyline class="cls-5" points="642.21 722.31 642.21 723.31 641.21 723.31"/><line class="cls-10" x1="639.82" y1="723.31" x2="637.74" y2="723.31"/><polyline class="cls-5" points="637.05 723.31 636.05 723.31 636.05 724.31"/><line class="cls-14" x1="636.05" y1="726.33" x2="636.05" y2="778.07"/><line class="cls-5" x1="636.05" y1="779.08" x2="636.05" y2="780.08"/><polygon class="cls-22" points="651.37 777.04 653.71 763.06 667.13 765.22 665.76 779.36 651.37 777.04"/><polyline class="cls-22" points="680.88 729.72 671.96 729.72 671.96 744.53 680.88 744.53"/><line class="cls-22" x1="647.16" y1="780.08" x2="669.55" y2="780.08"/><path class="cls-5" d="M498.6,509.58v64.39s29.03-.08,28.94,0,0-64.39,0-64.39"/><polyline class="cls-5" points="466.8 454.56 455.27 448.72 455.27 412.56"/><polyline class="cls-5" points="455.27 476.97 432.46 463.56 432.46 412.56"/><line class="cls-5" x1="432.46" y1="443.97" x2="455.27" y2="443.97"/><line class="cls-5" x1="432.46" y1="439.56" x2="455.27" y2="439.56"/><line class="cls-5" x1="432.46" y1="435.14" x2="455.27" y2="435.14"/><line class="cls-5" x1="432.46" y1="430.72" x2="455.27" y2="430.72"/><line class="cls-5" x1="432.46" y1="426.31" x2="455.27" y2="426.31"/><line class="cls-5" x1="432.46" y1="421.89" x2="455.27" y2="421.89"/><line class="cls-5" x1="432.46" y1="417.47" x2="455.27" y2="417.47"/><line class="cls-5" x1="445.67" y1="471.32" x2="457.95" y2="450.08"/><line class="cls-5" x1="449.13" y1="473.32" x2="461.52" y2="451.89"/><line class="cls-5" x1="452.59" y1="475.32" x2="465.09" y2="453.69"/><line class="cls-5" x1="498.6" y1="514.64" x2="527.54" y2="514.64"/><line class="cls-5" x1="498.6" y1="518.66" x2="527.54" y2="518.66"/><line class="cls-5" x1="498.6" y1="522.68" x2="527.54" y2="522.68"/><line class="cls-5" x1="498.6" y1="526.71" x2="527.54" y2="526.71"/><line class="cls-5" x1="498.6" y1="530.73" x2="527.54" y2="530.73"/><line class="cls-5" x1="498.6" y1="534.75" x2="527.54" y2="534.75"/><line class="cls-5" x1="498.6" y1="554.05" x2="527.54" y2="554.05"/><line class="cls-5" x1="498.6" y1="558.07" x2="527.54" y2="558.07"/><line class="cls-5" x1="498.6" y1="562.09" x2="527.54" y2="562.09"/><line class="cls-5" x1="498.6" y1="566.12" x2="527.54" y2="566.12"/><line class="cls-5" x1="498.6" y1="570.14" x2="527.54" y2="570.14"/><line class="cls-5" x1="567.71" y1="503.1" x2="689.71" y2="503.1"/><line class="cls-5" x1="549.96" y1="645.22" x2="539.05" y2="645.22"/><line class="cls-5" x1="549.96" y1="641.35" x2="539.05" y2="641.35"/><line class="cls-5" x1="549.96" y1="637.47" x2="539.05" y2="637.47"/><line class="cls-5" x1="549.96" y1="633.59" x2="539.05" y2="633.59"/><line class="cls-5" x1="549.96" y1="629.71" x2="539.05" y2="629.71"/><line class="cls-5" x1="549.96" y1="625.84" x2="539.05" y2="625.84"/><line class="cls-5" x1="549.96" y1="621.96" x2="539.05" y2="621.96"/><line class="cls-5" x1="549.96" y1="618.08" x2="539.05" y2="618.08"/><line class="cls-5" x1="743.55" y1="643.19" x2="706.55" y2="643.19"/><line class="cls-5" x1="827.88" y1="647.64" x2="852.82" y2="647.64"/><line class="cls-5" x1="827.88" y1="652.19" x2="852.82" y2="652.19"/><line class="cls-5" x1="827.88" y1="656.75" x2="852.82" y2="656.75"/><line class="cls-5" x1="827.88" y1="661.31" x2="852.82" y2="661.31"/><line class="cls-5" x1="411.94" y1="853.96" x2="434.88" y2="786.56"/><line class="cls-5" x1="426.05" y1="786.56" x2="403.93" y2="851.31"/><line class="cls-5" x1="396.03" y1="848.69" x2="417.71" y2="786.56"/><line class="cls-5" x1="406.87" y1="786.56" x2="388.21" y2="846.2"/><line class="cls-5" x1="379.27" y1="843.15" x2="398.55" y2="786.56"/><line class="cls-5" x1="388.91" y1="786.56" x2="371.31" y2="840.51"/><line class="cls-5" x1="363" y1="837.77" x2="380.11" y2="786.56"/><line class="cls-5" x1="355.55" y1="835.3" x2="371.56" y2="786.56"/><line class="cls-5" x1="350.88" y1="580.64" x2="350.88" y2="530.73"/><line class="cls-5" x1="577.16" y1="241.19" x2="577.16" y2="273.31"/><line class="cls-5" x1="571.99" y1="241.19" x2="571.99" y2="273.31"/><line class="cls-5" x1="566.82" y1="241.19" x2="566.82" y2="273.31"/><line class="cls-5" x1="561.66" y1="241.19" x2="561.66" y2="273.31"/><line class="cls-5" x1="556.49" y1="241.19" x2="556.49" y2="273.31"/><line class="cls-5" x1="551.32" y1="241.19" x2="551.32" y2="273.31"/><line class="cls-5" x1="546.16" y1="241.19" x2="546.16" y2="273.31"/><line class="cls-5" x1="540.99" y1="241.19" x2="540.99" y2="273.31"/><line class="cls-5" x1="535.82" y1="241.19" x2="535.82" y2="273.31"/><line class="cls-5" x1="477.82" y1="273.31" x2="477.82" y2="241.19"/><line class="cls-5" x1="483.13" y1="273.31" x2="483.13" y2="241.19"/><line class="cls-5" x1="488.44" y1="273.31" x2="488.44" y2="241.19"/><line class="cls-5" x1="493.74" y1="273.31" x2="493.74" y2="241.19"/><line class="cls-5" x1="499.05" y1="273.31" x2="499.05" y2="241.19"/><line class="cls-5" x1="504.35" y1="273.31" x2="504.35" y2="241.19"/><line class="cls-5" x1="509.66" y1="273.31" x2="509.66" y2="241.19"/><line class="cls-5" x1="514.96" y1="273.31" x2="514.96" y2="241.19"/><rect class="cls-22" x="432.46" y="241.19" width="22.81" height="171.36"/><path class="cls-7" d="M526.38,502.97v6.56h6.39v26.11h12.67v57h-19.06v6.25h23.58v46.33h3.58l1.71-1.71h16.12l1-3.46h22.75v3.75h17.75v-21.08h74l1.75,2.5h9.75l2.58-1.58h42.58v26.17h12.42v-27.5h4.67v-59.33h25.17v-18.67h73.5l5.83-6v-141.89h-5.86v-15.11h3.11v-69.22h4.67v-22h-12.56v-16.56l-17.44-18h-21.56l-2.56,2.44h-29l-1.44-2.44h-26.89l-1.78,1.89-2.78-1.89-21.67,20.11,1.35,3.38v71.07l3.23,5.28h3.58v3.22h15.17s1.67,172.89,0,172.89h-185v-28.38l-41.33-.12Z"/><polygon class="cls-7" points="456.3 325.39 459.05 328.14 459.05 348.39 401.71 348.39 401.71 425.83 404.69 425.83 404.69 428.47 391.69 428.47 391.69 496.97 404.63 496.97 404.63 509.28 391.8 509.28 391.8 525.6 375.55 525.6 375.55 507.85 356.46 507.85 356.46 490.72 333.1 490.72 333.1 486.86 336.3 486.86 336.3 439.31 318.46 439.31 316.8 437.64 305.71 437.64 304.51 438.85 285.8 438.85 272.63 413.64 272.63 398.06 266.3 398.06 266.3 393.97 295.63 393.97 298.71 396.31 321.96 396.31 324.38 394.39 340.55 394.39 340.46 322.47 384.55 325.06 401.88 325.89 456.3 325.39"/><polygon class="cls-7" points="376.27 546.75 379.16 546.75 379.16 580.97 390.16 580.97 392.27 586.42 385.49 586.42 385.49 651.64 405.05 651.64 405.05 638.42 418.05 638.42 418.05 651.64 466.38 651.64 485.05 661.75 485.05 680.42 479.49 680.42 479.49 763.64 484.21 763.64 485.49 765.19 485.49 783.06 469.21 791.64 447.71 791.64 447.71 786.56 365.21 786.56 365.21 780.31 370.55 780.31 370.55 766.42 357.1 760.25 357.1 716.35 353.17 716.35 353.17 672.53 368.82 672.53 368.82 648.31 344.99 648.31 344.99 600.64 349.05 580.64 376.32 580.64 376.27 546.75"/><polygon class="cls-7" points="256.46 199.56 256.46 209.72 341.05 209.72 341.05 229.47 398.49 229.47 401.49 277.53 501.38 277.53 501.38 349.56 499.63 350.72 499.63 368.81 507.96 385.31 509.3 385.97 513.96 394.97 512.88 396.14 517.46 405.97 555.71 405.97 556.71 404.31 606.8 404.31 608.71 405.97 615.21 405.97 615.21 403.22 636.55 403.22 636.55 405.64 641.88 405.64 678.27 386.19 678.27 345.53 675.16 345.53 675.16 308.53 694.27 308.53 694.27 295.53 677.6 295.53 677.6 280.53 694.27 280.53 688.16 225.08 675.05 225.08 675.05 204.19 697.16 199.56 757.82 199.56 757.82 190.86 719.27 190.86 718.6 188.86 675.67 188.86 675.67 183.81 673.13 183.81 673.13 190.85 626.3 190.85 624.63 189.43 619.71 189.43 619.71 196.68 618.67 197.18 618.67 219.35 620.55 219.35 620.55 273.31 477.82 273.31 461.05 270.64 455.16 270.64 449.16 271.53 449.16 241.19 577.94 241.19 577.94 238.19 449.27 238.19 449.27 234.75 447.27 234.75 447.27 271.42 414.6 271.42 404.99 261.81 404.99 217.64 408.05 217.64 408.05 209.53 346.96 209.53 346.96 201.14 344.21 201.14 344.21 207.64 266.51 207.64 266.51 199.64 256.46 199.56"/><polygon class="cls-7" points="424.38 448.72 427.8 448.72 427.8 412.56 462.88 412.56 462.88 408.22 459.51 404.85 459.51 367.22 453.21 367.22 453.21 387.31 421.38 387.31 421.38 425.72 418.13 425.72 418.13 428.39 424.32 428.39 424.38 448.72"/><polyline class="cls-5" points="356.05 173.97 356.05 203.42 369.71 203.42 369.71 209.53"/><line class="cls-5" x1="361.27" y1="203.42" x2="361.27" y2="173.97"/><line class="cls-5" x1="365.6" y1="203.42" x2="365.6" y2="173.97"/><polyline class="cls-5" points="573.16 158.47 573.16 198.42 608.49 217.53 608.49 200.64 619.71 189.43"/><line class="cls-5" x1="608.49" y1="212.81" x2="573.16" y2="193.72"/><line class="cls-5" x1="608.49" y1="207.56" x2="573.16" y2="188.47"/><line class="cls-5" x1="608.49" y1="202.31" x2="573.16" y2="183.22"/><line class="cls-5" x1="573.16" y1="178.47" x2="610.73" y2="198.4"/><polyline class="cls-5" points="742.23 199.56 742.23 221.19 745.06 224.03 824.3 224.03"/><polyline class="cls-12" points="741.46 199.56 741.46 222.06 744.51 225.1 789.63 225.1"/><line class="cls-5" x1="789.63" y1="224.03" x2="789.63" y2="199.36"/><line class="cls-5" x1="794.62" y1="224.03" x2="794.62" y2="199.36"/><line class="cls-5" x1="799.6" y1="224.03" x2="799.6" y2="199.36"/><line class="cls-5" x1="804.59" y1="224.03" x2="804.59" y2="199.36"/><line class="cls-5" x1="809.57" y1="224.03" x2="809.57" y2="199.36"/><line class="cls-5" x1="814.56" y1="224.03" x2="814.56" y2="199.36"/><line class="cls-5" x1="819.55" y1="224.03" x2="819.55" y2="199.36"/><polygon class="cls-8" points="689.71 308.53 689.71 323.47 675.16 331.06 675.16 308.53 689.71 308.53"/><line class="cls-5" x1="730.73" y1="301.14" x2="699.21" y2="301.14"/><line class="cls-5" x1="700.13" y1="318.81" x2="730.73" y2="318.81"/><line class="cls-5" x1="730.73" y1="344.39" x2="699.21" y2="339.47"/><line class="cls-5" x1="730.73" y1="346.97" x2="730.73" y2="371.64"/><polyline class="cls-5" points="666.29 392.6 654.71 428.31 654.71 441.97"/><polyline class="cls-5" points="658.75 396.63 647.88 428.22 647.88 441.39"/><polyline class="cls-5" points="651.98 400.24 641.71 428.81 641.71 441.39"/><polygon class="cls-8" points="708.34 664.65 708.34 665.49 709.1 665.86 709.1 665.02 709.1 649.81 708.34 649.81 708.34 664.65"/><polygon class="cls-8" points="711.3 666.08 711.3 666.92 712.07 667.29 712.07 666.45 712.07 649.81 711.3 649.81 711.3 666.08"/><polygon class="cls-8" points="714.27 667.52 714.27 668.36 715.03 668.73 715.03 667.89 715.03 649.81 714.27 649.81 714.27 667.52"/><polygon class="cls-8" points="717.23 668.95 717.23 669.79 718 670.16 718 669.32 718 649.81 717.23 649.81 717.23 668.95"/><polygon class="cls-8" points="720.2 670.39 720.2 671.23 720.96 671.6 720.96 670.76 720.96 649.81 720.2 649.81 720.2 670.39"/><polygon class="cls-8" points="723.16 671.82 723.16 672.66 723.92 673.03 723.92 672.19 723.92 649.81 723.16 649.81 723.16 671.82"/><polygon class="cls-8" points="726.13 673.26 726.13 674.1 726.89 674.47 726.89 673.63 726.89 649.81 726.13 649.81 726.13 673.26"/><polygon class="cls-8" points="729.09 674.69 729.09 675.53 729.85 675.9 729.85 675.06 729.85 649.81 729.09 649.81 729.09 674.69"/><polygon class="cls-8" points="732.06 676.13 732.06 676.97 732.82 677.33 732.82 676.5 732.82 649.81 732.06 649.81 732.06 676.13"/><polygon class="cls-8" points="735.02 677.56 735.02 678.4 735.78 678.77 735.78 677.93 735.78 649.81 735.02 649.81 735.02 677.56"/><polygon class="cls-8" points="737.99 679 737.99 679.84 738.75 680.2 738.75 679.37 738.75 649.81 737.99 649.81 737.99 679"/><polygon class="cls-8" points="740.95 649.81 740.95 680.43 740.95 681.27 741.71 681.64 741.71 680.8 741.71 649.81 740.95 649.81"/><polyline class="cls-5" points="889.49 251.53 889.49 310.42 867.05 310.42"/><line class="cls-5" x1="893.16" y1="262.03" x2="924.94" y2="262.03"/><line class="cls-5" x1="893.16" y1="265.14" x2="924.94" y2="265.14"/><line class="cls-5" x1="893.16" y1="268.25" x2="924.94" y2="268.25"/><line class="cls-5" x1="893.16" y1="271.36" x2="924.94" y2="271.36"/><line class="cls-5" x1="893.16" y1="281.47" x2="924.94" y2="281.47"/><line class="cls-5" x1="893.16" y1="284.58" x2="924.94" y2="284.58"/><line class="cls-5" x1="893.16" y1="287.69" x2="924.94" y2="287.69"/><line class="cls-5" x1="893.16" y1="290.81" x2="924.94" y2="290.81"/><line class="cls-5" x1="893.16" y1="300.14" x2="924.94" y2="300.14"/><line class="cls-5" x1="893.16" y1="303.25" x2="924.94" y2="303.25"/><line class="cls-5" x1="893.16" y1="306.36" x2="924.94" y2="306.36"/><line class="cls-5" x1="893.16" y1="309.47" x2="924.94" y2="309.47"/><polyline class="cls-5" points="800.21 690.21 800.21 585.14 803.3 582.18 879.77 582.18 879.77 595.31"/><rect class="cls-8" x="391.69" y="428.47" width="13.43" height="13.43"/><rect class="cls-9" x="424.32" y="448.72" width="3.44" height="34.92"/><rect class="cls-8" x="465.38" y="492.08" width="21.22" height="11.5"/><rect class="cls-8" x="361.49" y="507.85" width="14.06" height="14.84"/><rect class="cls-8" x="760.63" y="562.97" width="24.69" height="15.61"/><rect class="cls-8" x="459.05" y="327.47" width="15.36" height="15.36"/><rect class="cls-8" x="200.71" y="252.08" width="20.39" height="20.39"/><rect class="cls-8" x="249.38" y="250.47" width="20.17" height="20.17"/><rect class="cls-8" x="247.21" y="305.19" width="22.22" height="22.22"/><rect class="cls-8" x="248.8" y="294.89" width="18.17" height="10.31"/><rect class="cls-8" x="240.21" y="312.39" width="7" height="14.25"/><rect class="cls-5" x="479.49" y="728.47" width="6.81" height="29.83"/><rect class="cls-5" x="479.49" y="684.47" width="6.81" height="29.58"/><rect class="cls-5" x="737.55" y="817.08" width="28.17" height="7.56"/><rect class="cls-5" x="770.21" y="817.08" width="25.21" height="7.56"/><rect class="cls-5" x="765.71" y="814.08" width="4.5" height="10.56"/><polyline class="cls-5" points="811.38 732.31 811.38 771.47 859.26 771.47"/><line class="cls-5" x1="861.94" y1="693.86" x2="861.94" y2="724.86"/><line class="cls-5" x1="862.49" y1="771.56" x2="862.49" y2="730.64"/><line class="cls-5" x1="852.82" y1="693.39" x2="827.88" y2="693.39"/><rect class="cls-5" x="735.05" y="732.31" width="26.67" height="4.67"/><rect class="cls-5" x="772.55" y="732.31" width="26.67" height="4.67"/><rect class="cls-5" x="811.38" y="739.03" width="5.72" height="19.72"/><rect class="cls-5" x="821.82" y="767.42" width="28.5" height="4.14"/><rect class="cls-5" x="821.82" y="763.28" width="28.5" height="4.14"/><rect class="cls-5" x="821.82" y="759.14" width="28.5" height="4.14"/><polyline class="cls-5" points="420.05 348.39 420.05 375.81 440.51 377.47 440.51 387.31"/><line class="cls-5" x1="405.12" y1="427.72" x2="418.13" y2="427.72"/><rect class="cls-8" x="459.05" y="435.97" width="10.44" height="10.44"/><rect class="cls-8" x="460.05" y="412.56" width="2" height="24.86"/><rect class="cls-8" x="468.94" y="444.03" width="166.44" height="1.46"/><rect class="cls-8" x="513.96" y="442.39" width="4.03" height="4.03" rx="2.01" ry="2.01"/><rect class="cls-8" x="572.96" y="443.31" width="4.04" height="4.04" rx="2.01" ry="2.01"/><line class="cls-12" x1="463.7" y1="429.85" x2="475.28" y2="441.19"/><line class="cls-12" x1="690.46" y1="466.72" x2="690.46" y2="478.22"/><line class="cls-12" x1="692.13" y1="457.22" x2="700.09" y2="465.51"/><polygon class="cls-12" points="696.34 469.68 704.34 462.39 717.21 475.89 709.26 482.93 696.34 469.68"/><polygon class="cls-8" points="699.27 456.74 708.16 466.4 717.98 456.62 709.13 447.56 699.27 456.74"/><polygon class="cls-8" points="688.07 481.07 696.96 490.73 706.78 480.95 697.92 471.89 688.07 481.07"/><rect class="cls-8" x="705.05" y="482.39" width="14.83" height="14.83"/><rect class="cls-8" x="690.18" y="461.91" width="7.24" height="8.24" rx="2.31" ry="2.31" transform="translate(532.74 -354.09) rotate(45)"/><rect class="cls-8" x="659.21" y="518.42" width="14.72" height="13.5"/><polygon class="cls-8" points="480.99 568.81 492.05 570.14 490.71 580.03 480.55 578.97 480.55 568.81 480.99 568.81"/><rect class="cls-8" x="595.27" y="643.89" width="16.18" height="16.18"/><rect class="cls-8" x="611.45" y="643.28" width="16.18" height="16.18"/><rect class="cls-8" x="614.46" y="623.22" width="11.17" height="10.37"/><rect class="cls-8" x="613.13" y="633.59" width="11.17" height="9.69"/><rect class="cls-8" x="626.88" y="622.72" width="10.87" height="10.87"/><line class="cls-8" x1="642.21" y1="708.97" x2="638.55" y2="708.97"/><rect class="cls-17" x="648.77" y="696.75" width="10.44" height="12.22"/><rect class="cls-8" x="654.02" y="690.75" width="5.61" height="6"/><rect class="cls-8" x="638.55" y="694.31" width="10.22" height="14.67"/><rect class="cls-8" x="642.94" y="694.75" width="12.11" height="1.72"/><circle class="cls-8" cx="483.44" cy="722.42" r="3.94"/><rect class="cls-8" x="443.88" y="792.18" width="21.78" height="12.08" rx=".36" ry=".36" transform="translate(35.58 -19.25) rotate(2.52)"/><polygon class="cls-8" points="453.8 831.14 470.8 826.47 475.13 842.39 481.2 842.39 482.55 857.47 468.17 858.81 466.55 845.56 458.63 847.72 453.8 831.14"/><polygon class="cls-8" points="569.05 811.14 584.05 801.64 583.05 793.06 599.71 790.06 603.55 806.39 591.13 808.97 588.46 812.22 592.21 816.72 577.38 826.06 569.05 811.14"/><polygon class="cls-8" points="525.88 743.14 527.94 760.92 545.88 758.58 542.94 741.03 525.88 743.14"/><polygon class="cls-19" points="585.55 818.06 594.38 804.56 587.13 799.39 578.13 813.81 585.55 818.06"/><rect class="cls-19" x="527.6" y="747.14" width="17.83" height="8.89"/><polygon class="cls-8" points="504.66 758.92 520.82 748.28 531.21 765.14 514.6 775.31 504.66 758.92"/><polygon class="cls-8" points="573.05 758.47 589.05 755.03 593.99 770.14 576.38 774.75 573.05 758.47"/><polygon class="cls-8" points="587.38 753.31 600.21 766.86 606.77 760.08 593.49 747.19 587.38 753.31"/><circle class="cls-8" cx="705.05" cy="682.55" r="4.39"/><rect class="cls-8" x="760.38" y="578.58" width="8.33" height="15.64"/><rect class="cls-17" x="768.71" y="578.58" width="3.12" height="13.89"/><rect class="cls-17" x="879.77" y="589.22" width="19.69" height="6.08"/><polyline class="cls-17" points="877.63 582.18 877.63 576.14 899.46 576.14 899.46 589.22"/><path class="cls-8" d="M900.7,479.97h1.39c.3,0,.54.24.54.54v114.79h-2.47v-114.79c0-.3.24-.54.54-.54Z"/><line class="cls-5" x1="899.37" y1="576.14" x2="899.37" y2="434.76"/><path class="cls-8" d="M866.03,385.69c-1.73,0-3.15,1.42-3.15,3.15v.7c-.08,0-.16-.02-.24-.02h-.39c-1.86,0-3.39,1.52-3.39,3.39s1.52,3.39,3.39,3.39h.39c1.86,0,3.39-1.53,3.39-3.39h0c1.73,0,3.15-1.42,3.15-3.15v-.92c0-1.73-1.42-3.15-3.15-3.15Z"/><rect class="cls-8" x="928.66" y="322.81" width="8.56" height="8.56" rx="4.28" ry="4.28"/><rect class="cls-8" x="735.52" y="158.47" width="10.94" height="9.83" rx="4.92" ry="4.92"/><rect class="cls-18" x="738.15" y="164.12" width="8.72" height="1.72" transform="translate(100.81 573.35) rotate(-45)"/><rect class="cls-8" x="713.16" y="160.75" width="10.5" height="10.5"/><rect class="cls-8" x="772.82" y="163.39" width="9.44" height="23.92"/><rect class="cls-8" x="437.3" y="192.06" width="9.53" height="17.42"/><rect class="cls-8" x="438.76" y="183.81" width="6.92" height="8.58"/><polygon class="cls-8" points="429.28 181.7 432.73 174.6 441.65 178.49 438.65 185.43 429.28 181.7"/><rect class="cls-8" x="380.13" y="204.64" width="11.38" height="4.89"/><rect class="cls-8" x="404.99" y="217.64" width="5.22" height="17.62"/><rect class="cls-8" x="440.51" y="245.31" width="6.76" height="26.11"/><rect class="cls-8" x="418.13" y="263.64" width="23.52" height="7.78"/><polygon class="cls-8" points="332.42 169.6 337.51 164.31 342.92 169.43 337.88 174.89 332.42 169.6"/><rect class="cls-8" x="325.92" y="163.53" width="6.12" height="5.61"/><rect class="cls-8" x="245.27" y="164.64" width="10.94" height="4.44"/><polygon class="cls-8" points="163.27 207.29 172.66 207.29 172.66 217.75 161.33 217.75 161.59 215.2 163.27 207.29"/><polygon class="cls-8" points="167.66 186.64 201.82 192.58 198.66 210.81 163.5 206.2 167.66 186.64"/><polygon class="cls-8" points="193.32 186.08 192.76 191.01 197.77 192.19 198.99 187.69 193.32 186.08"/><polygon class="cls-8" points="174.27 207.29 172.94 213.86 187.27 216.08 188.32 209.08 174.27 207.29"/><path class="cls-8" d="M169.88,176.19l3.74.49c.83.11,1.56.6,1.97,1.33l.47.84c.38.67.45,1.47.19,2.2l-.52,1.47c-.38,1.06-1.38,1.77-2.51,1.77h-1.02c-.47,0-.93-.12-1.33-.36l-2.36-1.36,1.36-6.4Z"/><polyline class="cls-17" points="160.56 227.54 178.38 227.54 196.99 209.86"/><rect class="cls-8" x="146.6" y="267.53" width="10.44" height="22.44"/><rect class="cls-8" x="158.58" y="353.93" width="7.51" height="7.51" rx="3.75" ry="3.75"/><polygon class="cls-8" points="340.16 327.42 338.44 321.08 331.21 322.47 333.99 336.92 340.48 335.47 340.16 327.42"/><rect class="cls-8" x="224.16" y="398.36" width="13.86" height="13.86"/><rect class="cls-8" x="239.27" y="398.36" width="12.61" height="13.86"/><rect class="cls-8" x="221.3" y="412.22" width="23.53" height="3.86"/><rect class="cls-8" x="226.77" y="416.08" width="14.78" height="5.11"/><rect class="cls-8" x="166.3" y="455.25" width="5.69" height="12.67"/><rect class="cls-8" x="166.3" y="468.81" width="5.69" height="13.17"/><rect class="cls-8" x="250.21" y="477.19" width="16.08" height="6.61"/><rect class="cls-8" x="267.05" y="478.36" width="14.5" height="5.44"/><rect class="cls-8" x="290.13" y="439.19" width="8" height="19.67"/><rect class="cls-19" x="292.27" y="441.03" width="3.72" height="4.72"/><polygon class="cls-8" points="325.3 439.19 326.67 454.81 336.3 454.81 336.3 439.31 325.3 439.19"/><rect class="cls-8" x="324.71" y="454.89" width="11" height="11" rx="5.5" ry="5.5"/><line class="cls-11" x1="270.38" y1="412.75" x2="284.66" y2="440.14"/><polygon class="cls-8" points="194.46 483.64 194.46 475.39 224.13 475.89 224.55 483.64 194.46 483.64"/><polyline class="cls-17" points="195.44 475.41 195.44 471.36 223.71 472.81 223.71 476.53"/><rect class="cls-8" x="396.6" y="508.94" width="2.83" height="14.56" transform="translate(259.3 -120.69) rotate(25.35)"/><rect class="cls-8" x="396.98" y="483.05" width="2.83" height="14.56" transform="translate(456.93 -138.73) rotate(44.41)"/><polygon class="cls-8" points="424.44 560.08 413.21 560.08 414.44 537.42 424.44 537.42 424.44 560.08"/><polygon class="cls-8" points="376.3 568.06 365.05 565.14 361.49 576.72 373.21 580.64 376.3 568.06"/><polyline class="cls-17" points="298.88 580.64 312.05 580.64 312.05 549.47"/><circle class="cls-8" cx="817.51" cy="766.78" r="3.53"/><circle class="cls-12" cx="704.3" cy="469.91" r="3.88"/><circle class="cls-12" cx="709.99" cy="475.6" r="3.88"/><path class="cls-8" d="M752.41,407.53h-3.79c1.08-.49,1.83-1.57,1.83-2.83,0-.77-.29-1.47-.76-2.02,1.38-.32,2.42-1.55,2.42-3.03,0-1.24-.73-2.31-1.79-2.81.3-.48.47-1.03.47-1.63,0-.85-.34-1.62-.9-2.18.13.03.26.05.4.05,1,0,1.81-.81,1.81-1.81s-.81-1.81-1.81-1.81-1.81.81-1.81,1.81c0,.4.13.76.35,1.06-.36-.14-.74-.23-1.15-.23-1.72,0-3.11,1.39-3.11,3.11,0,.55.15,1.05.4,1.5-.56-.56-1.34-.91-2.2-.91-1.72,0-3.11,1.39-3.11,3.11s1.39,3.11,3.11,3.11,3.11-1.39,3.11-3.11c0-.55-.15-1.05-.4-1.5.25.25.55.45.88.61-.3.48-.47,1.03-.47,1.63,0,.77.29,1.47.76,2.02-1.38.32-2.42,1.55-2.42,3.03,0,1.26.75,2.34,1.83,2.83h-.09c-.41,0-.75.34-.75.75v4.83c0,.41.34.75.75.75h6.44c.41,0,.75-.34.75-.75v-4.83c0-.41-.34-.75-.75-.75Z"/><rect class="cls-8" x="730.05" y="201.22" width="11.1" height="11.1"/><polygon class="cls-8" points="725.38 213.54 735.6 211.79 737.46 222.81 727.13 224.08 725.38 213.54"/><polyline class="cls-5" points="224.3 169.14 224.3 209.75 257.49 209.75"/><polyline class="cls-5" points="225.84 169.36 225.84 208.31 256.24 208.31"/><line class="cls-5" x1="633.94" y1="445.49" x2="685.49" y2="445.49"/><line class="cls-5" x1="592.27" y1="503.1" x2="592.27" y2="445.33"/><line class="cls-5" x1="608.6" y1="503.1" x2="608.6" y2="445.33"/><line class="cls-5" x1="622.6" y1="503.1" x2="622.6" y2="445.33"/><line class="cls-5" x1="637.6" y1="503.1" x2="637.6" y2="445.33"/><line class="cls-5" x1="651.27" y1="503.1" x2="651.27" y2="445.33"/><line class="cls-5" x1="664.6" y1="503.1" x2="664.6" y2="445.33"/><rect class="cls-5" x="253.01" y="393.97" width="13.29" height="3.79"/></g></svg>