<?xml version="1.0" encoding="UTF-8"?><svg id="Layer_2" xmlns="http://www.w3.org/2000/svg" viewBox="0 0 1024 1024"><defs><style>.cls-1,.cls-2,.cls-3,.cls-4,.cls-5,.cls-6,.cls-7,.cls-8,.cls-9,.cls-10{stroke:#677693;stroke-miterlimit:10;}.cls-1,.cls-2,.cls-3,.cls-8,.cls-10{stroke-width:.75px;}.cls-1,.cls-4,.cls-5,.cls-6,.cls-10{fill:none;}.cls-2,.cls-7{fill:#080a0d;}.cls-3{fill:#9cadc4;}.cls-4{stroke-width:.5px;}.cls-5{stroke-width:3px;}.cls-6,.cls-7,.cls-9{stroke-width:2px;}.cls-11{fill:#080A0D;stroke-width:0px;}.cls-8,.cls-9{fill:#1e2733;}.cls-10{stroke-dasharray:0 2;}</style></defs><g id="NUKE_1"><rect class="cls-11" width="1024" height="1024"/><polygon class="cls-3" points="998.77 484.69 968.66 489.97 966.27 475.31 996.89 470.45 998.77 484.69"/><circle class="cls-1" cx="951.14" cy="505.87" r="1.62"/><circle class="cls-1" cx="125.32" cy="513.03" r="1.67"/><circle class="cls-1" cx="129.61" cy="543.47" r="1.67"/><circle class="cls-1" cx="139.38" cy="580.47" r="1.67"/><circle class="cls-1" cx="104.38" cy="580.47" r="1.67"/><circle class="cls-1" cx="69.38" cy="580.47" r="1.67"/><circle class="cls-1" cx="160.38" cy="543.47" r="1.67"/><circle class="cls-1" cx="184.38" cy="543.47" r="1.67"/><circle class="cls-1" cx="216.42" cy="543.47" r="1.67"/><circle class="cls-1" cx="238.22" cy="543.47" r="1.67"/><circle class="cls-1" cx="246.48" cy="591.71" r="1.67"/><line class="cls-1" x1="263.46" y1="600.81" x2="263.46" y2="598.18"/><path class="cls-1" d="M254.63,596.1h2.51c1.02,0,1.85.83,1.85,1.85v2.52h-6v-2.74c0-.9.73-1.64,1.64-1.64Z"/><path class="cls-3" d="M929.51,451.66h2.46v13.6h-2.46c-1.41,0-2.56-1.15-2.56-2.56v-8.48c0-1.41,1.15-2.56,2.56-2.56Z" transform="translate(1858.91 916.92) rotate(180)"/><path class="cls-8" d="M63.49,492.86v103.56h101.22v-19.11h61v32.67h22v-9.5h78.17v-4.5h58.5v9.44h6.33l80.44,120.22,137.22,43.89h60.78l.89-6h1.36v3.11h50.31v-14.83h-15.22v-33.06h-1.56v-2.39h-31.56v1.61h-1.72v20.89h-2.61v-24.5h10.89v-10.22h2.44v7.78h1.61v2.67h20.89v-3.06h1.94v-6h4.83v3.67h-2.78v40.72h29.06v-2.28h4v2.31h25.53v-2.27h3.88v2.12h23.46v-2.08h1.96v-17.17h-2.29v-3.79h2.29v-18.04h-2.21v-4.21h2.21v-35.38h-2.12v-3.83h2.12v-19.33h-2.12v-2.29h-24.17v2.92h-4.46v-5.12h13.29v-62.96h-29.04v-37.67h21.75l1-3.38-4.75-1.33,1.67-4.38,4.17,1.46s4.54-24.25,29.04-37.08l-1.5-3.67,3.5-2.25,2.33,4s8.75-4.92,24.58-4.92,22.58,4.75,22.58,4.75l2.25-3,3.08,2.17-1.75,2.5s11.5,5,21.67,18.17h61.17v50.08h52.92v-112.75h-299v24.92h-2.67v-20.83l-4.42-1.67h-26.67v-2.42h6.33v-59.03h-33.83v-9.22h-2.28v-6.33h2.17v-52.78h-2.56v-6.31h2.5v-3.38h-2.12v-3.79h-19.04v3.46h-7.12v-4.38h1.5v-27.83h-43.82v27.89h1.33v3.94h-7.44v-3h-20.28v66.28h1.06v6.72h-1.39v8.17h-24.83l-5.39,4.94v53.83h4.67v3.06h-18.39v14.11h-4.11v-5.22h-25.67v15.17h-6.94v29.11h9.83v4.28h-7.28l-2.28,2.28v37.61h-4.06v-24.22h-6.28v-4h5.94v-70.61h-18.06v28l-63.42,63.42h-5.25v10.75h-3.17v-17h-61.33v29h-47.89v-30.56h-120.22v-37.83l-68.61-4.89Z"/><polygon class="cls-2" points="429.1 522.31 429.1 526.42 423.21 526.42 423.21 575.39 425.71 575.39 425.71 577.64 449.38 577.64 449.38 574.81 452.88 574.81 452.88 577.64 454.3 577.64 454.3 574.69 457.44 574.69 457.44 577.64 475.49 577.64 475.49 581.39 455.35 581.39 455.35 607.64 457.66 607.64 457.66 610.53 493.49 610.53 493.49 607.42 497.49 607.42 497.49 610.53 529.63 610.53 529.63 601.35 531.55 601.35 531.55 609.68 537.63 609.68 537.63 625.47 565.66 625.47 565.66 623.19 571.49 623.19 571.49 633.08 566.32 633.08 566.32 635.47 564.16 635.47 564.16 664.97 566.38 664.97 566.38 667.31 610.99 667.31 610.99 664.53 613.99 664.53 613.99 635.19 611.49 635.19 611.49 633.25 597.16 633.25 597.16 623.36 603.55 623.36 603.55 625.69 632.71 625.69 632.71 564.08 636.6 564.08 636.6 484.19 639.55 484.19 639.55 492.81 641.1 492.81 641.1 495.25 666.66 495.25 666.66 497.53 641.32 497.53 641.32 499.64 639.1 499.64 639.1 524.86 641.6 524.86 641.6 526.25 643.38 526.25 643.38 528.08 638.88 528.08 638.88 632.47 616.21 632.47 616.21 669.58 561.71 669.58 561.71 633.25 529.38 633.25 529.38 612.92 451.88 612.92 451.88 582.97 419.55 582.97 419.55 522.26 429.1 522.31"/><polygon class="cls-2" points="492.27 577.75 512 577.75 512 557.47 515.27 557.47 515.27 577.75 527.32 577.75 527.32 575.19 539.21 575.19 539.21 581.47 541.1 581.47 541.1 584.14 557.88 584.14 557.88 581.64 559.71 581.64 559.71 545.36 557.71 545.36 557.71 543.31 553.27 543.31 553.27 541.36 562.21 541.36 562.21 585.69 539.32 585.69 539.32 588.31 530.99 588.31 530.99 591.64 529.1 591.64 529.1 583.19 526.77 583.19 526.77 580.25 492.27 580.25 492.27 577.75"/><polygon class="cls-2" points="488.05 483.75 488.05 507.31 481.1 507.31 481.1 510.64 510.77 510.64 510.77 512.47 514.21 512.47 514.21 510.19 527.71 510.19 527.71 512.25 529.16 512.25 529.16 560.97 531.82 560.97 531.82 507.26 491.88 507.26 491.88 483.75 488.05 483.75"/><rect class="cls-2" x="539.05" y="541.36" width="6.33" height="2.11"/><polygon class="cls-2" points="531.82 413.97 536.21 413.97 536.21 448.72 602.88 448.72 602.88 445.81 608.38 445.81 608.38 448.97 631.63 448.97 631.63 444.56 633.88 444.56 633.88 415.06 637.38 415.06 637.38 450.14 644.55 450.14 644.55 453.47 641.42 453.47 641.42 454.85 638.67 454.85 638.67 453.26 636.21 453.26 636.21 451.35 532.21 451.35 532.21 453.26 526.48 453.26 526.48 449.85 531.67 449.85 531.82 413.97"/><polygon class="cls-2" points="692.26 491.72 694.96 491.72 694.96 529.06 660.3 529.06 660.3 526.1 689.76 526.1 689.76 524.56 692.88 524.56 692.88 499.51 690.05 499.51 690.05 497.26 683.46 497.26 683.46 495.43 692.26 495.43 692.26 491.72"/><polygon class="cls-2" points="679.67 659.47 679.67 670.06 682.13 670.06 682.13 663.18 684.09 663.18 684.09 661.06 704.59 661.06 704.59 663.22 707.13 663.22 707.13 669.76 711.34 669.76 711.34 665.35 709.26 665.35 709.26 646.06 711.17 646.06 711.17 643.39 735.71 643.39 735.71 645.97 739.42 645.97 739.42 643.39 740.42 643.39 740.42 641.56 706.88 641.56 706.88 659.56 679.67 659.47"/><rect class="cls-3" x="314.96" y="579.31" width="13.25" height="15.5"/><rect class="cls-3" x="328.21" y="579.31" width="15.5" height="15.5"/><rect class="cls-3" x="343.71" y="579.31" width="17" height="15.5"/><rect class="cls-3" x="351.21" y="537.14" width="10.33" height="10.33"/><rect class="cls-3" x="331.3" y="537.14" width="18" height="2.25"/><rect class="cls-3" x="305.38" y="537.14" width="17.5" height="3.83"/><rect class="cls-3" x="300.21" y="548.72" width="5.92" height="2.25"/><rect class="cls-3" x="300.21" y="557.72" width="5.92" height="2.25"/><polygon class="cls-3" points="443.07 620.31 428.2 620.31 427.41 582.97 442.28 582.97 443.07 620.31"/><rect class="cls-3" x="486.3" y="686.22" width="11.62" height="11.63"/><rect class="cls-3" x="520.88" y="690.72" width="13.92" height="13.25"/><rect class="cls-3" x="520.88" y="703.97" width="6.96" height="8.17"/><rect class="cls-3" x="574.21" y="713.25" width="10.5" height="11.29"/><rect class="cls-3" x="577.21" y="704.97" width="8.28" height="8.28"/><polygon class="cls-3" points="602.55 740.64 565.32 739.31 565.32 724.25 602.55 724.81 602.55 740.64"/><rect class="cls-3" x="606.46" y="613.97" width="11.08" height="11.72"/><rect class="cls-3" x="647.44" y="601.19" width="11.17" height="11.83"/><rect class="cls-3" x="645.88" y="602.58" width="1.56" height="6.44"/><polygon class="cls-3" points="726.63 742.86 711.66 742.86 711.66 705.53 727.21 705.72 726.63 742.86"/><rect class="cls-3" x="747.46" y="735.31" width="14.65" height="14.65"/><polygon class="cls-3" points="794.8 725.06 781.3 723.81 782.47 710.09 795.56 710.97 794.8 725.06"/><polygon class="cls-3" points="796.76 686.76 781.3 685.97 782.05 672.06 796.76 672.97 796.76 686.76"/><rect class="cls-3" x="783.05" y="643.68" width="11.33" height="12.13"/><rect class="cls-3" x="710.82" y="645.81" width="10.78" height="10.78" transform="translate(188.86 -160.54) rotate(14.71)"/><rect class="cls-3" x="750.1" y="520.03" width="11.5" height="11.5" transform="translate(28.4 -38.64) rotate(2.98)"/><line class="cls-10" x1="680.49" y1="670.06" x2="680.49" y2="704.14"/><line class="cls-10" x1="707.27" y1="670.06" x2="707.27" y2="705.72"/><circle class="cls-3" cx="697.56" cy="454.27" r="2.46"/><circle class="cls-3" cx="702.49" cy="454.27" r="2.46"/><circle class="cls-3" cx="707.42" cy="454.27" r="2.46"/><circle class="cls-3" cx="718.74" cy="454.27" r="2.46"/><circle class="cls-3" cx="723.67" cy="454.27" r="2.46"/><rect class="cls-3" x="886.3" y="503.97" width="9.92" height="9.92"/><rect class="cls-3" x="893.51" y="451.22" width="12.88" height="13.25"/><rect class="cls-3" x="909.63" y="451.22" width="17.21" height="14.04"/><rect class="cls-3" x="568.55" y="294.06" width="12.25" height="12.25"/><rect class="cls-3" x="551.88" y="370.01" width="11.71" height="11.71"/><rect class="cls-3" x="553.55" y="381.72" width="9.92" height="4.29"/><rect class="cls-3" x="563.46" y="371.47" width="13.83" height="13.83"/><rect class="cls-3" x="536.21" y="430.42" width="8" height="18.31"/><rect class="cls-3" x="562.82" y="440.31" width="7.44" height="8.42"/><rect class="cls-3" x="537.48" y="417.69" width="9.28" height="9.28" transform="translate(169.44 -155.05) rotate(19.24)"/><rect class="cls-3" x="546.05" y="423.02" width="6.91" height="6.91" transform="translate(220.45 -186.35) rotate(23.95)"/><rect class="cls-3" x="552.05" y="430.29" width="6.91" height="6.91" transform="translate(653.39 -264.21) rotate(60)"/><rect class="cls-3" x="544.21" y="433.36" width="7.89" height="6.94"/><rect class="cls-3" x="545.94" y="438.31" width="16.89" height="10.42"/><rect class="cls-3" x="491.88" y="489.06" width="3.92" height="4.42"/><rect class="cls-3" x="491.88" y="493.47" width="3.92" height="4.42"/><rect class="cls-3" x="491.88" y="497.89" width="3.92" height="4.42"/><rect class="cls-3" x="526.77" y="489.06" width="3.92" height="4.42"/><rect class="cls-3" x="526.77" y="480.22" width="3.92" height="4.42"/><rect class="cls-3" x="561.81" y="460.72" width="10.85" height="10.85" transform="translate(33.42 -37.92) rotate(3.95)"/><rect class="cls-3" x="526.77" y="493.47" width="3.92" height="4.42"/><rect class="cls-3" x="526.77" y="497.89" width="3.92" height="4.42"/><rect class="cls-3" x="562.21" y="572.86" width="10.83" height="12.83"/><rect class="cls-3" x="573.05" y="575.97" width="7.44" height="7.44"/><rect class="cls-3" x="562.66" y="576.89" width="6.44" height="7.31"/><polygon class="cls-3" points="560.46 613.47 560.46 623.14 553.96 623.14 553.96 613.47 552.01 613.47 552.01 623.14 552.01 625.14 552.01 625.47 553.96 625.47 553.96 625.14 560.46 625.14 560.46 625.47 562.42 625.47 562.42 625.14 562.42 623.14 562.42 613.47 560.46 613.47"/><line class="cls-1" x1="553.96" y1="614.1" x2="560.67" y2="614.1"/><line class="cls-1" x1="553.96" y1="615.51" x2="560.67" y2="615.51"/><line class="cls-1" x1="553.96" y1="616.93" x2="560.67" y2="616.93"/><line class="cls-1" x1="553.96" y1="618.35" x2="560.67" y2="618.35"/><rect class="cls-1" x="477.92" y="605.31" width="8.04" height="5.22"/><rect class="cls-1" x="468.49" y="604.68" width="8.65" height="4.17" transform="translate(-83.29 75.29) rotate(-8.37)"/><rect class="cls-3" x="675.92" y="615.29" width="14.52" height="34.31" transform="translate(-104.25 135.79) rotate(-10.55)"/><rect class="cls-3" x="679.47" y="649.28" width="14.52" height="4.44" transform="translate(-107.68 136.76) rotate(-10.55)"/><polyline class="cls-6" points="565.88 327.22 565.88 369.06 603.13 369.06 603.13 327.22"/><circle class="cls-7" cx="504.32" cy="650.97" r="31.5"/><line class="cls-10" x1="510.66" y1="450.97" x2="526.77" y2="450.97"/><line class="cls-10" x1="530.69" y1="453.26" x2="530.69" y2="508.14"/><line class="cls-10" x1="530.69" y1="560.97" x2="530.69" y2="575.19"/><line class="cls-10" x1="529.88" y1="591.64" x2="529.88" y2="603.64"/><rect class="cls-2" x="491.3" y="612.92" width="38.08" height="5.97" rx="2.99" ry="2.99"/><path class="cls-2" d="M524.41,618.89h4.97v6.22h-4.97c-1.72,0-3.11-1.39-3.11-3.11h0c0-1.72,1.39-3.11,3.11-3.11Z"/><circle class="cls-1" cx="536.39" cy="636.34" r="2.53"/><circle class="cls-1" cx="547.76" cy="636.34" r="2.53"/><circle class="cls-1" cx="559.13" cy="636.34" r="2.53"/><circle class="cls-1" cx="552.83" cy="636.34" r="2.53"/><polyline class="cls-1" points="505.44 682.47 505.44 688.7 524.73 688.7 524.73 675.13"/><line class="cls-6" x1="706.19" y1="751.17" x2="676.32" y2="751.17"/><rect class="cls-3" x="715.46" y="742.86" width="9.46" height="7.06"/><polyline class="cls-6" points="727.38 451.22 727.38 475.64 712.82 475.64"/><polyline class="cls-6" points="712.82 493.31 727.38 493.31 727.38 591.08"/><line class="cls-1" x1="715.49" y1="475.64" x2="715.49" y2="493.64"/><line class="cls-1" x1="718.1" y1="475.64" x2="718.1" y2="493.64"/><line class="cls-1" x1="720.71" y1="475.64" x2="720.71" y2="493.64"/><line class="cls-1" x1="723.32" y1="475.64" x2="723.32" y2="493.64"/><line class="cls-1" x1="725.94" y1="475.64" x2="725.94" y2="493.64"/><circle class="cls-1" cx="899.39" cy="509.38" r="3.17"/><circle class="cls-1" cx="915.67" cy="506.14" r="1.62"/><line class="cls-1" x1="278.59" y1="600.81" x2="278.59" y2="598.18"/><line class="cls-1" x1="298.88" y1="600.81" x2="298.88" y2="598.18"/><line class="cls-1" x1="319.49" y1="600.81" x2="319.49" y2="598.18"/><line class="cls-10" x1="455.35" y1="583.42" x2="526.77" y2="583.42"/><rect class="cls-10" x="519.6" y="533.08" width="8.22" height="10.39"/><polyline class="cls-10" points="510.77 512.47 510.77 557.42 515.27 557.42 515.27 569.97 529.16 569.97 529.16 560.97"/><polyline class="cls-1" points="531.82 560.97 531.82 565.31 539.05 565.31 539.05 459.47 628.05 459.47 628.05 563.97 636.6 563.97"/><polyline class="cls-1" points="539.05 515.47 552.13 515.47 552.13 523.06 562.21 523.06 562.21 541.36"/><circle class="cls-2" cx="584.52" cy="512" r="8.58"/><circle class="cls-2" cx="602.84" cy="512" r="8.58"/><line class="cls-9" x1="590.03" y1="518.94" x2="600.16" y2="521.08"/><polygon class="cls-4" points="570.46 494.19 570.46 538.28 574.46 538.28 574.46 521.67 593.63 521.67 593.63 538.28 613.13 538.28 613.13 494.19 593.8 494.19 593.8 502.03 574.8 502.03 574.8 494.19 570.46 494.19"/><rect class="cls-1" x="664.71" y="523.11" width="19.86" height="2.99"/><rect class="cls-1" x="643.44" y="497.53" width="20.39" height="3.22"/><rect class="cls-1" x="689.49" y="501.97" width="3.39" height="8.42"/><rect class="cls-1" x="689.49" y="513.44" width="3.39" height="8.42"/><rect class="cls-1" x="666.66" y="509.92" width="17.5" height="3.17"/><rect class="cls-10" x="652.38" y="473.89" width="8.75" height="7.42"/><line class="cls-10" x1="687.88" y1="453.64" x2="687.88" y2="495.43"/><line class="cls-10" x1="639.55" y1="484.19" x2="672.96" y2="484.19"/><line class="cls-1" x1="643.38" y1="528.08" x2="660.3" y2="528.08"/><circle class="cls-1" cx="674.58" cy="531.31" r="2.25"/><circle class="cls-1" cx="679.08" cy="531.31" r="2.25"/><line class="cls-5" x1="599.34" y1="369.06" x2="599.34" y2="371.72"/><line class="cls-10" x1="638.67" y1="454.85" x2="638.67" y2="484.19"/></g></svg>